<mxfile host="app.diagrams.net" modified="2024-04-21T19:21:20.561Z" agent="Mozilla/5.0 (Windows NT 10.0; Win64; x64) AppleWebKit/537.36 (KHTML, like Gecko) Chrome/124.0.0.0 Safari/537.36" etag="1IfWZ_L3H_YxvYYwIclQ" version="24.2.7" type="device">
  <diagram name="Page-1" id="SZFi_UBmzwb3c7TnXBTQ">
    <mxGraphModel dx="1366" dy="855" grid="1" gridSize="10" guides="1" tooltips="1" connect="1" arrows="1" fold="1" page="1" pageScale="1" pageWidth="850" pageHeight="1100" math="0" shadow="0">
      <root>
        <mxCell id="0" />
        <mxCell id="1" parent="0" />
        <mxCell id="S7IZpB0op00duPQ5i5Fw-1" value="" style="shape=image;verticalLabelPosition=bottom;labelBackgroundColor=default;verticalAlign=top;aspect=fixed;imageAspect=0;image=data:image/png,iVBORw0KGgoAAAANSUhEUgAAB4AAAAQzCAIAAAANdqbXAAAACXBIWXMAAA7EAAAOxAGVKw4bAAAAB3RJTUUH6AQVEwwLgYO5jwAAACR0RVh0U29mdHdhcmUATUFUTEFCLCBUaGUgTWF0aFdvcmtzLCBJbmMuPFjdGAAAACJ0RVh0Q3JlYXRpb24gVGltZQAyMS1BcHItMjAyNCAxNDoxMjoxMcoD1AUAACAASURBVHic7N1/kJx3XcDx5/b2bu8um8s1l8aGbwstnqYKKpPQ54GOlmm0jrQwnTKAVSggfyhFap2qY5EZ6gg6lIlYJv4hjo6DDDCWGcoQxYmU1qQhZTPFkiZpe0nBYm5JmzR3ySVpk9ztrn88sD0ul/R+P/vj9fqjcz+e3Xw2M/2jb758vh21Wi0CZmHLli1RFN1xxx1ZDwIAAAAAzSGX9QDQNJIk2b17d9ZTAAAAAEDTEKBhtkII5XI56ykAAAAAoGkI0DBbAjQAAAAAzIkADXMQx7EtHAAAAAAwSwI0zEEcx6VSKespAAAAAKA5CNAwN7ZwAAAAAMAsCdAwB0mSCNAAAAAAMEsCNMyBewgBAAAAYPYEaJiDEEIURe4hBAAAAIDZEKBhbtIGDQAAAAC8IgEa5iaO41KplPUUAAAAANAEBGiYmyRJrOAAAAAAgNkQoGFu3EMIAAAAALOUz3oAyN6hQ4eGh4evuOKK9evXz/jA6Ojo9773vRUrViRJIkADAAAAwCw5AU2727p166233rpt27bbb7/9s5/97PkPbN++/W1ve9s3vvGNzZs3v/e9761Wq3Ec28IBAAAAAK/ICWjaWqVSueeee+6///6hoaHR0dFNmzbdfPPNV1555dQHPvrRj953331xHEdR9La3ve2//uu/HIIGAAAAgNkQoGlrO3bsGBgYGBoaiqJo9erV11133c6dO6cG6O3bt4cQ0vocRdG///u/R1F08ODBkZGRLOYFAAAAgGZiBQdt7fjx41dffXX922KxeODAgakPjI2NXXHFFR//+Md/5Vd+ZcOGDf/8z/8cRVGSJFZwAAAAAMArEqBpa5VKJZd7+d+CXC5XrVanPvDMM89s27btda973Z49e7785S//wz/8w86dO63gAAAAAIDZEKBpa4VCoVKp1L+tVqv5/E/tpXn1q1/9mte85rd/+7ejKFq/fv0NN9zwjW98I4QQRZEGDQAAAAAXJ0DT1tauXbtv3776t2NjYxs3bpz6wODg4NRvc7lcemLaIWgAAAAAeEUCNG3tmmuuiaJo+/btURQdPHhw165db37zm6Mo2rNnz+HDh6Mouv7660dHRx9++OEoikZHRx955JG3v/3tURSFEEqlUpajAwAAAEDDy7/yI9C6crnc5s2b77rrrqGhof379997771r1qyJoui+++676aab3vnOd3Z1df393//9n/3Zn33uc5975plnPvjBDyZJkr7WPYQAAAAAcHEdtVot6xmg+WzZsuWBBx546KGHsh4EAAAAABqXFRwwH/Vz0AAAAADAhQjQMB/pJYS2cAAAAADARQjQMB8hhBBC1lMAAAAAQEMToGGeQgilUinrKQAAAACgcQnQME9xHFvBAQAAAAAXIUDDPCVJUi6Xs54CAAAAABqXAA3zlN5DmPUUAAAAANC4BGhYEFs4AAAAAOBCBGiYpxBCHMfuIQQAAACACxGgYUFs4QAAAACACxGgYf7iOBagAQAAAOBCBGiYvyRJBGgAAAAAuBABGuYvhFAul91DCAAAAAAzEqBh/kIIWY8AAAAAAI1LgIYFieO4VCplPQUAAAAANCIBGhYkjmMrOAAAAABgRgI0LMg73vEO9xACAAAAwIwEaFgoARoAAAAAZiRAw4KEEGzhAAAAAIAZCdCwCByCBgAAAIDzCdCwUHEcj4yMZD0FAAAAADQcARoWKkkSKzgAAAAA4HwCNCxUCMEKDgAAAAA4nwANCxVCiKyBBgAAAIDzCNCwCByCBgAAAIDzCdCwCOI4LpVKWU8BAAAAAI1FgIZF4B5CAAAAADifAA2LwwoOAAAAAJhGgIZFkN5DCAAAAABMJUDDIgghhBBs4QAAAACAqQRoAAAAAACWhAANiyOO41KplPUUAAAAANBABGhYHEmSWMEBAAAAAFMJ0LA4QgjlcjnrKQAAAACggQjQsDgEaAAAAACYRoCGRRPHsS0cAAAAAFAnQMOiCSG4hxAAAAAA6gRoWDQhhKxHAAAAAIAGIkDDokmSxAoOAAAAAKgToGHRuIcQAAAAAKYSoGHRpCs4NGgAAAAASAnQsJgcggYAAACAOgEaFlMcx6VSKespAAAAAKAhCNCwmNxDCAAAAAB1AjQsJis4AAAAAKBOgIZFJkADAAAAQEqAhsUUQojj2BYOAAAAAIgEaFgKDkEDAAAAQCRAw6KL43hkZCTrKQAAAAAgewI0LLIkSazgAAAAAIBIgIZFF0KwggMAAAAAIgEaFl0IIbIGGgAAAAAEaFgKDkEDAAAAQCRAw1KI47hUKmU9BQAAAABkTICGxeceQgAAAACIBGhYIlZwAAAAAIAADYsvvYcQAAAAANqcAA2LL4QQQrCFAwAAAIA2J0ADAAAAALAkBGhYEnEcl0qlrKcAAAAAgCwJ0LAkkiSxggMAAACANidAw5IIIZTL5aynAAAAAIAsCdCwJARoAAAAABCgYanEcWwLBwAAAADtTICGpRJCcA8hAAAAAO1MgIalEkLIegQAAAAAyJIADUslSRIrOAAAAABoZwI0LBX3EAIAAADQ5gRoWCrpCg4NGgAAAIC2JUDDEnIIGgAAAIB2JkDDEorjuFQqZT0FAAAAAGRDgIYl5B5CAAAAANqZAA1LyAoOAAAAANqZAA0AAAAAwJIQoGEJhRBCCLZwAAAAANCeBGhYcrZwAAAAANCeBGhYWnEcj4yMZD0FAAAAAGRAgIallSSJFRwAAAAAtCcBGpZWCMEKDgAAAADakwANSysN0Bo0AAAAAG1IgIYlF8exAA0AAABAGxKgYcnFcVwqlbKeAgAAAACWmwANS+7yyy93DyEAAAAAbUiAhiUXQsh6BAAAAADIgAANSy69hzDrKQAAAABguQnQsORCCCEEWzgAAAAAaDcCNAAAAAAAS0KAhuUQx3GpVMp6CgAAAABYVgI0LIckSazgAAAAAKDdCNCwHNxDCAAAAEAbEqBhOQjQAAAAALQhARqWSRzHtnAAAAAA0FYEaFgmDkEDAAAA0G4EaJinQ4cOPfjgg8PDwxd/bM+ePUePHo2iKIQwMjKyLKMBAAAAQEMQoGE+tm7deuutt27btu3222//7Gc/e6HHnnnmmfe+97179uyJoihJEis4AAAAAGgr+awHgOZTqVTuueee+++/f2hoaHR0dNOmTTfffPOVV1457bGJiYk/+ZM/WbNmTfqtFRwAAAAAtBsnoGHOduzYMTAwMDQ0FEXR6tWrr7vuup07d57/2Gc+85lf//Vf//mf//n02xBCFEUaNAAAAADtQ4CGOTt+/PjVV19d/7ZYLB44cGDaM7t37y6VSn/0R3809YcOQQMAAADQVgRomLNKpZLLvfzvTi6Xq1arUx8YHx//+Mc//pnPfGbaC+M4LpVKyzEiAAAAADQAARrmrFAoVCqV+rfVajWf/6l16p/+9Kd/8Rd/8Yc//OH27dtHR0f3798/PDwcuYcQAAAAgDbjEkKYs7Vr1+7bt6/+7djY2I033jj1gUsvvfTJJ5/80pe+FEVRuVzevn17f3//+vXrreAAAAAAoK0I0DBn11xzTRRF27dvf8tb3nLw4MFdu3Z94hOfiKJoz549a9euXbdu3Z133ll/+A/+4A/e9a53/cZv/EbkBkIAAAAA2owVHDBnuVxu8+bNf/EXf/H+97//d37nd+699941a9ZEUXTfffd9+9vfvsgL0xPQtnAAAAAA0CY6arVa1jNAG9m0adOnPvWpOI6zHgQAAAAAlpwT0LCsQgilUinrKQAAAABgOQjQsKziOLaCAwAAAIA2IUDDskqSxFWEAAAAALQJARqWVXoPoQYNAAAAQDsQoCEDAjQAAAAA7UCAhmUVQojj2D2EAAAAALQDARoy4B5CAAAAANqBAA3LLY7jrEcAAAAAgOUgQMNyS5LEDmgAAAAA2oEADcsthFAul23hAAAAAKDlCdCw3EIIWY8AAAAAAMtBgIYMxHFcKpWyngIAAAAAlpYADRmI49gKDgAAAABangANGbj88svdQwgAAABAyxOgIQPpPYRZTwEAAAAAS0uAhgyk9xDawgEAAABAaxOgIQMhBIegAQAAAGh5AjRkI4QwMjKS9RQAAAAAsIQEaMjGHXfcYQUHAAAAAK1NgIZsWMEBAAAAQMsToCEb6T2EGjQAAAAALUyAhsw4BA0AAABAaxOgITNxHJdKpaynAAAAAIClIkBDZpIkcQ8hAAAAAC1MgIbMWMEBAAAAQGsToAEAAAAAWBICNGQmhBBCsIUDAAAAgFYlQAMAAAAAsCQEaMhSHMelUinrKQAAAABgSQjQkKUkSazgAAAAAKBVCdCQpRBCuVzOegoAAAAAWBICNGRJgAYAAACghQnQkLE4jm3hAAAAAKAlCdCQMfcQAgAAANCqBGjIni0cAAAAALQkARoyliSJAA0AAABASxKgIWPuIQQAAACgVQnQkLEQQhRF7iEEAAAAoPUI0JC9tEEDAAAAQIsRoCF7cRyXSqWspwAAAACARSZAQ/aSJLGCAwAAAIDWI0BD9txDCAAAAEBLEqAhewI0AAAAAC1JgIaGEMexLRwAAAAAtBgBGhqCQ9AAAAAAtB4BGhpCCGFkZCTrKQAAAABgMQnQ0BCSJLGCAwAAAIAWI0BDQ7CCAwAAAIDWI0BDQwghRFGkQQMAAADQSgRoaBQOQQMAAADQYgRoaBRxHJdKpaynAAAAAIBFI0BDo3APIQAAAAAtRoCGBmIFBwAAAACtRICGRpHeQwgAAAAALUOAhkYRQggh2MIBAAAAQMsQoAEAAAAAWBICNDSQOI5LpVLWUwAAAADA4hCgoYEkSWIFBwAAAAAtQ4CGBhJCKJfLWU8BAAAAAItDgIYGIkADAAAA0EoEaGgscRzbwgEAAABAaxCgobG4hxAAAACAliFAQ8OxhQMAAACA1iBAQ2NJkkSABgAAAKA1CNDQWNxDCAAAAEDLEKChsYQQoihyDyEAAAAALUCAhoaTNmgAAAAAaHYCNDScOI5LpVLWUwAAAADAQgnQ0HCSJLGCAwAAAIAWIEBDw3EPIQAAAACtQYCGRiRAAwAAANACBGhoOCGEOI5t4QAAAACg2QnQ0KAcggYAAACg2QnQ0IjiOB4ZGcl6CgAAAABYEAEaGlGSJFZwAAAAANDsBGhoRCEEKzgAAAAAaHYCNDSiEEJkDTQAAAAATU6AhgblEDQAAAAAzU6AhgYVx3GpVMp6CgAAAACYPwEaGpR7CAEAAABodgI0NC4rOAAAAABoagI0NKj0HkIAAAAAaF4CNDSoEEIIwRYOAAAAAJqXAA0AAAAAwJIQoKFxxXFcKpWyngIAAAAA5kmAhsaVJIkVHAAAAAA0LwEaGlcIoVwuZz0FAAAAAMxTPusBoL0cOnRoeHj4iiuuWL9+/YwPPPPMM88+++zq1as3bNggQAMAAADQ1ARoWD5bt2791Kc+de211373u9+9+eab77zzzmkPfPKTn3zooYc2btx44MCBFStW/Mu//Escx7t3747jOJOBAQAAAGAhOmq1WtYzQFuoVCrXXHPN/fffPzQ0NDo6umnTpq997WtXXnll/YGnnnrq3e9+9yOPPDIwMBBF0dvf/vb3v//9jz32WAjhjjvuyGxuAAAAAJgvO6BhmezYsWNgYGBoaCiKotWrV1933XU7d+6c+sDAwMDnPve5tD5HUXTVVVf96Ec/CiFkMCsAAAAALAYBGpbJ8ePHr7766vq3xWLxwIEDUx9Yt27dtddem379wx/+8OGHH77hhhuSJNm9e/eyDgoAAAAAi0SAhmVSqVRyuZf/jcvlctVqdcYnn3/++Q984AMf/vCHf+EXfsE9hAAAAAA0LwEalkmhUKhUKvVvq9VqPj/DLaB79+695ZZb3ve+991+++1RFKUrODRoAAAAAJqRAA3LZO3atfv27at/OzY2tnHjxmnP7Nq164Mf/OBf/uVf/t7v/V79hw5BAwAAANCkBGhYJtdcc00URdu3b4+i6ODBg7t27Xrzm98cRdGePXsOHz4cRdGhQ4c+8pGPfPrTn77++usnJiYmJibSE9NxHJdKpUxnBwAAAID5mGEDALAUcrnc5s2b77rrrqGhof379997771r1qyJoui+++676aab3vnOd37pS186ffr0hz70ofpL3vOe93z84x8vl8tOQAMAAADQjDpqtVrWMwAXs2XLlgceeOChhx7KehAAAAAAmBsrOKDRJUniBDQAAAAAzUiAhkYXQoiiaPfu3VkPAgAAAABzI0BDowshhBAcggYAAACg6QjQ0ARCCCMjI1lPAQAAAABzI0BDE4jj2AoOAAAAAJqOAA1NwD2EAAAAADQjARqaQLoDWoMGAAAAoLkI0NA0BGgAAAAAmosADU0ghBDHcalUynoQAAAAAJgDARqahnsIAQAAAGguAjQ0hziOreAAAAAAoLkI0NAckiTJegQAAAAAmBsBGppDCKFcLtvCAQAAAEATEaChOYQQsh4BAAAAAOZGgIamEcdxqVTKegoAAAAAmC0BGppGHMdWcAAAAADQRARoaCblcjnrEQAAAABgtgRoaBpJkgjQAAAAADQRARqaRnoPoS0cAAAAADQLARqaRgghhOAeQgAAAACahQANzeSWW27JegQAAAAAmC0BGppJkiRWcAAAAADQLARoaCYhBPcQAgAAANAsBGhoJuk9hBo0AAAAAE1BgIYm4xA0AAAAAM1CgIYmE8dxqVTKegoAAAAAeGUCNDQZ9xACAAAA0CwEaGgyVnAAAAAA0CwEaAAAAAAAloQADU0mhBBCsIUDAAAAgMYnQENTsoUDAAAAgMYnQEPzieN4ZGQk6ykAAAAA4BUI0NB8kiSxggMAAACAxidAQ/MJIVjBAQAAAEDjE6Ch+aQBWoMGAAAAoMEJ0NCU4jgWoAEAAABocAI0NKU4jkulUtZTAAAAAMDFCNDQlC6//HL3EAIAAADQ4ARoaEohhKxHAAAAAIBXIEBDU0rvIcx6CgAAAAC4GAEamlIIIYRgCwcAAAAAjUyABgAAAABgSQjQ0KziOC6VSllPAQAAAAAXJEBDs0qSxAoOAAAAABqZAA3Nyj2EAAAAADQ4ARqalQANAAAAQIMToKGJxXFsCwcAAAAADUuAhibmEDQAAAAAjUyAhiYWQhgZGcl6CgAAAACYmQANTSxJEis4AAAAAGhYAjQ0MSs4AAAAAGhkAjQ0sRBCFEUaNAAAAACNSYBuR3feeedHP/rRGX/1ox/96Prrr1/meVgIh6ABAAAAaFgCdDvav3//V7/61RtvvHHG3z7//PPLPA8LEcdxqVTKegoAAAAAmIEA3abiOD506ND69et/8IMfZD0LC+IeQgAAAAAalgDdvvbu3fuGN7zhrW996wMPPJD1LMyfFRwAAAAANCwBuq3927/92/ve97677777r/7qr7KeBQAAAABoNQJ0u/vYxz72d3/3d1/84hff9a53ZT0L8xFCCCHYwgEAAABAAxKgiW688cb//u//fvLJJ1/3ute5gRAAAAAAWCwCNFEURevWrdu/f//rX//6W2+9NetZmLM4jkulUtZTAAAAAMB0AnQ7+o//+I9/+qd/Ov/n6UroK6+8ctknYkGSJLGCAwAAAIAGlM96ADJQKBQu9KuPfexjyzkJiyKEUC6Xs54CAAAAAKZzAhqaXhqgNWgAAAAAGo0ADa0gjmMBGgAAAIBGI0BDK3APIQAAAAANSICGVnD55Ze7hxAAAACARiNAQysIIWQ9AgAAAABMJ0BDK0jvIcx6CgAAAAD4KQI0tIIQQgjBFg4AAAAAGooADQAAAADAkhCgoUXEcVwqlbKeAgAAAABeJkBDi0iSxAoOAAAAABqKAA0twj2EAAAAADQaARpahAANAAAAQKMRoKF1xHFsCwcAAAAAjUOAhtbhEDQAAAAADUWAhtYRQhgZGcl6CgAAAAD4MQEaWkeSJFZwAAAAANA4BGhoHVZwAAAAANBQBGhoHSGEKIo0aAAAAAAahAANLcUhaAAAAAAahwANLSWO41KplPUUAAAAABBFAjS0GPcQAgAAANA4BGhoeocOHXrwwQeHh4cjKzgAAAAAaCQCNDS3rVu33nrrrdu2bbv99ts/+9nPZj0OAAAAALwsn/UAwPxVKpV77rnn/vvvHxoaGh0d3bRp08033xxC2L17dxzHWU8HAAAAQLtzAhqa2I4dOwYGBoaGhqIoWr169XXXXbdz586shwIAAACAHxOgoYkdP3786quvrn9bLBYPHDgQx3GpVMpwKgAAAABICdDQxCqVSi738r/FuVyuWq0mSbJ79+4MpwIAAACAlAANTaxQKFQqlfq31Wo1n8+HEMrlcoZTAQAAAEBKgIYmtnbt2n379tW/HRsb27hxowANAAAAQIMQoKGJXXPNNVEUbd++PYqigwcP7tq1681vfnMURXEc28IBAAAAQObyWQ8AzF8ul9u8efNdd901NDS0f//+e++9d82aNVEUlcvlUqkUx3HWAwIAAADQ1gRoaG5Jknz729+e9kNbOAAAAABoBFZwQAuK41iABgAAACBzAjS0oCRJBGgAAAAAMidAQwtKV3C4hxAAAACAbAnQ0IJCCFmPAAAAAAACNLSoOI5LpVLWUwAAAADQ1gRoaE0hBCs4AAAAAMiWAA2tKV0DnfUUAAAAALQ1ARpaU5IkAjQAAAAA2RKgoTWl9xDawgEAAABAhgRoaE0hBFs4AAAAAMiWAA0tK4QwMjKS9RQAAAAAtC8BGlpWHMdWcAAAAACQIQEaWpZ7CAEAAADIlgANLSvdAa1BAwAAAJAVARpanAANAAAAQFYEaGhZIYQ4jkulUtaDAAAAANCmBGhoce4hBAAAACArAjS0sjiOreAAAAAAICsCNLSyJEmyHgEAAACA9iVAQysLIZTLZVs4AAAAAMiEAA2tLISQ9QgAAAAAtC8BGlrcLbfcUiqVsp4CAAAAgHYkQEOLe8c73mEFBwAAAACZEKChxaVroLOeAgAAAIB2JEBDixOgAQAAAMiKAA2tL45jWzgAAAAAWH4CNLS+OI7dQwgAAADA8hOgoS3YwgEAAADA8hOgofUlSSJAAwAAALD8BGhofe4hBAAAACATAjS0vhBCFEXuIQQAAABgmQnQ0BbSBg0AAAAAy0mAhrYQx3GpVMp6CgAAAADaiwANbSFJEis4AAAAAFhmAjS0BfcQAgAAALD8BGhoFwI0AAAAAMtMgIa2EEKI49gWDgAAAACWkwANbcQhaAAAAACWkwAN7SKO45GRkaynAAAAAKCNCNDQLpIksYIDAAAAgOUkQEO7CCFYwQEAAADAchKgoV2EECJroAEAAABYRgI0tBGHoAEAAABYTgI0tJE4jkulUtZTAAAAANAuBGhoI+4hBAAAAGA5CdDQXqzgAAAAAGDZCNDQRtJ7CAEAAABgeQjQ0EZCCCEEWzgAAAAAWB4CNAAAAAAAS0KAhvYSx3GpVMp6CgAAAADaggAN7SVJEis4AAAAAFgeAjS0lxBCuVzOegoAAAAA2oIADe1FgAYAAABg2QjQ0HbiOLaFAwAAAIBlIEBD2wkhuIcQAAAAgGUgQEPbCSFkPQIAAAAAbUGAhraTJIkVHAAAAAAsAwEa2o57CAEAAABYHgI0tJ10BYcGDQAAAMBSE6ChHTkEDQAAAMAyEKChHcVxXCqVsp4CAAAAgBYnQEM7cg8hAAAAAMtAgIZ2ZAUHAAAAAMtAgIY2JUADAAAAsNQEaGhHIYQ4jm3hAAAAAGBJCdDQvhyCBgAAAGBJCdDQpuI4HhkZyXoKAAAAAFqZAA1tKkkSKzgAAAAAWFICNLSpEIIVHAAAAAAsKQEa2lQIIbIGGgAAAIClJEBD+3IIGgAAAIAlJUBD+4rjuFQqZT0FAAAAAC1LgIb25R5CAAAAAJaUAA1tzQoOAAAAAJaOAA3tK72HEAAAAACWiAAN7SuEEEKwhQMAAACAJSJAAwAAAACwJARoaGtxHJdKpaynAAAAAKA15bMeAFhkhw4dGh4evuKKK9avX3+hZ5555plnn3129erVSZJs2bJlOccDAAAAoH0I0NBStm7d+qlPferaa6/97ne/e/PNN995553nP/PJT37yoYce2rhx44EDB7q6uo4dO7b8cwIAAADQDjpqtVrWMwCLo1KpXHPNNffff//Q0NDo6OimTZu+9rWvXXnllVOfeeqpp9797nc/8sgjAwMDURS9/e1vP3DgwPDwcDYTAwAAANDS7ICG1rFjx46BgYGhoaEoilavXn3dddft3Llz2jMDAwOf+9zn0vocRdFVV10VQti9e/dyzwoAAABAGxCgoXUcP3786quvrn9bLBYPHDgw7Zl169Zde+216dc//OEPH3744fXr17uHEAAAAIClYAc0tI5KpZLLvfy/KuVyuWq1eqGHn3/++Q984AMf/vCHJycnl2U6AAAAANqOE9DQ3D75yU9u2LBhw4YNv/Zrv1YoFCqVSv1X1Wo1n5/5f2Tau3fvLbfc8r73ve/2229PksQKDgAAAACWghPQ0Nx+93d/d9OmTVEU5fP5Wq22b9+++q/GxsZuvPHG81+ya9euO++886//+q9/8zd/M4qiEEK5XF62gQEAAABoHwI0NLfXvva1r33ta9Ov04Ub27dvf8tb3nLw4MFdu3Z94hOfSH+1Z8+etWvXrlu37tChQx/5yEf+9m//9ld/9VcnJiaiKLrsssuiKCqXyyGEjD4EAAAAAK1JgIbWkcvlNm/efNdddw0NDe3fv//ee+9ds2ZN+qv77rvvpptueuc73/mlL33p9OnTH/rQh+qves973hMJ0AAAAAAsgY5arZb1DEDGbrvttjiO77jjjqwHAQAAAKCluIQQiKIocg8hAAAAAItOgAaiOI7dQwgAAADAohOggShJkqxHAAAAAKAFCdBAFEIol8u2cAAAAACwuARoIAohRFFkCwcAAAAAi0uABqIoiuI4HhkZDOIZJgAAIABJREFUyXoKAAAAAFqKAA1EURTFcWwFBwAAAACLS4AGfswKDgAAAAAWlwANRFEUJUlSLpc1aAAAAAAWkQANRJF7CAEAAABYAgI0EEVRFEIIIZRKpawHAQAAAKB15LMeAGgUIQT3EAIAje/IkSP79+8vl8tHjhzZuHHjpT+R9VwAAMxAgAZ+LI5jARoAyMoLL7xw7NixI0eOdHV15XIv/z81q9VqpVIZGRnZu3fv0aNHR0dHOzs78/l8V1dXFEX79+/v7Ozs6uoaHBzcuHHjtddeq0QDADSUjlqtlvUMQEPYvXv33Xff/dBDD2U9CADQdr7+9a9//etfT7/u6OjI5XK5XK6zs7Ojo6OzszOKomq1evbs2Vqtlv78Qu9z4sSJyy677Prrr7/pppuWaXQAAC5KgAZ+rFwub9q06Qtf+EIcx1nPAgBt7fDhw8eOHXvuueeOHz/e2dn55JNPjo2NdXV1dXd3nzt3bmJiYu3atVEUpV9UKpXXv/71fX19GzZsyHrwuUmPPD/99NO7du164YUX6j/v6Oio/7P+kzQ6d3R0TE5O1mq1rq6uWq1WL9FpsM7n81EU1Wq1I0eOdHR03HvvvevWrVvWjwQAwHkEaOBl69evF6ABYPkdOXLkwQcf7O/vf/TRR8fGxqIoKhQKURTVF028ojNnzlx66aU9PT1XXXXVq1/96gaM0YcPH37hhReGh4e7urqGh4eHh4fPf2ZqdL7QT6IoyuVy/f39hUJhbGysWCx2d3dPfT5d33H69Onu7u43vvGNt9xyy6J+DgAA5kaABl522223xXF8xx13ZD0IALSFJ5544qmnnvrOd75z9uzZQqGQy+XS7jxXUyttrVabmJjo6+sbHR39pV/6pWuvvfb1r3/94o08By+88MLjjz/+4osvPv74408//fSKFSvqv5oxK19c+pJ8Pt/R0dHT01Or1Xp6egYHB1966aWTJ0+mW6FzudzUdz59+vSLL764evXqT3ziE4vyiQAAmAcBGnjZ3XffXS6Xv/CFL2Q9CAC0sn379j311FNf//rX0zPLC3y3GWNu7ScmJyfjOL7hhhsuueSSBf5BF5cecN63b19fX1/9gPPsQ3N97UYqmrJ2o7e3N4qirq6u9DB4fQf0qVOnXnzxxbVr165YsaJarabLSer/dZN+MTExMTY2Njg4qEEDAGRFgAZetmXLlgceeMA9hACwFI4ePbpjx46vfOUr/f39q1evTjdFLMRs8m6aoVetWvWGN7zht37rtxb4J051+PDhffv2jY+P79279+mnny4Wixd/vl6W6x88/WLaz6ftHpm2Dzq9lrD+npOTk+fOnYui6NJLL42iqFKpVKvVaX9upVI5cuRIsVj84z/+48HBwQV/bgAA5kaABl62e/fu2267bcadjADAvB09evQrX/nKY4891tPTUywW07vy5m0e+ytqtVq1Wl25cuWrX/3q2267bR5/aHov4t69e8fHxw8fPjw8PDx1pUZ0gSPMU7+dZsbcPPXdpr2qfiD6fGfOnBkfH7/88su7uroqlUra3NNfpcH61KlTJ0+eXLly5R/+4R9q0AAAy0yABl5WLpc3bdrkHkIAWCzPPffco48+unXr1r6+vp6enqnX5c3VPLrz+SqVyiWXXPL7v//7F9/Icfjw4SiKvvnNb65YsWLv3r3Dw8PpAeepXbj+9YW68FRpbu7q6srlche6WXHaYeepph18Pt/Uo9DVarVardZqtamvOnXq1OnTpy+55JK77777FacFAGARCdDAT9m0adMdd9zhvngAWLgvf/nL3/rWt9LuPL9dzwuMzue/vFarpQ16w4YNN9xwQ/3nR48efeyxx44dO/a///u/jz/++IoVK1asWHH+oeZZmn1uTv9jpFarXehPyeVys99VMjk5OTY29qpXvSqfz+fz+UqlUv9VpVIZHx8/d+7cxo0b3/3ud8/+swAAsEAL+n//Aa0nhDAyMpL1FADQ3L74xS9+7WtfW7NmTX9//zzS81y789SYe/GXd3R05HK5sbGxRx555POf//zExERXV1e6pCKfz69Zs6ajo+NVr3rVnP70i+TmaSem03/Wpoh+sqU63d1cfyZ9z/T6weiih6yn5ene3t5z586dPHnysssuS+epVCppie7v7x8bG3vsscc2btz4sz/7s3P6jAAAzJsT0MBP2b1795YtW77whS9kPQgANKV9+/Zt2bLl5MmTAwMDAwMDc3rt/M47z+NV6aLkKIpOnDiRbq6YmJjI5XJr1qw5ffp0vf/OaGpu7urqyufzU1dnXGiNRj03n39JYD1Dz/jHFQqFnp6eQqEwy8XZnZ2duVzu2LFj6cHzWq2WBvFqtVqpVM6dO/fcc88NDAx89KMfnc27AQCwcE5AAz8lhFAul7OeAgCa0r59++65555isTg4OLhy5cqLPDn1zPJC9mzM77W5XK5SqXR2dhaLxZdeeimXy3V2dhYKhXRVyJkzZ86ePZvOVs/NnZ2dXV1dacy9yLLmabPlcrn0dPPUbRgXevj8Bl2r1U6dOnXmzJmenp58Pl8/YT1jjE5vKUynGhwcPHbsWC6X6+vrO3fuXPratJivXbt2fHz8q1/96jve8Y7Z/n0BALAAAjTwU0IIURSVy+X0CwBglrZt2/aP//iPP/MzP9PZ2dnX1zfjM9Oi7bzT88J3Q+fz+XQfdHq7YJpuq9VqZ2fnihUrenp6qtVqd3f3Rf6gGc8sp5E3iqJ08Ui1Wp2cnIx+cvA53YaR/rnnv8n5DTqds1KpnDp1Ko3jk5OTZ86cqZfo9Iv6k1NfWywWDx8+fNVVV3V3d6cNOv15b2/vSy+99H//939PPPHEL//yL8/jbw8AgDkRoIHp0kPQAjQAzN6//uu/btu2Ld2e3N3dff7O4gUm40V/n66urmq1mh5qTu8ATH+eft3Z2Vk/TXxx9eKc3vs37bf10JyepK4/nP5B586dSxeA1M14Drqzs7NSqZw5c+bcuXNphq5Wq/XX5nK57u7u/v7+aa8qFArr1q17+umnr7766mKx+OKLL6YzdHZ2rlq16tixYw8//LAADQCwDGZ7ozTQPuI4LpVKWU8BAE1j8+bNDzzwwCWXXBJFUbrLYupvp17Et0CL9T5RFHV2dqaHoHO53NS3rS9rji58xjmfzxcKhRUrVqxatWrlypU9PT3pioxpT1ar1fPfob57pH44esYHpn2bBvFqtXrmzJnx8fGpL0zf6tSpUz09PVPvP4yiqFAoXHnllU888US6i6M+YXd3d19f37PPPvvNb37zYn9HAAAsBgEamC5Jkt27d2c9BQA0h7vvvvvRRx8dHBxMU2m6eiK1iOk5Woz63DFFehy4UCjUarXe3t70yr707Pa0Hp0W556enmKxODAw0N/fXywWe3t7u7q6Oi5q2nqN9G3TfdDVanViYiLdyzHja88fPm3Q6TucOnXqxRdfrFarHR0daXSenJx84YUXzp49u2LFiu7u7vqr0gY9PDycHpSuf7pisdjf379z584F/pUCAPCKBGhgOvcQAsAs/emf/umTTz7Z39+fttG+vr70QPHipucFOn+etD5HU1Zk1NduFAqFYrG4YsWK9Of5fH716tUDAwN9fX3Tzhe/okqlMjVG19Nz+quJiYn0sRlPSU+dtv51vUFHUXTu3LlTp06dPXu2/tjk5OT4+PjJkyfT09n1DL1y5crOzs7h4eH0rVauXDkwMLBy5crLLrvs5MmT+/btm9OHAgBgrgRoAACYj+9973tPPfXUwMBAWkULhUI+n1+K7jz7nD2t217ohfU9GB0dHemtgFEU5fP53t7e9Ghz+kE6OjrSdSL1S//SX+Xz+WmLO843OTlZ/1PSuwfT9Jz+ZGo4nvEzXuhA9NQGXa1WT58+XS6X09Kd/nB8fPzw4cPVajXN0IVCIZfLhRA6OzufffbZjo6Oc+fOrV69etWqVWvXrl23bt1//ud/zuYvFgCAeROggelCCCEEWzgA4CKOHj3653/+5/39/elJ2+7u7mmrnxdu9ieppz45m1d1dnbWC3Ial3t7e7u7u+uvyuVyaZXu7u6un5JO3zyXy82mR6cLoNP0XD/jnA427eLBaMoh6BkPPk/7emqDTt/w+eefHx0drc8wOTl59OjR06dPp2s30gUjl112WWdnZ19fX9qm086+du3aXC7nEDQAwJISoAEAYM7+5m/+pqurq1gspg20vrNiIV5xD/KFnp/rH1QoFAqFQprOOzs7e3p66km3btWqVadPn66fYr7QADP26PoDuVwu7cXpzzs7O8+dOze1aNddvEFP+4zpe3b85H7CarV68uTJZ599dnJyMp2nUqmMj4+fOHEinaGrq2tgYOA1r3nN+Pj4W9/61ueee+6KK67o7e0tFotRFD3++ONz+tsDAGBOpt9VDRBFURzHpVIpjuOsBwGARvQ///M/TzzxxKte9ap0mfL59fYV1Ytqugdjkee7qP7+/q6urkqlktbhXC43OTmZrqpINzWnj3V2dtarerVanc1nTBdJ9/b2nj17dmqGrjt79uzZs2frG6invvD8b9Mk3fGTywynPZPP59Pj1R0dHV1dXRMTE7VarVwur1y5Mr0QMr2rMJfLDQ4Orl69+rLLLoui6NChQydOnLjxxht37Njxpje96bvf/e7atWtfeuml2f3NAQAwH05AAzNIksQKDgC4kC9+8Yu9vb31E7j1e/Zm89oL3bA3J/M7+BxFUbqPIu2z0U+OD089aFw/XNzR0TE4OJieEZ7lR+vu7l65cmU+n09z8LTfnj179ujRo9OGn/r1tJdMO/58/uet7+KoH8Tu6OgYGxt79tln6zccjo+PHz9+fN26denLr7jiigcffLBYLF533XU/+MEPNm7cODg4ODY2ViqVZvMBAQCYBwEamEEIoVwuZz0FADSiffv2Pf3002mrnbr7+BUr7byr8bR3mHez7unpWblyZTRlQfPZs2dnPIJd77ldXV2FQqFWq1380+VyuRUrVvT29qbfpnV76kvS+jw108/mg7ziQpJ6Lk9LdLptY3JyslwuHzt2LH3h2NjYd77znfri6Te+8Y1bt24tFosbN24sFotvetObLr300m3btl18EgAA5k2ABmaQBmgNGgDO961vfSv6yd196TaJ+k6Ji+xKXpT0vJCXFwqF/v7+9OtqtVqpVNINFblcrr52I5XL5QqFQrFYTGt1X19fZ2fnjIubU/WDz+m3Z8+erf8q/QtJbwWcTam/yF9gdIHT4lOPbKfDpxcnjo6OHj58OH3m+PHjTz75ZHosetWqVSdOnEjz9IkTJ/r6+jZs2PDSSy8dPHjwQlMBALAQAjQwsziOBWgAON+2bdvSbpte4jfV+f104eF4UeJ1oVBYtWpVekC4s7MzPf48Pj7e0dGR3qMY/aQ79/f3F4vFdCV0+ony+fyqVatmPASdy+WKxWJfX99FhpycnHz++een/nZa777QzNNMPWw+TXrJYX1LdXpwO5/Pnzhx4siRI+mS6+eee254eDg9B/1zP/dzW7duTecfGxsbHR0tFosOQQMALBEBGphZeg9h1lMAQGN59NFHT506lc/n02O26Q+n3qo3pxUTF7Hw7pzK5XL9/f2Dg4Npoq2Pd/LkyYGBgYmJiZ6ensHBwXTdc6FQOP8darVaZ2fnypUrp4Xjnp6e/v7+qZcNpjNPTk5O/cnx48envXDGTD/1tzN+8FfcxdHV1dXx08usu7u703PQaYMul8s/+MEPzp07t2rVqnw+Pzw83Nvb+/3vf//73//+JZdccvz48SNHjsz45gAALIQADczs8ssvdw8hAEzz+c9/vru7Oz37nF7flx62rTfWtJ9mlZ6nvbarq6t+kWA0pfy+9NJLZ86cqW8RSettb2/v1IZbl360np6e+onv9OBzT0/PjDPULwBM3/n48eOV/2fv3mPkOus74D/nfua2M3vxrtfj2OtL4jgXpzhol1AgJkCgkIokfcPbmxuoogJBaSu1amlFc6OqBCppqygSJLw0NIUCahNoiFoq5MSQC14SY+fu2I7Xscdrr3dnZ+d27mfeP37dp0/OZXZtb7KO/f38Ec2cOXPmmTOVSr77y/cJgkjoHI/pxZV3KeIQs/4IRVHEAF2SJPo7wdzcXKVSoRaR48ePUwZNQ9DZbNZxHF3XTdMMguCpp55KuzgAAAAAnDZ14VMA4LxULpeXewkAAABnnf379xuGEQQBhaG6rlNsSkcYY7TP3pIMLy9e5OPoKZVpRI53Oh3f9+fm5kzTdBwnl8sxxqi8gofpQRD4vi9G6vQgl8s1m03DMBIHpTl6I/UyT09P0xWCIKAj/JqJUbIk7FIYf4neLs5cR+i6rmmabds8BKeTZ2dnGWOrV69ut9snT56kx+vWraMh6GKxODMzs2LFCtRAAwAAALwVEEADQDLah3C5VwEAAHAWmZyc9DyP4tdOp8NTTnpKuTPvSj69DPqU3pV2smmafX19lL3SIHC73aaXfN+nSopcLler1SiAjlxTVVVVVekL+r5P34jGmYeHh9/znve0Wq2pqalms8kYi9RW0A6EPGuem5tj87GymEF32YeQnyB2bvB+Z/Hi/DriPxVFoXFmiqE9z1NVNZvNzszMMMZWr15t27brukePHu3t7X344YdvvPHGmZkZTdMYYxSXAwAAAMDSQgANAMnK5XK5XB4fHx8dHV3utQAAAJwVKLrl+TIPZyknDYJAVVU+AS3L8oK77Z1J1Ub8oCzLmUymt7c3k8nwI9lsltJYWszJkyeDIMhmsxQuU6sGLTt+QRoo9n0/CAK+J+Hg4CBjbN26dfy01rxms3n06FHbtun43Nyc53liWByZg+7y7SjvpqdhGIZh2Ol0hoeH6QpsfrSZ/knxMYXm1Wq13W5TDp7JZMRp7pMnT8qyvGrVqhMnTnz0ox+dmpoqFovPPPNMqVSiiyiKMj09PTAwsJifAAAAAAAWCQE0AAAAAMCiUNDc6XTCMNQ0LQxDz/M0TePzvDyM5iUVlJzy7QrFSy3JkmRZpuQ0l8tR5THPbU3TpJpm13VpJSdPnnRdl+Jay7Ky2Sy/SOKXZYzlcrnVq1f39/f/7Gc/Y4w1Go1msxlp9sjlcnyS+tixY/w4jT+L6FZQUpxYVEKbB/JAnG5mqVS69NJLf/3Xf50x9vLLL7/yyiviBSOPZVmmkpAgCGgC2nGcMAz7+/tN0zx+/LgkSYVC4ciRIxs2bCiXy9/5znfo5iiKks1mjx8/jgAaAAAAYGkhgAaAVKOjo7t27cIENAAAABGDZsp5KYBm8xUcvu9HKpLpNEVR6ATKo097ATyxlWXZNE36J2NM0zS+Q6CiKLIsFwoFPqztuq7jODT7zBjTdd2yLMuy1q1bR4Ub8Q/KZrMXXHBBf38/pbGdTiebzbZaLcZYq9WKBNCivXv39vT0MMba7Tbv/RDRXaLUXgygaepZVVW6n4yxYrHIc2duZGTk8OHD/Mq8M5rfVV3XqRpFURSq4+Dj3tTF8cYbb9A6N2zYwBjL5XK2bdOfE1RVPXbs2GWXXdb1RwAAAACAU4MAGgBSjY2N3Xvvvcu9CgAAgLMOL4LgNdA8S43kubyOQzwSzlvwg+iysizLskzXoX0C+aeI0TM9zWQypml2BLVajXbeo0YOmgg2TTOfz/u+L6bA2Wx2zZo1AwMDAwMDYrArSVIul6MA+sSJE0NDQ4mrfeGFF8IwpKg3Pv4s3gEK7um2RAo3EnNncYXvfve7aRw7cqNoqTy/5iiJ5l9kzZo1lUqlUCgcOHBgw4YN1IVdLpcdx/E878CBA9dee23aygEAAADgNCCABoBU2IcQAAAgwvM86oigZNn3fZp6pld5Rwfv4ohfgVom+Ew037qQZ80UyIqZNc0pi9PKkiQVi8U1a9ZIkkTzyIVCQVXVl156iZbE5nPeSqVSq9X4Vn6u69IJ/f399HGqquZyOZ47MyF05mtjjLmuS09PnDjR/RYtGECz+TloVVXpVtDBYrH4gQ98YMuWLd2vv2LFirVr1x4+fJi9uYKDlppYJ8JPoNS7XC7PzMy88MIL69evHx4efv3119evX09Z/GL+KgAAAAAApwQBNACkQgANAAAQQTvaUaUDpZm0352YQdMDCpfZ/IQvP86f8pSZ9uXrvBkloaqq8rYNfmY+n3/Xu961cePGSNj63HPP0Z6B9LTValFKKy7MsizGWBAEvb291Ady1VVXbdq0KVJjHcmgGWPr169/9tlnGWPNZjPt5lC7heu6s7OzC95JWZZpdttxHMMw3v/+93/gAx9Y8F3kkksuqVQq7XY70mfC71saCvFlWe7t7W02m88//zzdW0mSstlso9GYm5t75ZVXNm/evMiVAAAAAMCCEEADQDejo6Pj4+OogQYAACA0uqvruuM4vO2BZ9CJI8+0856u65qmJW67J264R5myqqqGYRQKBd/36eKEKjI2bdpEKap4nddff312dpbGq4MgqNVq/K/INBesqmqj0aAjQ0NDvu93Oh1VVTdt2sSECovI4DN/kM1mqXik1WqltXC88MIL9HHVapXPNSfSdT2bzfq+32633/e+9/3mb/5ml5O5Wq02MTFRq9V27txJP0TiadTQ3dPTw3dZjMhms/T2w4cPX3XVVaZpVqvVvr6+YrHoOE6XhmsAAAAAOA0IoAGgGwxBAwAARLiuS+3JjDGeAlNMLGaXfDiXWiYoGqYjfN6ZP+UNG3SOYRimadJbNE3zPM9xnIsvvpjCYiYMXJNGo7Fv3z4KuFVVnZycpNJnNj/RrGkazQvTYyqJliTp8ssv5xehHFxclZhBDw8P33jjjT/60Y/Sbgulz6qqtlot13Vp/YlnmqZpmmar1cpkMrfeeuvatWu73/BarbZnz57Dhw9PTEyIq1UUJTLvzHurW61WvV7XNK2npyeTycSTaHp7q9V68cUXc7kcBdDZbFaSpCNHjlxwwQXdlwQAAAAAi4cAGgC6KZfLR48eXe5VAAAAnEU6nY7rurquW5YlbgBIGbRYakwpJ4XUPCrl887ivoJ8mFpV1UwmQy9pmpbNZnVdL5VK69evpxlkmqc+fvx4EAS2bdfrdcbY/v37qRnD9/1ms+m6rhj+0rw2328wl8vRCk3TXLlyZeTb8YnseClHNpu96qqrnnnmmcQJ6Hq9bhiGLMtTU1OdTsdxHNM043cvl8vJslytVletWvWHf/iHvb29afe5Vqs9/vjjzz//fNoJvHFbPEI/gWma7Xbb87yZmRm6q4VCIZPJ8DPpXbZtHz9+PJfLUTrvuq4sy4cPH37ve9+b9qEAAAAAcKoQQANAN2NjY/fee+9yrwIAAOBsYRiG4zie5wVBEIZhqVSK1BC3Wi1ZlikD5eXOjDHa4I7yaGkevcX3/SAIqHOjr69P07RcLkfTuIyxFStWrFixgs6kLHv37t1zc3M8TqX0meoswjAMgoC9ef7adV3XdelpoVCgsJumrS+88MK0bypuqMjm56CHhoZyudzBgwcjWwValrV3715Zlmu1mud5TIjpxdMKhQJjzHXd9evXX3TRRS+99NL73ve+xE/fsWPH448/zuZrr9NWKMsyfd8IKs6mwmu6w7Ozs9PT0ytXruRZP2OMQnxexh0EgSzLx44dS7snAAAAAHAaEEADQDeo4AAAABBRAM0Y63Q6tm1PTU319vZSzErzzrQPXhiGlGlGmprz+Tw/woNd+mculxsaGlIUxTAMSl01TSuXy5H6iNnZ2VqtxhhzXVfTtOPHj9fr9Xa7TZUgkXFgSZIcx6GUli5IXR+MMdM0u6TP4kXoS5FcLrdly5a9e/dGTnv55Zcpd6a10UcEQUBbNdJ9yGQyFBaPjIysWbOGMWZZ1uzsbGQI+tChQw8//DBdhzFGqX2X5cmynLjxoKqquq7z5J1OpnoNMYOm9F9V1Wq1quu6JEm2bS94WwAAAABg8eSFTwGA81i5XGaMIYMGAABgjMV3vQuCYG5ujuov+LQvT4GDIIjM5/KZXI62B5Rl2XEcx3Ha7fbs7OzU1BRtKijmp4wx27Z3795NWTBN9R44cKBer4vpM8+1ZVmmUJivqqenh81nwYyxeP9GmjAMqVjZ8zwq3zhx4gR/9bnnnnv99dfphFarJb7R8zzf92VZLhQKtLALL7yQ0mfy0ksv8ce1Wu1b3/rWt771LZ4+07IT82XxBqaNSGuaJobXsizrun748OGpqSnx+pZlZTKZarUahqEkSeKrAAAAAHDmMAENAAugIWhKogEAAM5n4+PjYtbJ53ybzaZlWatWrYqcz8NTmmimFo5Wq5XL5Rhj1NTBT/Z9n5Jlx3FoCFfX9T179mQymaGhoZGREcbYyy+/7DjOyZMnG40GtT8nZq+UyVJ4bZom5eM9PT1Uo6HrOn3u8PBwly9L9RSMMdd1bdumFulyuZzL5a644gpeA/3cc8/xoWy+82HkJhSLRQriN27cODg4KL5q2/axY8dWrVrFOzdEvI2aeqjTlkpD0JEuFDZfxCFm4tS4TetcsWIF/Tq+7584caLRaJRKJZoTP3DgwMaNG7vcHAAAAABYPATQALCA0dHRXbt2jY6OLvdCAAAAllm1WjVNc25ujuehPPQMw3Bubk5VVdpR0DAMOs4zaKp9oC0Em80mpcDihLKu6ydPngyCILJ3n2VZ+/bte/75523bPnDgQNra+EpoYbQPIQ1lUw8GLUmSJLr+ypUr8/m8eIUwDClx9jzPdV26INVo8NaRdrudyWQGBwcp1KYxbcZYq9Vqt9uR8WfS19dH17n00kuLxWJ82c8+++z+/fvFqWfxi/DT4gE0P0Lhfnw+nc1n0I7j8PujaZppmidPnvQ8j9ebtNvtarVK31os6AAAAACAM4cAGgAWgH0IAQAACIWtaShr5k0aVPfMCyIMw8hmsxSDKopCpcziDnuu61KASwd1Xbcsq9Vq1Wo13hPd5aP5AiiKpVEi13IZAAAgAElEQVRfuixjjGauJUmiyLXT6Vx44YVhGFIDsud5fOdAJmTZjuPwJFqcL87n80NDQ7Ozs6+//jrdFk3TZmdn4yvM5XKGYczMzIyNjVH6HJlTnp2dHR8fp75m8XjkUnwIusuGhIqixMs6KFCmHRH5pxuG4fs+Rd7URkK/Dv0JodPpVKvVtFsNAAAAAKcKATQALAD7EAIAAJAuETDVa/BKjTAMPc/jTykUdhyHgk42n6hSqMpj6CAIaAyZglQeXkemm0Vi37S4DL7Voe/7pmlqmkazz6qq0rsobxXDZfGfvu/TMiJ5cbvd7u/vZ4xls9mf/vSn2WxWURTXdYeGhvbu3RtZnqqq/f3909PTa9eu5R3Q4reoVqu//OUv6eOoC7vLfaZ9Hbv/BNQxEjlIK6E+bjpBluVsNluv1xuNBi8kyeVyjuPQGlADDQAAALCEEEADAAAAACwscSqWh86U/PLjkTyan2xZVhiGtOug+FJk/pfr3n3Mz+HhLGWs4sVd112xYgU1UbD5QHbt2rW8fYJfhF/Ktu1InQV/lR/fsWNHrVZrt9uGYei6nslk6vV6LpfjITJjrK+vr9Vq0XparVak8YOnz4Qy6O4Rc/cyaPqgyK6PRFEUwzDa7Ta/A4qiZLPZdrs9MzPT399PJ/D8mnZrBAAAAIAlIS98CgCc38rlcrlcHh8fX+6FAAAALKdI7hnfjTDyarwOglCKGrxZvL94wdxZvBol3dS/EUmfS6UST58ZY/TqJZdcwmKFG7TrYKvV4hlufDLadd3jx48fO3bs2LFj9JZ6va6q6sGDBxlj4reg8o1Wq7Vq1SrHcY4ePUolGCSSPtP1Pc/r/q352HjaCZGvL1IURSzXliTJMAzTNIMgaDQadNCyLMaYbdvUWw0AAAAASwIBNAAAAADAwnp7ezds2NDlBHH2Nt4FwcUjVDo5cXSXxUqTxeP8LdTdQY0Z4vlU+hwJXmn8WYyVgyCg3up4E3S8ALqnp4eyYzpIPdEnTpxgjIl7Kvb399dqtVKpRDPRruseOXKEXqpWq88++2z8G1FvSeKXFb91lwCaMUZj1Ikv0f6Q4q0wDENVVcuyGo0GlXd3Oh3HcQYHB7svAwAAAAAWDwE0ACxsdHR0165dy70KAACAZbZx48ZIOQOFoV2Go/kRsQE5MhzNi54j2XHkU0SUONMDKjXmFwnDkF7tdDq5XE6MXPn4sxgrO47TarUimw3Gc2f+9LHHHqPxZ1qAbduMMQqgaVdDxtjg4ODs7Gyn0+nt7eVvb7VaJ06cmJ2djafP/MvSpogsBT+tewbdZa9CXdfFeJqKOBhjlmVZlkWL735xAAAAADhVCKABYGFjY2Oo4AAAANi4cePKlSuLxWLiTneRTfYSZ3W7ZM2UHad9ND+fkmWKlSl65nsYRs7XNC1SLS1J0po1azKZDJsfoG61Wo7jsEXkzpZl1Wq1Q4cOUeIsfos9e/Y0m0066Pu+YRiu63qeNzAwEFnV1NTUM888k3hP+DV930+MgCPpc/wn4OiexK/AGJNlmb4+p6pqNpul+hEqCQnDEBPQAAAAAEsImxACwMLK5XKlUlnuVQAAACwzqgZeu3btvn37+MHEeWd6QDvmJbZFi1sUiud32WSPXlVVlTYbZIyJO/5FAllVVTVNo1FoegsdHxkZYfPbIdL0NHtzpGvbdqfTsSxrdnaWMVar1Wzbtm2bKj6osVpRFFVVKS53HMfzPNr8kDHm+35vb2+tVsvn87z6g69tYmLCtu2enp60lgzGWBAErusahpF4S8UbGz8unq8oSiTQp2XIsqzrulhIbRgGbb1IE9xInwEAAACWFgJoAFgYAmgAAADGWG9vbxAExWKxp6en1Wqx+RoKEp9fThwljjyOzP8GQSDmxUxIpSlupnMoYE1cJO1JKIa/vu/TUPDIyEhfXx8f9W2324yx2dlZKqCwbZtC58jVKHTmR9rttmmaPPv2fb/RaPBp6FwuRyPSpVKJCUkxvZE+0bZtKr5gKQkyBcH8IxLnu6nVpMumhbIsp02aU+LMt0yUJEnX9SAIPM87ceLE8PBw2jUBAAAA4DQggAaARRkdHR0fHx8dHV3uhQAAACwnx3H27du3cePGZrNJVchiBirONfOn4gni5G8YhvRULJIWh6DpsSzLNMjsOA5FpeLgM+ExK53P411+kK4gSdLzzz9PcTN1NHf5pvHomeRyOd/3aUi51WppmlatVvmr+Xy+3W739vbyRfJc/uTJk/weKooSmXGOfzSF7F3mwReTQcfXT++iDJon1KqqZjIZ3/ctyyoWi2kXBAAAAIDTgA5oAFgU7EMIAADAGJuamrrssssOHDiQz+dXrVoVCUAjTxMrICJPI/0bjDEqQaZ4Wtd1z/PoCHU6x9PnyAX57LOIBqiPHDly8ODBY8eOVavVLukz5cuu63bZDzAIApog1nVdvFRfX1+1WhXrL+h7zc3N0fgzHbFtm7d2JKK6j7RX+ZdNLNrm0ubE6TjdKN6RQhsSdjqdiYmJLp8LAAAAAKcKATQALBZaOAAAAGzb3rNnz8aNG994442+vr6LLrpI3NQubdfBxKeJjc+yLBuGQQ3OiqJYlsUY03Vd1/Uuvcn8o7PZbCRy5QErJcVdElsq63Ach3dDd/84SsZlWebJcl9f39zcXKFQCMOw2WyK+TsffyZBEPB3pV2/0+mITc2J57BFZNBp901VVb5JI90lXddN06xWqw888ECXzwUAAACAU4IAGgAWZWxsDAE0AAAAY8y27VdfffWCCy6Ynp6u1+ulUmn9+vX9/f2MMaq54GcuJsalB9QLQTXEFOwyxlzXpe3+FnlN0zTFjQ3F/Q81TesybkzRc/eR57gwDD3Po/95QKvK5/OtVosSeTGDnp6e9jwv8vYgCKgtusuqaGFdTlhwkRRAp313Svn5mbzh5Mknn/zud7+74MUBAAAAYDEQQAPAomAfQgAAAM627X379mUyGcuypqamKpWKLMtr1qwZHBzM5/OZTCYysyzLMsWgtBkgxco06cwYC8PQdV3aG5DSZ8dxfN8XE+RE4kSzoiiUMsff1el0+Khv5Phi2jYi+MXDMKzX6/wxYyyfzzPGenp6+MFms+k4zvT0dOKnO44TD6b5p/AAOr67I5vPi8W+7MhL/D502bBRlmWxsYTOzGazkiTt3r07MrUNAAAAAKcHATQALEq5XGaMjY+PL/dCAAAAzgq2bR8+fFjTtDAMbduempo6fPjw3NycLMuapuVyuUKhUCqVcrlcJpPJ5XK5XC6bzcqyTP3OfAc8z/Oo9YJS6Ww2a5pmYo8zl9ikkVg0QafFt/sTR54XM0ccuSA9ptB8dnaWnlLmHqmoDoLgjTfeSLsa7ayYmC/zj2OMeZ4XWWTaSHhaZM/3M4wH9PEMmnZxnJ6e/vKXv5y2MAAAAABYvNQ9TAAAIiiDBgAAAOL7vu/7iqLQgHMYhtVq1bbtvr4+ijjDMPR9PwgCGnzW5jHGZFmm2V6qfTjzxdBAMX0KE2JZfoRQ9n1KVRvi1cQAOgiCIAhoujkMQxp/5mEuP3Nubs73fXo1flnf9y3LyuVy4vF4vux5ntjXHLkIH4LuMjBO0b/YecLfTn9F4H3T9IvQfPd99933hS98YaHbAwAAAADdYAIaABZrdHR0165dy70KAACAswUf3eVdEIZhSJJETRq8X4Jmb2lLPUKNELIsq6qa1g5xSngC6/u+bdtirwXltnyDQc/zuqTPFNEGQcCrORzHsSzLtu16vV6v12u12tzcHGPM87wwDGVZtiyLapr7+vo8zzNNk8930zWbzWZkSezNPR5BEDiOE3+JL4nNR/nxV8VzmPCLJOqyi2NaGfTTTz+9Y8eOLtcEAAAAgAVhAhoAFmtsbOzee+9d7lUAAACcRag6gz+VJCkMw0ajUSgUInPNlJxSPXTa1SinPsMlUdYcBAFFqDRqzas2KBrmQS0lzmJeHD+emOr6vt/pdGis2LZtah2ZnZ3VdV0cuK5Wq/Sg1Wr19PQkRsCUd3fJ4umDaDFdAugF56CpiCOSv9PJVMTRbrf5pagM2vf9xx57bPPmzcPDw4nXBAAAAIAFYQIa4Lx25MiRn/70p/v27VvwzL1795qmiX0IAQDgPDcwMMAfdwlD4zly2vG4xWw8GD+/82bUKeF5Xr1ebzQarVar3W63223btmkOmojZNJ999jyP3hsEQTx9po+jGJcCZRqFZozNzMzQ9on8ZN5rEQRBq9VK+0ae59m2TYUkaV+ZTutyW9LuT2TxiSE4Jc6maUa2LsxmszMzM3fffXfaBQEAAABgQQigAc5fjz766G//9m//5Cc/+fznP/9P//RPXc48cODA7//+709NTSGABgAAECVOB6clyN2z0dOWeFlZliVJEvPltPdSk7XjOK7r0vndiyza7bbruvwcVVU7nY5lWfSUtmTkr/IAmhpI+GnxZQRBYNt22ofSBReZQaehcJkaURJP4A3d/ATDMDKZTLvdfvjhh7tfHAAAAADSoIID4DwVBMEdd9zxgx/8YOPGjdVq9ZprrvnkJz85MjISP9PzvD/7sz+jga/R0dHx8fHR0dG3e7kAAABnh0iBRloAnRiGdukg7v7GuO5FE10+aMFujS5v5A9o/JmO0GNKlqnKOQzDdrtNuw7yCg7iOI6maaoa/XcQWgyVQRuGkbYASZKCIJAkKX4FfkK8iCN+o6iII/FW67pOETxdKgxDXdd933/66ac3b968efPmbvcIAAAAAJJgAhrgPPWzn/2sVCpt3LiRMdbX1/eBD3zgySefTDzznnvu+dCHPnTRRRcxxsrlMoagAQAACBUTJ750qsfjFjMuHe/iUBQlnj7zMWfaVzCtWyNxARybj57r9TqPlT3Py2Qy9Ficbg7D0LKsSPrMuhZxUCbeZY9E/mXTikHiQXPiQTZ/oxI/RZZl/o3YfJpPRRzf/OY3JycnE98FAAAAAF0ggAY4T9VqtYsvvpg/zefzr732Wvy08fHxXbt2/fEf/zE9LZfLR48efZuWCAAAcNY7pSFiPpy7yDNZLAXukkrLsixGzxQ6e55H3RpBEHTv4oh8Fs0jU2Bt23a73a7X61QnHYZhs9mcmpqiIDiXy9FlLcsStx/0PC+xcCMIgna7nbgAumCXIg6eg0eKOCK3K/44jndxiOgl2pBQvDJl0NVq9f7770+7IAAAAACkQQANcJ4KgkD819TEGa56vX777bffc889/MjY2Nj4+PjbtEQAAICzXmLE2aVJg0eo8RO67z2YSNwujzEWhmEkdF7MmDO9i95i27Zt27RjoW3bdIReogllxhilzEEQnDhxol6vq6pKn1Kr1cQr0/m8A1r8RNu2E6ucacI6MYMWN1pkb86gI/dNvLHdA/f4fDR/qmkaH5Gm/72k67ppmocOHfrBD37Q5ZoAAAAAEIcAGuA88rd/+7dbt27dunXr+9//fsMwxP/ENQzDeJ3iV7/61UsuueTw4cM7d+6sVqsvvfSS4zio4AAAAOhuwa5nkhiPdh9zjpxJSXcYhpQRL9itQXPNlFDbtm1ZFs+aPc+jt9M+hHSa7/s8dxYvQit0XXd6eto0zWw2y4T/LUGf0ul0VFVtNBqJK2+1WonrpCvTYtK+NT2gpSam9uKCu9yN7mXZpmnyV+lTdF3XNG18fPz5559PexcAAAAAxGETQoDzyO/+7u9ec801bH7D+hdffJG/NDs7+/GPfzxy/ooVK15++eXvfve7jLFKpbJz586enh56XC6X38aFAwAAnKVOqeuZ8mJxfzyKSvkgc/zkLh9NJRvdF0ZBMEXGad3K/Go8We5yGl8zjTZnMplKpZLNZinOXrlypRgK01+76/U6/e8HURAEzWYzfpyWoSiK67q8zzo+48x3COwkbcYYOZh4DqHhcfHO8DMVRclkMtRYTb8FL4P+9re//bWvfa37XQIAAAAADgE0wHlk/fr169evp8f076U7d+68+uqr9+/f//TTT3/5y1+ml/bu3Ts4ODg8PPwnf/In/L2f/exnb7rppg9/+MM7duxAAA0AAMDmJ53DMIwM0nYv06CAVTzSJSFdpEjeatt2l2w68tGLzJ05GrIOw1CSJFVVPc+r1+u06yAdF1PjQqHQaDRM09R1PfK5vu9bliXu+EfoCnTBXC7XJV+mKWzDMBK/V/dbyl/lU+TxcxRFMQzDcRzGmCzLYgZ9//33/9Ef/VHX+wQAAAAA/wsVHADnKVmW//7v//6v//qvb7755t/5nd/5yle+MjAwQC/94z/+41NPPZX2xtHR0V27dr1dywQAADjbRaJbHkZHMs3ueeji898FrxmGoaZppmnGy7X4Z/EujsSSDboIdUOLxdC1Wq1arUb2ACwWi4ZhmKbZbrdN02w0GpR9i9dMK+JwHCexaoNGkqlaJO0r8AdpddJ8UJrFbm/kvsmynPbraJqmqiofUZckSdd1wzCefvrpf/3Xf018CwAAAABEYAIa4Pw1NjaWGDT/8z//c/zgN77xDXqATQgBAOB81t/fHzkSmWiO1GvEpe1bGH91wRaOOJ4mS5JE4SntH8jePOxMR8J5/FXGWGR0mkaVqcqDMaZpmu/74nwxVVU0m81cLlcsFmu1WqvV0nU9k8l0Oh2agKYijmKxGLlyEAStVqtUKsVvURAEiqL4vu/7fjxJF5tMaF/lyFB5ou5FHIkz47Ism6ZJw91sfrDaNE3f93/1q19t2bJly5YtC34uAAAAwHkOE9AAcGpGR0exDyEAAAATKjgWczJPP9POX5Ih6Pior67rYRjW6/W5ublGo1Gr1ehBo9FotVqWZTmOQ3sYUtrL5seKPc+zLIvaPPhlZVmOBLWqqhqGoSgKlWZQe4brupZlMcYKhQKdRiXR8a8chiH1LMdfoldt207brpA/Flco3hbxYPeaEcqgJQF/iTJo/pgxpihKoVCoVqsPPPBA2gUBAAAAgEMADQCnZmxsbLmXAAAAcPY6kzbnxe8BmPiJkTINypFpetcwDKrU6H5lz/Mcx6HQmZ/cEVCIzD+l0WhMT0/Pzc35vt9sNlut1tDQEK2EEmex+rnVasU3QqQijnjVhjimHU+u2ZvvFZVB87uRNoS+YAYt/nbiY0VR+Beh47Is53K5RqNx3333pV0QAAAAAAgCaAA4NeVyuVKpoIgDAACApKW6aR3Q3Ss4FiMxSBUPUu5sWZbneXScAtP4fn1UdiEOO/OaDo5qOjzPazabU1NTU1NTtm3Pzc0dPXq00Wi4rivLsqZpjLG9e/fSzDVdnMqj+WdREUd8AYwx3nEh3geepwdBEE+oI/0kVBWSuGNhl6eRC0Y2kxRpmkYtH/wjeBn0jh070t4FAAAAAAwd0ABwqsrl8nIvAQAA4Oy14CaEi5lx5icvvgaakmLf9yOb8vFl8CoJx3EorqW4WeyDFh/QObwDmkqZdV1vNpu1Wo1ff3h4+MILL7z44ovf9a53DQ8P//znP5+bmzt58iS9GgTB4ODg1NQUPXVdt9ls5vP5+MqbzWZPT0/kSwVBQAXQnuepqhovehbvle/7iqJEQmTeiJ34lggq4uBj2uJPRneP2kKoZoQxlslkfN9/7LHHNm/ePDw8nHhNAAAAAEAADQCnbHR0dNeuXaOjo8u9EAAAgOVEWWdi+/ApOZPWDn4F3o8hisxKdzodRVFs26aNARMvRXPHPHTmxxVFKZVKnueZptnf3/+Rj3xk7dq11157beTtn/rUp1RVfeihhzKZDF3KMAxVVfmcuG3bmUxGjJJphb7vW5aVzWYj66fgmzo9crkc/77ie+mpJEme5+m6Hu/FXvBIJPFP/OMBbbdIN5lOk2W5UCjMzMzcddddX//61xPvJwAAAAAggAaAU1Yul1HBAQAA5yfqmhClbSpI8SvPRhc8/wxRyYbnea7riuXI/AENRzuOI0lSJpOhx+JSxdCZv3HlypWrVq2amZmhZPnCCy/ctGlT95VcddVVzz333MGDB+kiiqKsWbPm9ddfp1epiKO3t1d8C90ox3E0TYvcYcrQJUmiDJrvBxh5L39MGXTaOfGsP35EluW0tmhN08IwpHtIJ8iynM/nm83mf/zHf/zWb/1W9zsDAAAAcH5CAA0ApwwBNAAAnJ/27Nlz6NCh+PEwDGkaOl4i3KXwIU3ixC496H4p6l9WVdXzPF6vQRXPlHoHQUBFyVRVEQQBjULTeHKn0xkeHpZl+WMf+5iqqldcccXWrVtPaeVkeHj4T//0T7/0pS/xpo4wDFesWMF7OboUcbRarVKpFDkeBAGl0p7nifsBiueIzSe+71NxR+IJaUc4uj9p1d6aptEd4zm1ruumaT7zzDOXXHLJ5s2b028MAAAAwHlqsaVyAADc+Pj49u3b9+3bt9wLAQAAePv88Ic/3LNnz2uvvXbw4EE6UiwW6UEul6NOCb4dH5tvbGDzu9uJcSevkiCRJNQwDPFIZBo3ba88vmUff+r7fr1ed12XH2y323xbv1ar1W636fjw8HB/f39/f/8VV1zxyU9+crF3pKuXXnrpL//yLxVFoe37fN8/fvw4T3UVRenp6YlEybIsS5JkGEbk/jDGVFXlEX82m43fAbHTQ5IkTdPEc6R54lviR0RiF3b8JSqDFvdpbDabxWLxz//8z1EGDQAAABCRutEzAEAa2ocQQ9AAAHD+ePDBB/fs2cMY46O1iSlwYqB5qgMfnTdb/LvEp7Isq6ra09PT29tLxcq2bTPGaFyXTjZNM5/PX3311RdddFF/fz9jbO/evT/60Y9OabVpLr300ltvvdXzvHa73Wq1Op3OwMAAf5WKOOJfodPpOI7Du0HE8+lBGIY8NxeJxSZUxMGf0o8Sv5ndby+l4Swpp+bbOfITFEXJ5/PVavX+++9PuyAAAADAeQsBNACcsnK5XC6Xd+3atdwLAQAAeDs8+OCDExMTQRB0Op34cC5jjA/28mpg9uZINK1S40xEcup49s0rmLPZbG9vb7FYLBQKmqb5vu/7fi6XKxaLfIib27t37969e898eYyxj3/84zfddBNjjOqbgyCgkXASBEGz2Yx/I8aYZVmRpmwq4qDH1MIc/7KR7RYpgxZvS/y2d/8hIjPU4ku8q5qfoyhKLpebmJj4/ve/3+WaAAAAAOchdEADwOkol8uVSmW5VwEAAPDWqtVqP/zhDycmJmzbptnn+CaEIj5sG297EJ8GQaAoStq2eImXjU/vdn9L/HzKTKkvYmhoiDHWbrcNw4i/d+fOnY9c8Qg9PswO04MJNpH4YISNbGPbrmZXf5p9On6pG264Yd++fc8//zxjLAgCwzCon5petW1b13WxiIOWTY0WPT094qWoaJtul+M4iqLEi57FmxkEAXVxdDmHCf3dcTTazIPvCF3XgyAIw5D/OoZh+L4/Pj6+efPmLVu2JL4LAAAA4DyEABoATsfo6CgqOAAA4JxH6TMVE1POSOW/7M3jsb7vR5LceP6bNqGcdvwMUSU0rTlSIW0YRqfT8X0/7YNqtdqP9v5ozxV7FvNBE2ziQfbgE+wJSqIjr5ZKpS9+8YuPPfbYd77zHcaYLMvFYnFmZoZepSIOsZqDzSfCvu9bliVOTNMQNA+dbduOl0HHM2jabjHtBDYf7sd/Bf7nAYrsWeyXkmU5k8m0Wi3xzwOZTKZWqz344IP33HNPl5sGAAAAcF5BBQcAnI6xsTFMQAMAwLltYmLi8OHDFDvyPQbz+XyXt8Sna5kwFs2PRxLhJV119CPoAX/KG41pDJnqoeM+uPODp/RxE2ziM+wziS+VSqXf+73f+4u/+Iu+vj7Xdan9g78aL4PmS3UcJ1LlLIbpYRhalhX5rHikLl4hfk5i7hwpfeZj1/EzFUWhPzzwjFuW5Z6entnZ2W984xvxtwAAAACcnxBAA8DpoAoODEEDAMC56tChQ48++iiFj+KQbCaTWeQsc5fG4bQweqks5pqRkuWIUq00MjFySh86wSZ4O0fctm3bvva1r23fvt113SAIxNoNy7Jc142vLQxDPm/OiYUYQRDwMmh+8+Oz55EMmqfYkXro+GaD/Mr054dEhmHQq/y9NBn9zDPP0NA3AAAAACCABgAAAAB4k0ceeeShhx6qVqtUZCFmmplMZsWKFezNFRyJFQ0sKZhOjIbjG+jFz0kLWBPxcJm/K7JC6t+QZblQKMQ/iHzwZ6c2BL2glStXfvrTn/7e9773mc98RgygGWPxIWheBh3JoMXdCBljnudFOprFWW96EAQBb53m4j9Wl0S+ewadyWQiU9KZTEbX9d27d1P5NQAAAMB5DgE0AJyOcrk8Ojq6a9eu5V4IAADA0pNluUvOu2HDhvi2dd0HikVi3BzJphc5DX2qOxCyWO8EbZ03PDysaZr0Zov6Dkm2sW0jbGTB0yiG/s53vnPLLbfwg/EiDn4/HcfhY878u4iz5LZtJzafiGi3wMhF4mvrcmNlWebj8Ill0OzNZR25XK5Wqz3wwANpFwQAAAA4fyCABoDThwoOAAA4J9VqtbSXLMsyTTMeQNNAceRg2mR0l7R68TH0IiXWHAdBkMlkMpnMpDG5VB90B7tj8SevXLnyuuuuW7NmDT9iWVak05nfB8uyxDsWGYJOLIOO4EUcPD5ezCh6RPz35agMWoynqQy62Wzed9993dcGAAAAcM5DAA0Ap2l0dBT7EAIAwDmpSwC9f//+drvd19fXpZMh4i3aZjBNPN2O5OBBEBiGsWrVKsZYfrrbnoqLNMJGDrFD29i2U3rX8PDw7bffLh5ptVpisizuNxgv4hCTYs/zIkXP8ZuQWAYdX1WXAFos4oj/ppqmKYpCxymGlmU5m80+9dRTO3bsSLsmAAAAwPkAATQAnKaxsTEE0AAAcL6xLKtSqWzcuFHTNFVVxVbltA7ouHhH82Letcgge8H+DVmWe3t7GWNTU1PNgeZirplohI3cwe44xA4dYocWU74Rd/nll0eKOApWdJkAACAASURBVOJBMz3wPK/dbosvRaqfHceJhM6JRRyJAXdEWgc33To+Bx2p45Bl2TRNJgxKS5JkmmY+n//xj3988uTJxM8CAAAAOB8ggAaA01QulxlaOAAA4Fx08ODByBGeNl544YUzMzNhGBYKBRqJpcCx0+kkBsRv8/hzvERCkiR+RJZlXddLpVI2m6W0d0VrRdqlIgkvJ+bOd7I7Ty965q677rqtW7fyp5EiDvG7OI4jjjDHizgiCXVijux5nng8HlLHCzoipc+R/QaZ8H8biqJQGTQ/QZKkXC5Xr9e/9KUvJXx5AAAAgPMDAmgAOE0UQGMIGgAAzj2maaZtzdff35/NZl988cXNmzevXLmSAk1ZlhPj2rSuZ8o3lzybTqwwpgCa4lFN0xhjuq4zxmZnZ2VZVlU18Tqu6zr2m7b+W9rcmVuwiIPfwzAMm803zWt3Oh3xDsfLoBMzaNd1E8+J7y6YuCsj3cm0307TNCqD5kcURcnn867rPvzww4lvAQAAADjnIYAGgNM3Ojp69OjR5V4FAADAEjty5EiXV/v6+mzb3r9//9q1azdu3MgYcxwncQI6DMO0pLJL13AnJu2N8XPS6iOoMIQxRi3G09PTjuMkbqXIeyqCMGBvWe4sGh4evvXWW/nTIAjq9XpkVfQgkkFHhqAZY57n+b4vnpBYSBI5hyX9MaB7GXSXDQmpDFo8QVXVbDb79NNPv/LKK2nvAgAAADiHIYAGgNM3OjqKCg4AADj3eJ43MzOT9uoFF1zAGDt27NiLL744PDx85ZVXjoyMWJbVbDZVVY1Ek0sy5hxPmROjVRaLTSVJ8n2/0WjUarVqtRoEga7rMzMzrut2Oh3DMMQ3hmEYBAEPZNWj6uPs8bcudxZde+21YhGH67qRoJk/dhzHcRzxpciYuW3b4qaLkTINeuD7ftpwuqhLBi3LctoctCzLkSIOxphhGPV6/f7775+cnFzwcwEAAADOMQigAeCMoIIDAADOPZIk7d+/P+3VTCZDg8+VSmXfvn2maa5bt279+vXNZtN1XU3TdF3nxdBpF+kyHH3aImGrqqrtdntmZiYIgnw+Xy6Xs9msZVnUpCyObFP0zHNbqjleL6/fxrYt7QrTxIs4bNsWuzLEr9Zut8X4ODIEvcgiDl4GLXZkR6Sl/CRez8JRBh1pjs7n841G4xvf+EbaBQEAAADOVQigAeD03XbbbQwZNAAAnHMGBgba7fbs7GzaCatWrdqwYYMkSZVK5YUXXpiZmVm3bt3Y2Bh1O1Dlha7raQHlW0TsepYkaXp6ul6vF4vFcrlcKpVom77IFn+8xYLeRU0d9DjSlfxWixdxzM3NiUvljxcs4giCIDIlzWKj6J1Ox/M8fvA0MmhexJH4E9PNFHcspAx6YmLiBz/4QeIFAQAAAM5VCKAB4IyUy2UE0AAAcI4pl8uDg4MHDx5MOyGTyVAGHYah67oTExOTk5OZTOaKK64oFAoUblIfcaPRUFWVskjxCl1Ga7tLS7QpD6UCYtd1JycnTdOk6FlVVcdx2u02m9/Tjz69WCzSPoSRzmLGWLvdXrly5emt8LRFijiCIBCDZnHq2fM8+jokHhP7vh8veo4Iw5CGwROv0P29bP6GU6d24l8aDMOgmg7+kqqquVxu165dzz//fOI1AQAAAM5Jqf/FGQDAYtx7771sfhQaAADgnWh2dvbYsWP099Q33njjjTfeyOVyuq4bhvGTn/zkyiuvTHujZVkvvfSS7/uapjHGNE1bv359oVDwPK/VatVqNQpJFUUpFArZbJZSzjAMwzBUVVWsYBZJkpT2kniOiA7SIPDc3JwkSfl8nnYdpIjcdV1JkoIgoPZnz/M0TRsaGkq7/pEjRy677LK3//+/T05OXn/99fypoijFYlHXdXoqflkaKKY7T8fp+/Iz6QR+RBxGFk/jfSl0TvyEtAccby8R0b9khWHYarX4q/TrN5vNXC73D//wDwvcCwAAAIBzhXLnnXcu9xoA4B1MkqRHHnnkxhtvXO6FAAAALNbs7Oxzzz138ODBxx577L//+79/9atfHTx4sFarOY6jquqqVatKpRJFxgcOHGg0Gr29vYnX0XW9r6+PMdZqtagIotFoUPlDb29vqVQqlUqmadIcNGPMMAwKRmVZphiaNv3jqTQfDaFUlNB4sqIoNE5Lux1SrMwY63Q6NIRL6vU6rZw+grJR27bpVSo+7nQ6mqYNDg6m3Z92u12tVt/73vdu2rRpae74ohUKBV3Xf/nLX9LTTqfjum4ul+MniKUZnueJ2/2J8TQ1O4dhSAk1nR/PlxljYRiK2wmK+XLkcVqhSmKLNJ1Mv6C4tSPVs9Tr9RMnTnT52wYAAADAuURd+BQAgK5QwQEAAGczKqP4xS9+kc/njx07dvDgwUwmQ3vEaZpWLpfVeWx+BtY0TcaYpmkbN2584oknGGPr16+nq0UiyEwms27dukKhUKlUHMdxHMeyLEqcC4VCLpejGJpmopvNZiaToUSSzXdK8K3/xCtrmiZO7zLGgiCo1+u8d4KqnC3LomCaFpzJZEqlEl2Td0pQIC7Lsq7rVDqhaRqdZtt2p9OhvQrDMOQ5+8zMDGOMznn7feITn/jFL36xe/duekpl0MVikZ5G9k5stVo8ng7DMBIxe55H/Sfx94r4DLt4QrwzOn6Qn6koitj4IaI2bf5z0MmFQuGpp54qlUqf+tSnFrofAAAAAO94CKAB4IyUy+XlXgIAAECCZ599dmZmZmJiglJIOihJUn9/P6WxFDorisK33eNJJZsfsM3lcp1O5+jRo4ZhrF69Ou2zBgYGCoXC9PR0pVJpNpvFYtH3fargoKqNbDZLSTSfXObjyWy+w0EckrVtW9d1XdeDIGi1Wu12OwgCRVF0XadF6rpO0bO4DCrZoO9LV3NdNwgCwzAooZZludFoFItFeqNlWXTc9/1ms0kB9NzcnGVZPT09PPN9mw0MDNx+++1iEQdViFARRyREdhxH0zRqLKEh9Mg9cRyHN1zTsHP8E4Mg4A0edP3EoDktv2bzjR/xIg6SyWRarZa4UyL9geEXv/jFxRdfvGXLltR7AQAAAHBOQAc0AJyp7du333bbbaOjo8u9EAAAgP/z9a9/3bIsXtFAobOiKNlslnbqC4JA13XXdT3Po1DY8zzbtqnjgsaZT5w48dprrzHGent7e3p61q9f372d2XGc6enp6elpqmCmBgZ6iZJowzBoGSw2TsvHovmDfD5fr9cpiU77RN4+QVegEWka7maMua5LM9eJ76Wd+qjWw/O8gYGBer1Ok9qrV6/+u7/7u8Xe67fAY489dvfdd/OniqKsWLGCP+XfiH5Z2k2Rzc8XRxJksQw63gTNbyDfKDKxLZqfnPYSNX6kbWbo+z6NmfMjVAadzWZRBg0AAADnPExAAwAAAMA56N3vfvevfvWrTqfDm5c1TfM8r1areZ7neR4/k8JBxli9XnccxzTNqampTCYzPT39xhtvUOAYhmG9Xn/llVcGBga6jEIbhlEulwcGBiqVCr2Rj81S2ssTYVoSBaY8j+brpKtRBk2Pxdyz0+n4vh9JpXn6zCmKIrYnx9GgdBAEPT09sizT7HMYhj09PR/72McWc5PfOmNjY1u3bl1kEcfc3ByNb9PXEXcjpBPoTxG8rDnes0ED7/R/Kl0mnbsXcfBylTj68wN1ntARisVrtdp99933hS98YZG3BQAAAOCdCJsQAsCZqlQqlUplbGxsuRcCAADwf1atWpXP5/fv3++6ruM4tm23223btmne2fO8drt98uTJSqVy/PjxWq02Nze3atWqDRs2fOhDH/rsZz/73ve+99lnnz1y5AjlwqZpUsEFbSfY09MT/0SeLVJXBt/6j715l7wwDHnbQxiGvu97nse3JaQJaDpIuwVKb0abCtIbVVUVZ59pjJcqKcSN9bqgBhJJkqrVKrVFB0EwODj46U9/+sx/gjORzWavvPLK733ve/wIZe68QyOy3yBjjAf3lAWLV6PyjcT3iqeJOzp2uXtpL9FfFNL+A1P+E4vXUVX11Vdf7e3tXbduXdrHAQAAALzTYQIaAM7U2NjYvffeu9yrAAAAiBoaGuKPfd+fnZ11XbdWq6mq2tfXV6/Xt23b1ul01q5d+653vSvy3lKpdMMNNxw9evTYsWORlyqViud51Onc5dPjg7R8mJp2AqSwkvJKSpPpNDqBDrL5HREJRef8+pZlUZO153mmaSYWHIufTkuybTtSJEJ3hh739PTceOONXa7zthkeHr799tvFIo65uTlexJFYBk0ZdGLXs23bvAw6reiZGrQ1Tete9xx5NVL3QX9X4IsUX8pkMjSjzY9rmtbX1/foo49u2bJlYGBgMbcFAAAA4B0HATQAnKlyuVypVJZ7FQAAAFFf+cpXKLF1HCeXy23atOniiy9eu3btyMjIYt5+9dVXW5Z177331mq1+Ks8sU0k7mgn7i7I5gs0GGMUdNL5QRDQ/GwQBGKNg+M4nU6HgkvHcWi7PDY/bMvbihNLouMRqiRJnufV6/XBwUE6QtUi4ndZu3btFVdcsdC9eZt84hOf+PGPf5xYxBFJgalSmRdxiIE+P8GyLOok6ZIv0zaGlCMn3kB60Ol00pq16b2JZR2yLBuGYVkWE7JpwzAajcZdd92FP+cDAADAuQqbEALAEti0adO+ffuWexUAAABvMjEx8eqrr1588cWLTJzjarXa97///W9/+9s9PT1ioDk4OGia5sqVKyPni1sC+r7PNzNkjFGsyU9QVXVubo4Wxjev69LewK+QttTuhRuUyVLwPTc3t3LlSpqzdl3Xtm0eea9YseLmm29eu3btQjfm7TM5OXn99deLR4rFIu0tyWIbBhqGQa3ZVK4dv12GYdBEebymg6PGFRbbcjA+z96lKppudSLHcSiDZvMxdBiGs7Oz11133Vkyew4AAACwtNABDQBLYHx8fPXq1eVyebkXAgAA8H9KpdLGjRu7F2V0Z5rmxo0b9+3bNzMzI+aV1OPc29vLdw4Ua5rpHFmWTdPM5/O5XE7Xdd7MwE84ePBgT09PLpeTZZkaitUU9GokDI1I+woUhrquy3shaMiXcucgCCj+Zmdl+swYKxQKq1at2rlzJz/i+75pmvznEL87fTU+fp7YSSLLMr23+33jO0N2ObNLTcciy6D59TVNGx8fv/TSS3nHCAAAAMA5AwE0ACyB8fHxer2OfQgBAODcY5rmr/3ar/385z+nQWaiKIrrurOzs4qiZLPZtPfy+VZJknp6erLZbC6X0zSNMtBarXbkyJGVK1fy3fO6WGTczFGsHIah4zjixneMMVVV+Xwub5Q+O9NnctFFF7344otHjx6lpxSpi0PQ4sm+7xuG0SU4DoKAN5akxcrUv0FX7jJ1vmBVdNpLqqry2hP+NwxN0/bs2XPFFVcUCoW0TwQAAAB4J0r9n1MAAIuH2WcAADiHDQ8P/9Vf/RXvTeZc1z1y5Mjrr79erVbj7/LnNRqNqampSqVCg8yZTKZYLPb29pbL5Xa7/dprryV+6KkmzowxSpxprpkKPcQ6acJnb2mFdFp/f/9Zmz6TL37xi2JM77pus9mkx5F4PQzDubk5ehz/+my+DJox1qXzhAk3p/vCupwQGVoX0YaE4hFJkgzDaDab999/f/dPBAAAAHjHwQQ0ACwBSZIeeeQRFBcCAMC5amho6D3veU8+n3/hhRcYY6qq8mwxDENKmV3XpTlWOu44DlVz2LbtOI6u61RPzBWLRcuyjhw5omlaX1/f6SXOhLdIR06IJ7D8CM0Rdzqdj33sY7fccsuZFJW8DQqFwtDQkFjEEQQBL+KI3DG6D/yHEEeY6TTKrFVVje8lKF4nDEO6yII/R9okNbVtJL6F4mmxKpr+j+fYsWOdTmfz5s3dPxEAAADgHQQBNAAsjW9/+9s333zzcq8CAADgrZLP5y+//PLBwcHXX3/dtm0eXHY6HV3XwzB0XbfRaDQaDWqIlmW53W4HQaBpWrFYLBaL8Wv29PScOHHCsiyq8qDx5E4MS8qa+dMgCBJrIihfFo+I6XMQBMVi8ZZbbnmnNGh1KeKI58j0E1DIK8bT/EGn06G/IkTC63iUzDPutIUl/sFAvHKXMujIbyTLsqqqR48eXbNmDcqgAQAA4JyR2k0GAHBKrrnmmoceeghdHAAAcM47ceLEE0888e///u/8SCaTiex3p+t6LpdTFIXGWk3TTLyUJEnT09O7d+9es2bNBRdckLhpHhUNp/VE0wgt31hPfBfvd+ZHxIHokZGRz33ucwt81bPM5OTkTTfdJH6vfD5Pc+U0bC6eLMsy3yWStiVkb86RZVmmtuXEhJozDCN+eznxjYkhNd128d+5xMdhGNbr9chbWq2WYRj33HNP4icCAAAAvONgAhoAlsZPf/rTzZs3I4AGAIBzXj6fv+yyyz74wQ+2Wq2JiQk6yCNOwmdygyBwXbfdbtu2zfsW+GQuYyybzdJ7s9lsPIDmk87xgJXN7zTI5kNq8YRI6MmEruT169ffdNNNH/nIR87kJiyLQqGwevXqxx9/nB+hAXNFUeJD0DQebhgGE9LhSFNHp9MRSzYSE+QwDMXfSxQZnU4r4pAkSSziiHSt0By0+BZVVev1+okTJ6688soF7wkAAADA2Q8BNAAsjUqlUqlU3in/GS8AAMAZyuVyo6OjFEMfOnRI13U2HwSz+XCTDhKahKUwmh7Ytu15nu/7uq7rui4O6orv4g/i8bRYqVGq1dxslp6WarUVlUpNqHWmqPrDH/7wTTfd9L73va+3t3cp78XbaMOGDZOTk/v376ennU7Hdd1cLkdPIxEwlZPQXU1s0giCgMpSWHqCzIQMmh/pEjcnHpSk5P/wVJIk2prSNE3HcRzHoWIQXddfffVVz/MuvfTS1HsBAAAA8A6BABoAloaEfQgBAOD8QzH0tm3bWq3WG2+8QQf5Tnc83OT4JCztgBcEAY0q04BzpGcjvn+deLW1hw595l/+ZXJoaLZYfNfevX/40EOMsbne3tFnnvl/v/e93rm5X23Zwk++5pprbrrppksvvZRKk9/RLrroop07dzabTXpKwS5l/fFcmPJ9Opg4RU4z1DSJnPaJ9HcF/vbufdCJByPt3r7vU6itKIqmabqua5qWz+c1TbMsi75Ru92uVqurVq0aGhpa3I0BAAAAOEuhAxoAlkalUtm+ffuOHTuWeyEAAADLY3p6enp6+sknn3zyySd54kktw2x+JpoeS5KUzWZZrCCY6obpMa/X4GiYl05YOzFx8z//M2OMxpxLtVpkMbPF4v/3pS9t3bq1VCpt3br1rfnGy+Z//ud//uZv/oY/VRSlWCxS0BzPkWVZ7uvro1njxJRZVdVcLtc9g6Yu77QrcGICTj+fpmmyLIdh2G63HcehJFpV1bS/LtC7HMehXo5isbhx48aPf/zjJWGeHQAAAOCdBQE0ACyNSqVyzTXX7Nu3b7kXAgAAsMwoiX711Vefeuqper2eyWTiaaNpmlSpQVXFdIKqqjQETQfjV6ZyhqufeGLbE08svI5z+n/n33333Y899hh/qijKihUreLFy5ORsNpvNZrvs5WgYhmmaiSPSTGiINgwjcaPI+Ml8wJmiZOrWoElnOi2+OaHIdV3XdX3fp6v19/dv3br1Qx/6UPePBgAAADg7IYAGgCWzffv22267bXR0dLkXAgAAcLaoVqv79+8/cODAzMzMgQMH+HGq/eVPKY5kjNFBXu4c0Ts39/889ti6w4cX9dmPP862bTuDtZ/VJicnP//5z09OTvIjmUyGxoQTh6ALhYKmafFSFH5CJpOhaeX4qzyVlmXZNM0uFRyMsTAMZVl2HIf3gKel3ryXI/5Sp9OhcWkKqUmpVHr3u9/9Ttw9EgAAAM5zCKABYMls3779xhtvvOGGG5Z7IQAAAGejarXKGNu/f3+1Wp2dnW21WrOzs7Ozs/QqTT3zCej42z/0859/6MknT+HzzukAmjG2e/fuz3/+8+KR/v5+KuKIZ8S8iCMtDlYUJZ/Px4egI0+psjn+doqSJUlyXTcMQxq47h5V83clTruHYUiXEreaJB/96Eevueaa7lcGAAAAOHtEN9oGADhto6OjR48eXe5VAAAAnKX6+voYY2NjY5HjlEHzf1JqyTt/e3t7//efDz7ITimAfuKJczuA3rp16w033PDII4/wI7VabXBwkOL7SPgbhmGz2czn877vq2rCvwSFYWhZViaT6V6y4fs+lXGLb6RPtG1b0zQ+2E57S7KUPycQWqSiKPGZd7G0ml6lk33f/6//+q8gCDAKDQAAAO8UmIAGgCUzPj5+7733PvTQQ8u9EAAAgHPUxAT74AfZxMSiTt62jT3++Fu7nuV2SkUckiTl83lq3468ytNqwzAymYwYXsenmCVJonMcx2GMqapq23akU4XIsizLsrj/ZOSa4vhzvI4jDEPaitD3fZ5QB0Fg27aqqmNjYx/5yEfo7xMAAAAAZ7NumzgDAJyScrlcqVSWexUAAADnrpER9vjjbGRkUScvMqd+JxseHr799tvFI5ZlWZbFkuaOO51Ou90OgiCtYpsx5nme53n8aWKHRqfTcV233W7TPoGe5+VyuXj6LEkSn8WOEM/hA9fx9g9+RFVVfpqiKJqm+b7/9NNPf/3rXz948GDadwEAAAA4SyCABoAlUy6XGWPIoAEAAN5ClEHfccfb/8l33vn2f+bCqIhDPNJoNGjvvvjJYRjOzc2l1S6z+SKOtFc513XpI3RdNwwjfoI448zmM+i0q/FxbJqYFnNqnjurqsrbq2krRd/3jx49+m//9m/iADgAAADAWQgBNAAsJQxBAwAAvOVGRtinP71wBj0xsbRD0HfddQr9H2+nm2++ee3atfxpEASNRoOllC+HYUhz0GlVhJRB046C8VcpvJYkSVVVwzBomDqtYSPyUloGLQ5HUwbNj4ttIbIsa5pG59AcNGNscnLyX/7lXxIvCwAAAHCWUO48OycZAOCdqVKpVCqV+PZKAAAAsJRKpf/dYHDnzm6nXX/9Yvs6FkLZ6cQE+9GPWK12du1uWCgULr744v/8z//kR2inQdoqMF7oHIahoihithuJhoMgUBQlvlchpdKU/NJsMuXLdJ14wwYR+6a7ZNA8qqaImT+VZZl3htBLYRjSQUVRfN+fnZ0Nw3DTpk0L3ScAAACA5YEJaABYSmNjY+Pj48u9CgAAgPPDnXcusM3gkqbPZGKC3XXXWVfHcfnll99yyy3ike5FHM1mM77pn8iyrEhVdKfTMQxDVVXKr/lx8bS0jxOfdsmgxaeKotARsSeanmqaRgE6PZYk6Yc//OGrr76a9l0AAAAAlhcCaABYYqjgAAAAePts28YOHUoNmpcogI676y62bh174om36PKn47rrrosUcdRqNZYeClNCnXa1MAxbrZZ4pFAouK7LYhPNnU4nCIJI6bMoXtAhXkE8nrYJIWXN/FUqANF1nc3vSajr+kMPPXTy5Mm0rzM9PT09PZ32KgAAAMBbSuryZ38AgFNVqVS2b9++Y8eO5V4IAADA+WRiIqGe+fHHl6QpI33zPMYYu+OOs2ga+oUXXojMQefz+UKhkFa1kc/nc7kcz3njMplMLpejDQBt246f1ul0qJfDNE3xeDxKjofOfDJa7N+I739IrdNhGPq+z4/QPx3HcV2XHgRB0NPT89WvfjX+LX7yk59861vfKpfLl1xyia7rk5OTL7744qpVq7Zs2fIbv/EbfX19id8dAAAAYKkggAaAJbZ9+/bbbrttdHR0uRcCAABwPpmYYE88wb79bTYxwW6+mW3b9jakz2RkhD3++Fs3bH1qHnjggW9+85v8qaIopVLJMAxxfJi/KstyqVTSdT1xJJkxpqrq6tWrXde1LEtV1bQAmjFmGEb8IuKHijUa4tvjR+IZNGMsCALP88TzgyBwXde2beoSCYIgDMMrrrjic5/7HGNscnKSgmbG2EsvvdTpdFqtFkXtVH5Nqy0UCiMjI3/wB3+Q+PUBAAAAlgQCaABYYgigAQAAzg2LSZ/JyAi7+eazYhR6cnLy7rvv3r17Nz+iKMrg4CCvsIjPJg8MDMT3GyQrV640TXNmZkaSJDHF5vgEtCzL1IkRkdjjHLlC5EhaOTUlzjQKHQQB9Yd05rH5mWjbthljpmkahqFpmqZp9Gqr1crlcpFR606nY5rmhg0bkEEDAADAWwcd0ACwxEZHR3ft2rXcqwAAAIAzdccdiz2TdiZcty7aAvL2Gx4evv3228UjQRA0Go20sRu+IWH8JQpnq9Vqq9UKw9B13S6d0WmTyxRPs6RuDRIPtdMqQeg4XVBRFFVV6Qg/33EcmvgeGhrq7e3NZrO6rvMEnMpGaPdCTdNyuVypVOrv7/d9/9ChQzQrDQAAAPBWQAANAEtsbGxsfHx8uVcBAAAAZ+rOO7ttcBhHTdTLPgc9PDx86623ikcsy6Ku5MTzbdumqWGR53kDAwOu67bbbTY/lez7Pi9i5ijhpRKM+MV5v3OX//A0LYOO6HQ6mqYZhmGaJpVTFwqFYrFYKBTy+bxpmn19fcViMZvNxjctVBQlDEMa087lcrlcjneGFAoF27YfffTRycnJtBUCAAAAnAkE0ACwxMrlcqVSWe5VAAAAwBKgfudTHYWOb4j4Nrv22mu3bt3KnwZBUKvVeFVFRBiG9XpdjI8pbs5msydPnhQnl9MyaP6uyBEeAYtFGYnEvDjyXn4FNh8li2XTfItCHjrHL6Wqai6Xy+fzPT09mUwmUgYiy7Jpms1m88EHH0xbHgAAAMCZQAc0ACy9TZs27du3b7lXAQAAAEuGppsXHysveyv05OTk9ddfLx7JZDK9vb1p+w2aptnb20vRbb1eX7duXRAEc3NzdIT6lPnJqqpSbXTkX6Y0TePxLk+BwzCkymZN03hdhjieLEbG4gXFRDsyXk2hM5VBRz6On8NjGQAAIABJREFUCcXTtNmgaZqSJNm2bZomP0fMxIMgaDabnudddtll27dvT7w/AAAAAKdNuXPZ/xs5ADjnjI+Pr169ulwuL/dCAAAAYGmUSuz661mpxHbuXNT5tdr/z96dB8lVnmfDv8/S5/Q2+0iiaQEjEDYY2zjDRw/gTdJb8RIpVYS4vL12kGIpKTuh4rgqMXESIYi/731V5eS1DWUXRWIJ4/Jb5VRY4iXGwUgiNvYM2CAHzCasAWk82qdnejv7+f64NQ+Pzunu6Vm7BdevXNTp0+ecfnrkP6RLt67n7JUbNiznshrr6uoyDOOJJ54QZ7jCQtf1ug3LPNdsmmatVuvq6kqn08VikWbDXK5OFhfziHR8X8EwDFVVdV3Xdd1arWbbdqVS8TyPrxdl0EwML4t3dV3nQWZ+mqjviMxWi/0DuQla13XebNAwDO7oSKVS6VkcOodhWC6X5QCaU29OqDlMt2371VdfVRRl/fr1C/+5AwAAAMSgggMAll4+n8c+hAAAAK8zQ0O0axft2TOPVmjemXD//uVbVDNbtmyJF3E02gyQiKrVquM4tVqtt7d3ampKRMZUr17D933btvmYR4mr1er09PT09HSlUqnVajybbJomZ8oc9UZqnQ3D4DbnVCplGAZfIGJlvotmx6JFZi1SYw6dTdPkYuhkMsmPMk2TtygUq1VV1TTNyFfg53OnB893J5NJ/BYOAAAAlhwCaABYeph9BgAAeL3aunXerdDt2plwYGBg586d8pnmGXQQBNPT09lstlKpRK6p21vIo822bddqtVOnTlmWxVmzpmmGYRiGIddxiI5mfiubzWYyGfkarulwHMdxHNu2HcfhCFuE16ZpctwszzvzGT7mio9IzC0WIPJoDp152lpcLBLqycnJp59+esE/cwAAAIA4VHAAwNJTFOWBBx646aab2r0QAAAAWHq9vWeLNVqs4+Ar7733bInHSooXcXieZxhG3SIOPtPf3x8vVhYzwuI811a4rlsul3kqmVNmTdNE6TMTVcuqqnJxM2fWtVqtUqmUy2U+tiyLuzuCIBChMEkBtNiBUMTH/FKEyI1+CBymW5aVzWYjubNoi/Y8T9d17olOp9NvectbluCnDwAAAEBEmIAGgOWQz+cnJibavQoAAABYRrt20eHD86h4btco9JYtW6677jr5TLFYrDvRrCjK4OBg3YfI16uqGoahbdvT09OlUikMQ94M0PO8arVaLpdFlMw1zaL62XEcz/M8z+MQWfQ1iw4NwzDS6bRcoCEaOXjGWZvFqXTz3FmmaVo2m01IjFn80fxwHoL+xS9+0fJPFwAAAGBuSt3fewEALNKmTZvuu+8+dHEAAAC8vo2P0969dPvt87hlaIj27ZtHkfTiTU5OfvjDH3YcR5xJpVL9/f1yeqsoSjqd7u/vl8s3xAW8gWEQBLVajQNosTkh1zHzTHQikRDRML8bqcKIENPNoh+Dr+QnyCXO4q0WE2eBx7ENwygWiwMDA3UXQESu61qWZVnW1NSUbdt/+qd/euWVV87rgwAAAAAaQQUHALTkyJEjTzzxhOu6jSaDiOjMmTM/+9nPTpw4sXbt2kceeeTKK69EAA0AAPD6xnUcW7fSQw9RsdjSLcXi2Ytbn55epK6urrVr1+7bt0+c8TyPm5rFGVVVV69eLRozbNs+fvw4FzS7ruv7Pv+XU2aeU85ms11dXbzvXyqV4jniRCIh92PUTZ85ceYr+Zgv5kroSLGGPOw83/SZiMIw5OcriiK3iNBsPs7HIvi2bZvHrq+66qr5fhYAAABAXQigAWBu3/3udz/72c86jnPPPfcUi8XIv2NlBw4c+NSnPmVZ1n/8x3/8+7//e6FQmJiYGBkZWfnVAgAAwArr7T3b79xiK3SxSAcO0IEDtGHDCrVC9/b2Hjly5JVXXhFnXNdNJpNiD8BUKqXrehAEXOI8NTWlquqFF16YTCY5X+7q6urr6+vu7s5kMnyS8+JIWNxoAaJMg3NnDqn5pXhI/JaFhc4y/kaKovi+LwJonteOPN/3fY6/q9WqZVnvete7FvO5AAAAAAIqOABgDr7vX3vttd/5znfWr19/5syZTZs2Pfjgg0Pn/rtZ3/ff/e53f/nLXy4UCkS0ZcuWD3zgA6Ojo/fdd197Fg0AAADtwEXP4+OtXj80RDffvELF0JEiDtM0u7q6BgcHOQ5OJpOiDYMzWdu2Xde95JJLiCgMQ94bcL4fyvPLcsRcN2uO3LKQr9cA91ATkW3bqVSKzh18ltm2HQRBGIZHjx71PO/Tn/70ZZddtoQrAQAAgDcsbEIIAHN47LHHent7169fT0T9/f3vec97fvKTn0SuOXDgQD6f5/SZiL73ve/9wR/8AfYhBAAAeKPhfufbbmv1+vHx+fVHL0Yul9u+fbthGOvXr7/22mvf/va3X3rppb29vT09PdlsVvRmiHA2mUz29va6ritKMFqc3eFh50QiwYPSYoNBTrobpc9LMu8cl0wmiahWq6VSKTH4XPdKno92XZdz6n/7t39b2pUAAADAG5be7gUAQKcrFotXXHGFeJnNZl988cXINVNTUxdddNHOnTsfeughTdP+7M/+7AMf+MDKLhMAAAA6wtAQ7dpFQ0O0bVtL16/AP8icnJz81re+9fjjjw8MDLz97W8XTc0i8OXIWC5EFtXMiURCVVXXdVVV9TyPGk8oi5KNyL6CzS154iwey+sfHBwslUpnzpzp6elpZSWO43BQXqlUlmNhAAAA8AaEABoA5uD7vvwnKFVV5d3h2aFDhx5++OGdO3fecccdL7zwwic+8Yk3v/nN+Xx+bGxMjEUDAADAG8fWrbRhA+3dO8eA83Knz7/61a92797tum4ul7v00ku5jIKzZhE9c1BLRJwd6/prf0QSA8u6rnueFw+LFxA6i8/ll4tsRJS3KOQDkZvz7HNvb29vb++JEyc4gPZ9n3s2iMjzPP5Nne/74lEcsmcymZMnTx48ePDqq69ezPIAAAAACAE0ANT1xS9+8f777yeiTCbz13/91/zHEhYEgbxlPLv44osvueSSj3zkI0T05je/+Xd/93d/8IMfEBFaOAAAAN6weBSaqGEGvazp8/333/+jH/3IsqwLL7xQpL1yxTOHtoZh8DaAkds5WRaBshiI9n0/DENVVblSI35jI5HcOXK+ldvjQbN8L38XIkomk5FQ2zCMyy67jJNlrhkhojAMxZ6ERCQarsMw5Idns9mXX34ZATQAAAAsHgJoAKjj4x//+KZNm4hI1/UwDJ955hnx1tTU1O/93u9Frh8YGJBf8p/WCoXC0aNHl3+xAAAA0Ll27aKtW2nbNtq/f4U+8aGHHvrXf/1Xbl7u7u6WJ505tOUQln+7Yppm/AmKosjhLJ/RdV38lXw6nW4xem6UOze5Xt6ukFfb5Pq6UbhcV81NI/IwgbwwvkxRFNM0E4mEoijHjx/ni1Op1Msvv9zisgEAAACawCaEAFDHpZdeesMNN9xwww2FQuHaa68logMHDhDRSy+99Pjjj19//fV82cGDBycnJ4lo48aNZ86c2bdvHxGdOXPmv/7rv37/939/ZGRkbGysfV8CAAAAOsLQEO3ZE92ZcDnGn0+dOrV79+6HHnoonU5nMhkx6quqaiKRMAwjmUwmk0mudVYk8kP44vjDOZXmi+es2pBHletOPYuNChOJBGflmUwmk8mk02nesbD5hLWqqslkMpvNdnd3J5PJ+NaCkc+NB9Dyl0qlUvyVFUVJp9NhGPIc9OrVq5t/TQAAAIBWYAIaAOagquqXvvSlz33uc+vXr3/22Wd37949ODjIb335y1/evHnzhz70oUQicdddd/3VX/3V3XfffejQoT/+4z8eGRmZmJhABQcAAADQbB3H1q20cSONjy9L+vyTn/zkX/7lX1RVTaVSIrfVdT2VSnEbcpxpmqqq8hQwtyHLtRtxnE3z9RzRRi6IxL4ireb1yH3TbL4F0DzvzMuOP0EeahZnuNLa930Rx8tPM01Tvouj+WQyaVlWGIanT5+e1/IAAAAA6lIWuesFAEAjExMTmzZtevTRR/P5fLvXAgAAAB1hfJz27j3bDb1UTp48+Y1vfOP555/nuJmkfmeu4Kg7hixyavGWpmk8/EuzgWw4S9wVhmGpVOrr6yMpbhaNGWKTQ/Hf+Yr/6YwfK75a3WsiZ+SXF1xwgeu6R48ejezhYZomf1/5Ls/zXnnllSAIyuVyEARnzpzZunUraqABAABgkTABDQDLa2JiAgE0AAAAMLEz4VI5efLkn//5n2ez2XQ6zU0UHAqnUql0Oh1pOuZbFEVJpVJyz7KcI9cd0JGnnj3Py2az4uXCguZG5P0SeYNELseYc9K57ktN0xRFCYJAvMu5PG/yEblRjEurqppOp8vlcmSjQgAAAICFQQc0ACyXfD6fz+dHR0fbvRAAAAB4ffrVr371J3/yJ6ZpdnV1GYbBabKqqt3d3el0WlwWaZnIZrParLrD0fKNos1Z0zTDMFKp1Jo1a/r7+/nMnGXQ88UVIt3d3X19fel0WuS/8XW2+JJ3IOSs3DAMjukjF8h38Zy12HHxueeeW9ovCAAAAG9AmIAGgGWUz+exDyEAAAAsh29+85vf+973stlsNpsNgoAnkU3T5PFkmo1W5YCVE2TxMt7XTLEkl2ZLMETWzH3KXV1dpVKJYtPHC8PNy5FajNYnnRu9FL3P3d3dg4ODrusSkeM4ROR5XqMbwzAMgoBz6kOHDi3yqwEAAAAggAaAZVQoFBBAAwAAwJL7y7/8y+PHj/NILxEFQcCjzZHKCDlWFhdTgy0E48SUdOT8zMzMwMCA4zi2bdd9VIuRNDdsZDKZxaTMTdo5EokEh86rV69etWoVzbZai2tc15UPHMc5ffr09PQ036vr+rFjx1r5IgAAAABNoIIDAJbRyMjIxMREu1cBAAAAryuf+9znTpw4oWlaJpMRAbFcWMFELqzrOs8Xx9+qe4bT6lQqxaXS8QXYtu15Xl9fX2QfP/kJMvktXnZXV9eqVat6e3szmUx8PfN92eQCbtIIgqDuiLeu6xw0J5PJeJ2Ipmnlcjn+7QAAAADmBQE0ACyjfD4/MTGBIWgAAABYKrt37z5x4gR3VnD6LFJUOQvmOFVRFNM0E4kE12jM+XCOnjOZjGEYmqbput6o6Hl6elrXdTFWPOdjdV3PZrN9fX0DAwOZTCaVSi1f6Cy/DIKAiAzDiJyXrw+CoFqt2rZNRCKmF7sgHjx4sPm3AwAAAGgOATQAAAAAAJwfDh48+MQTT3BMnEgkOCNWVZXniDlspdl0lUNqjo+50bgRznNN0+ToWT7PyXU8ifZ937IsXdf7+/ubBNA87zwwMMC5s/xwWrbQWbzUdZ1nnxutUFEUy7LK5XKkEpoPOIN++umnG307AAAAgFYggAaAZZTP5wuFwujoaLsXAgAAAOe9p5566u///u+5lzmZTHL0zMR0s8igdV0Xw7yNpphpNtXt7+/v7++PNHhELosk0Z7nVSoVRVEymUxPT0/kes6d16xZMzg4mM1m5eHr5Q6d5Zfc7Oy67uDgIMXGn4MgqFQqPPgsJJNJPuCfmGmaxWKxzk8EAAAAoGXYhBAAlh0qOAAAAGCRJicn/+Zv/oa3Gezu7hYzzqqqcsMGX8ZbAkYajSPjz3I1Mw8+Z7NZ3/cTiYTv+67rcm9yXfxYzqBFVpvJZBzH8TyPizuy2Syd28vBnyI/R7zky+R3wzCMvMsXxI/5vzxVLc7wvYcPH7Ysy7btWq02MzMT/yKWZVmWFT/Pt/PQNP9sT5061einAQAAANAKBNAAsLwKhcIDDzzQ7lUAAADA+e3OO+9Mp9OKonR1dYnsmA/E5DKfMQwjkj6LPuj4vDDXbvAxz1YbhhEEgeu6PPVMRDz7LM9Zq6qaTqe7u7uLxaLnebqud3V1vfe97+V35UxZTorl/zZ5q/X/xk9alnX48OHx8XF+uX79+uPHj5dKJZrNlPl8tVrlL9i8vZp/Anw7AAAAwIIhgAaA5TUyMnLXXXe1exUAAABwHrv11lufe+45wzBM0xTjzGKQWZ6A5ooMkuomIqPHgqIovBNgJpMRxR1MVdWLL754zZo1L7zwAp+Rg9p0Ot3X18dnkslkuVzm88Vi8YILLqBYRkyz4a/83wX/KOo+xLKsycnJw4cPR4LpwcHB48ePDwwMyFfWHXwWxFi3UCwWDx48ePXVVy94zQAAAPAGhwAaAJZXPp8norGxsUKh0O61AAAAwPnnRz/60a9//etEImGapmhzFu3PctuGqqqRto1Gew8qipJOp4komUxqmiZ3bnCifcEFFxiGccUVVzz//PM0G2drmtbX18cNGBwB8/A1vzs5OckB9DLFzfFHWZY1MTExOTnJmXKjDzIMQ1EU3/dLpVIkaueS6Eql4jgOEXElNH8Wjz/bth0ZGwcAAACYLwTQALC8OICemJho90IAAADgvPTjH/9Y07RUKsX9GESkqqqiKNytIcej8nA0H4iAWA5neQ9DvoaHoOnc7fvy+bymaVzQceWVVz733HNE1N3d3d3dTbM10/xfTdMSiYTneUQ0OTk5PDy8sLg5HjQ3Sa5rtdrk5OTU1NTU1FRk5DlyPDg42N/ff+rUqZmZmenpacdxOGgul8uO47iuG7+Xf4xc0BEEgW3bqqo+++yzmIAGAACABUMADQDLrlAoHD16tN2rAAAAgPPPww8//Mwzz/T29or+ZZ7MTSQSYh9CPi93PYsz8d5nzrL5OJFIcKIt6+3tzWQyHEATkWEYV111ValUEsUakZhYBNCtdyUveES6Vqv99re//c1vfsMvW7zRdd2nnnpKvIzc1eghYRjats3Hzz77bIsrBAAAAIhDAA0Ay65QKIyNjbV7FQAAAHD++eY3v9nd3S1Gm3VdTyQScrGGaHyOjz+LEFm+WKTPRCQfC2vXruVyD/G0/v7+VatWTU9Pnzp1SpwU2XEymazVakRULpdFC4ds8Y0ctVptYmKCc+e6t9cdfyaidDrd39//4osvyrsyNse9ImI4ms80ajIBAAAAaAV+JwEAKwEVHAAAADBfDz/88NTU1MDAADcX84aBkTCUI2au2pBpmiZfyXPTkcSZX3IuzGfWrVvHV4oz6XQ6kUhomjY4ONjT0zM5OVmpVOTHcjEIZ9CTk5O5XG7xBdB8I1c8//a3v61Wq3y+UdBc9yQf9/f3p9NpsfFg8/Fnfsk/TDH+rKqqSN4BAAAAFqDVvwkHAFiwkZGRiYkJZNAAAAAwL/fddx9vFcg4U5YzU46JRfmGLJJTB0EQadsQYbR4YCaTyWazJHV3JJNJXddF+0cikbj44osvvPBCUQBC5w5fv/jiiwv4mnIJtaIotVrt0KFDTzzxxGOPPfbyyy+L9Fk2ZxItf82ZmZlWrhT4h+l5Hh8EQdD6ADUAAABAHCagAWDZiX0I+QAAAABgTjz+3Nvbyy+59zlyDSfFkUln8ZY4GQSBpmlhGMpZajabjWw/eNFFF/FL/iBVVU3TjJR4EFFPT086nS4Wi6dOnRIjw3xZoxYOsbbmOw2eOXOG/86++daCjUQuzmQyYRimUinuD2l+vfxS0zTXdZE7AwAAwFJBAA0Ayy6fz+fz+dHR0UKh0O61AAAAwPnh/37/PzVNE/sKJhIJzoUjiXA8lY6c5B0Ck8kkEXGVB3dxiLlmDl4vuugiHpHm86qqZrPZMAzrhrCJRGLVqlW9vb2vvPKK4ziGYYgp41KpxAF069XPtVrtyJEjhw4dktcT0SiJbnJxJpPhl6dPn45Mjje6URDfmg/QAQ0AAACLgd9JAMBKyOfz2IcQAAAAWrTvF/995to/NH77j/xShMURhmFEAuJIJbTv+zQ7KM1ngiBQFCVSBt3V1dXf30+zfdDiAj5utMhEInHJJZcUi8WTJ0+KT3zppZfe9KY3tVJ2UavVjh49evTo0VqttiQjz3Xfffzxx2dmZvr6+hrdKJ/xfd+27Wq1Kgqg+fyJEyfm/DoAAAAAjSCABoCVUCgUHnjggXavAgAAAM4DJ6zg/8yspZ/9L051NU3jANowDDkO5g0A5aYIzos5bubCDc5PI+3PnufVajW502PNmjViVDmRSGQyGf5EeX/CusQotGma+/btI6JSqdT82/G885EjR3jfQlp00Nzo4kwmc+TIkZ/97GeRtD3+BM/zOHcWZ3zf56SeXzb6CwAAAACAViCABoCVMDIyggAaAAAA5nTCCrb/bPqt3/7fzxx/Xu/p4ZQ5fpmqqlzrrGma7/uqqoq01DCMMAx59pli48/cwlEsFl3X1TQtkUh0dXWJco8wDNPpNDdOzJk+Cy+99NLzzz/PtzeqgVYU5YUXXqhWq0ePHiUpBV5At0aLFxPRD3/4QyLinRXjV/q+b1mWZVn8M5HxmdZ/AgAAAABNIIAGgJWQz+cnJibGxsZQAw0AAABNfPm5ysfu3U0/e/DFt72Nzm0fFjExjzyrqspTurquc5osNiQU6bN4gjwQzS+5u9n3/UqlMjExkUwmk8nkqlWrLrzwQr6meXEzO3ny5C9+8Yvp6elKpSIunpyczOVyovqZR55feOEFcdcyjTxHjsfHx7mZ2rIs0QdNs7mzbdvyT6nRkx3HaVSEDQAAANAiBNAAsBLy+Xy7lwAAAACd7sfHHNq//2P37v4/b3+7pmk8vCwXQYj0mQ84VtZ1XVVVnoPmgWjxQN7GUAw+M86FObPmZxIRzwKfOnXqyJEj73//+3kHwiZLrVarTz755KlTp8IwrFQq8lsvvvji8PBwtVoVuXMrk8tLnkpz+hyGIafPvu/XarVWcmfxs/I8LwxDDqBPnDixevXq5jcCAAAA1IUAGgBWSKFQGB0dxQQ0AAAANPKV5yr/7zd3E9EPL7hgjWlGBm/lng3R0cwZtGmaXCXhui6PPHNyzcE03xJpkwjD0LbtTCYjPoVz6lKp9PDDD1922WVXX3011auhqFarr7zyynPPPcfvcvosJ8Llcvnb3/52tVrllYghbtElEj+zHEUcHB9bllUqlTzPc103/qi6OIB2XVcE9xiCBgAAgMVAAA0AK+SWW2658847270KAAAA6FBfeKr0sXt3v+3pn/7wggsMwxA7BIqNBOUgWE6NeaI5mUzWajXHcUS8K+JpObmWBUFgWVYymeRhao6qucf54MGDRHT11VfLAbQcPdNsQwXnvJEnHzt2TP7E5gPLcs2IruthGEYSaj5JUp2ISK7njLCJaGpqimbzdzFRLg+Sx38snufJM+Pzyq8BAAAAIhBAA8AK4Rrodq8CAAAAOtQzRe//u3c3ET3V0xNJRSPxsfxuEARcu5FIJEzT5ERYhNfiGjp3gFpwXZcvlhui2cGDB19++eX3ve99XV1diqI899xzInqm2VLpWq0WT37l6HbOrgwi8jwvcmzbduSa5s+J59GKoliWJd/IB+KlXMQRyabjNR2u6+ZyuTm/CAAAAEBdCKABYIVwAD0xMYE+aAAAAIj48THnfzz8f/n4h2vW9J77LueqPMtMUsxKUubLSbSu647jiABaTpzlGFqc55IK3o1QfiZfUC6Xf/SjH+VyuRMnTsSD5kj6HNm0sJXoeU4tPkQs3nVdx3EcxwmCIJVKaZqWTCblgLvJp3Anied5PNPNP2rf9z3Pq9Vqi/seAAAA8IaGABoAVk6hUEAADQAAAHE/nrQ/9vC3ieiHa9bIlRQk1UTwNoORQWYxbszv6rrOTdCJRKJR7QadG0x7nscBrpxKi+OZmZnjx4/39/ebpineJSLLshq1UvAwdd1Pb9188+sgCBzH4alnlkwmXdet1WqRefC693JyLZ+h2Ulzx3FWrVo1r8UAAAAAyBBAA8DKwT6EAAAAUNczRe9tT/+UiJ7q7eVKDfGWPO9M5/Zv0GxQy9PHPCJtGIYo1ojga0TcLJ7MA9SqqmqaJn+c7/s8WM2dGKZp8sd5nidHvUtrvtGz53k89Rw5b9u2qqrJZDLSpyGLR8/yWzRbBoL+DQAAAFgMBNAAsHLWrl17//33t3sVAAAA0Fki/RtpKQKWd8nj/QbjAbQYNxYj0pxBi5llOjd6Fk+jc9NtrpvQdV3TNEVROJUmKW4Ow5CfWa1W499CBMcLm4Be2Mgzt200uaxSqSSTybq3N4qeIx9B5xZGAwAAAMwXAmgAWDko3wAAAIC4EzV/9bFXSerfEIlnJCCOTEMzeZ89Tn7llmfOnevGu3IGLa7nEmTbtkV+rWlarVZLJpOO44Rh6HlePPON7PU3L4tv26hLFGhEAmi+vVF/iEyUXK9evXpeKwQAAACQIYAGgJXD+xC2exUAAADQWU5YwVuPvUpEk8mkXJ3B48zylZGXTA6mPc8zDIOvDMPQdd3m8S5PK9NsAC02EnRd1/O8TCbDl3HaGwTBmTNnwjA0DENe58L2G1zAXZw7Nx95lh/rOI78EwuCwLKsOceZ+UfBI9J8Zs5tDAEAAACaqPMbOACAZZLP5/P5/NjYWLsXAgAAAJ3oZDotJpHj887Ng1fGVRutXC9vORgEQbVa5ZhVJLbVapUTWF3XeSx6enqaD3hzP0635cBXRLdzLnJe6TMHx8VisVqtNnp4OItf8rcQ+bvv+5VKpVKptF6mYdu2KBLBBDQAAAAsBgJoAAAAAABop+NWsPr4q0Sk6a/9A01OP0MJNSgjjmSykXFduYtZkUSuMU3T87xqtWpZVhiGHOCWSiX+xDAMz5w5wxeLM67rWpbVqIW5bsS8sOh5ZmamSeFG3WfySdd1FUUplUqVSqWV+F7+XLmjY173AgAAAESgggMAVlShUBgdHS0UCu1eCAAAAHScJ9JpkXVyh4Z4i19alpVKpeL7EEZeBkEg3153P0DRtiFe8taFXL4RhiEHzdPT0/39/YlEwrIsrt2Q7+LLPM/j23lku0lDdOuaRNutPFNVVb69UqmIQXI5eRfN15E4npPrWq0mvohh96XKAAAgAElEQVSiKLlcbr7rBwAAABAQQAPAihoZGbnzzjvbvQoAAADoIGuS6ok1FxP9dNI0xX55lUpFbANIswE0h8KcL/N5MSUtp6iiCToiHjrHM2gi4sHhIAg8z9M0rVQq8ZWWZSWTSd7VkANcee9B7qzQNE1ez5JvMNj6A3mEOZFIcI4cGZSOzJLLSbTruo7j0GyUXy6X5/UVAAAAACIQQAPAisI+hAAAABCxOqmeuODi7w8OivYMTdPkhFRVVVGvXKvVUqlUEATy6G4QBHJhNEfVnAWL3QX5rXjoLG7hA5FBG4ZRq9W4+lnXdU3TqtUqZ+K+74sEnCNjnoN2Xbe3tzfywBZx2wYnv3HzfZqiKPzDtG1b1+f+Qx/3dXCpCCfsRFStVh3HcV336quvntenAwAAAMgQQAPAikIADQAAABGrU9ozF1zcLZVX6Lru+77jOBwHy50bIpjmTFYE05EdC8WQcrx/o+5ssnzSMAxVVS3L4u0Hfd93XVfXdR6CVlWVT3LoLJ7AE9ORWexWNG/bWEB9h3im67qRH0tcEAS2bcdnrjlYJ6JNmzZdcMEFC1gDAAAAAMMmhACw0gqFwtjYWLtXAQAAAJ3ibb36f1/9zl90dwdBwDksJ84cgIrxZ5othRD74/HLRo9tvnUezwhXq9VqtSoeKKaqdV3PZDJc+hwEQRiGjuNomlapVGzb5v9G0mfbtvlGjoznDI555LlYLPLQceRdeevFBXAcZ2Zmhie4G316rVabmpqanp6OpM/8ofx1bNseHh5e2BoAAAAAGCagAWClYQgaAAAAZKuT6uorLj19xf9Dp8aDIODYl6QAOnK9bdviGk5pfd8XZ2h2nFkMQct4LrhSqZw8eZKIdF3v7u6emZnh3md+iPiv7/thGPICFEUplUqGYUTak2m2AJqPeW66+fdt0rYxr8SZV8Lj2Bw0O44ThmG1Wg3DMJlMxh/YaN45vkJenud5v/M7v9P6kgAAAADiEEADwErL5/NHjx5t9yoAAACgg7ytV/+PG7bQv9/leV46neaTXLUcKXEmIh6C5piYO53rDjvzec6gHccpFouVSqVSqRBRIpHo7+/v6enhh/T391erVY5lebRZRLSqqpqmmUgkwjA0DIO3JZRTcpoNylmlUunq6qr7HTnVrdu20Sh3jkfMovojkoPzlxUj5LyJoqqq3GHSYu4s8IaKjuMoioL+DQAAAFgkBNAAsNJGRkbuvPPOdq8CAAAAOsj/yJnfuvJa+nfyPE+MPPO2fpHdBTmJloeg40Q9tGVZU1NTU1NTXLKRSCQGBgZE7iyoqppMJnlyOZvN8kcz27Y5MubtB1VV5UYOMV5t27YcKJfL5XgAzdFzPP/ldYpAuXnE3OhrcvQcv5jD6Gq1ymly683UHD3zD+GDH/xgi3cBAAAANIIAGgBWGio4AAAAIGJ1Ur16Xf7HsxPNov64VqvxloCR63kI2jCMJrlqqVTing3OnQcHB5ssgOea5V0QRR7ted6pU6ds2zYMgy8TaW98nJknrBl/C8uyqtUqnRs08xNEcUfr5FnpRtEzC4JA1/WZmRn5pBgnFz83ecCcz/NqeUNF9G8AAADA4iGABoCVls/niWhiYoIPAAAAAIjofw5W/+vStwev/lrOWG3brtVqqVSKx43lt7gNQ9f1eAbted7p06eJaM7cWVAUxTCMuiUVuq739/cfO3YsCIJkMqmqKifIdcNfRVFefPFFucZ6zkHmVkQ6OvjTmxdGh2EY34FQDE3H7/V9nzctVFVVVVUegn7HO96x+MUDAADAGxwCaABoAx6CRgANAAAAQr8eOL/5laqqcr8zx6y1Wi2dTstz0HyBXI4hWJZ1/Pjx3t7ebDabSqVaXwBvQsiTv5G3DMPo6ekpFotcUc0ZdN3ha9660HVdrulo/dPj4stoPvIcvzi+wniQXavVuJmac2ci0nWdd1/8wAc+gAJoAAAAWLzov2UDAFgBhUJhdHS03asAAACADsKVF4qiiLldDqBFBi3KLjRNU1WVx3g9z+NZXY5Wi8XiyZMne3p6iKhWq7UeAXNWq+s6b3sYj26z2Ww6neaGCkVROLSNP0fMPtfdF3FOoSRynhuxW/xGvH6xQvmZvu+Xy+VyuXzs2LGTJ0+Wy2XP8/iL88W+7zuOMzg4+Ld/+7cL+AoAAAAAEQigAaANRkZGxsbG2r0KAAAA6CCrVq3K5XKKovCGgQInuUEQcAatqipH1Yx3zHMcx/O8I0eO8B6AHL/6vi83MjcSiZsNw6h7XtM03r1QURReieu61Wo1kgiLLROb92NE1A2d+TzPU7uuu4BE27IsfixnyuVy+eTJkxw6l8tlIuIfpoiewzDkL9Xf3/+1r31tvh8HAAAAUBcqOACgDbAPIQAAAMRdeOGFJ06cEEkr5788n0tEQRBUq9VsNhu/sVarTU1NGYaRyWTk85xNi0w5om6HBpdBi9lhvoaj4UQikclkKpUKp8+KoqiqalmWruuR7RB5arvJBok0V0I9r7aNukqlUq1W0zSt7rC2KNyg2fFq7pXmMzt37szlcgv+aAAAAAAZAmgAAAAAAOgIPKvLQ9Ciy0LeSY/nnQ3DkNPbMAwty4qnz/xWtVrVNE0MJrMm0XAYhlzxIU8cK4rCgXImk7Ft2/M8bosWK/R9X1VVkXQ3mlZuZSy6lQ0G52TbdqlUarRNotjRMZI7E1EikfjqV786PDy8mE8HAAAAkKGCAwDaIJ/P5/N5tHAAAACAjHPPIAjkLf4iYW58mNe27UwmE0+fmed5tVpNvKzb7xwXmWgWN6qq2tXVRUSqqmqaJqozgiBwHKdarZZKpfiaGzVsRK7hogzeAHDOFdbleZ7neWfOnCkWi1Qv7+bCDdd1Hcep1WqRZg/DMD796U8jfQYAAIClhQloAAAAAADoCNdcc80///M/c8GFOMl5tK7rnAjzWyJatSwrnU7LrdARPDRtWVYymWwleuZbuIjDtu3IW4qimKbJRRzcbsFTxjxobFkWEaVSKZpPBzRHzwvbtJDjddd1LcuSc3Zd103TTKVSogVb0zT+wUYqtoWrrrpq+/btN9xwwwKWAQAAANAEAmgAaI9CoTA6OlooFNq9EAAAAOgUF110USqV4kRVDou58oKP5U4Jx3FSqVQkfY6nzDyebBhGpIijiTAMeYM+uQBEPD+TyXieZ9u2YRgzMzP8EeVyOQiCbDbLUfKcYTfPTc+rbcPzPNd1a7UaTzrLiXMEZ+J8gaIovIVj3Stzudzw8PDll1/+sY99rMVlAAAAAMwLAmgAaI+RkZE777yz3asAAACADrJq1ap3vvOdjzzyiO/71WqVK5U5qNU0jV9yT4Wmab7ve55Xd0/CiDAMeUY4lUqJnfdaoet63UIMVVXT6TSPEmcymdOnT/PsMxHJ3dBN1tPKBoMibiaiyIDznPgrZzIZzsdluVxu8+bNRHTNNdegbQMAAABWAAJoAGiPfD4/MTHR7lUAAABAZ3n/+9//yCOPEBF3XHBe7Pu+67pcxGEYBie/lmVVKhVVVbu7u+d8LPd4cF9H64tRVTWZTMaTXy7oyGQypVJJbDzIIrPb8WWwuu826tNYGE7qc7kcESFxBgAAgDZCAA0A7YEAGgAAAOKuuuqqbDbLdRbVapUHnHleWNM0jqGJiAudHceZmppKpVKioKMJx3FUVbVt2zTNVlbCTdCKoiQSiXhvMmfTjuPYtr1q1aojR46I8/GJ6bojz3LcLL7XksjlcpOTk0S0Y8eOT3ziE0v1WAAAAICFQQANAG1TKBTGxsZQAw0AAADCwMDAe97znh/84AdE5HkedzfLF3AuTES8vZ7neadOneI53+Z4rz+uk56ziIM/gj9L1/W6Zc2apqVSKdd1dV1ftWrVyZMnuXY5mUzKH8rR82L6NOYUadX45S9/eccdd2zevBnpMwAAAHQCpfUtLwAAlhZ3QN9yyy3tXggAAAB0kGeeeeZTn/oUEXEFRzabVVXVNE2RRPf19WmaNjU1xS9VVR0YGBBFHE0aMBRFSSaTqqpmMpkm18RfhmEoWp7lP0D5vm9Z1szMjGVZp06dmp6ertVquq4PDg6qqlosFvnGpY2baXbnwFwuh1YNAAAA6HyYgAaAdkILBwAAAETkcrnrrrvu5z//OREFQcDFza7rcgBtmqaqqo7jiOuDICiVSlzE0SR9ptmt+QzDiA9WU4PkWhRx8F0kRdJExFsjplIpIrrgggtOnTpFRJ7nvfrqq42KnhcGiTMAAACcvxBAA0DbjIyM8BA0AAAAgDAwMMABNIe/juPoui56LThljswUW5Y1PT09ODg458O5ScN1XU3TNE3jk81ja8bj2CJWFjG0ruumaXJJ9Nq1a8fHxx3HWXz6bNu5UmnYtnMzM9cMDAx/8IO0c+ciHwkAAADQHqjgAIC2mZiY+OQnP/noo4+2eyEAAADQWSYnJ2+88UZVVTnn5SKObDaradrAwIDrulwALVNVdfXq1bxpYROKovDYsqIomUymleiZpLjZtu34H6Bc13Vdt1gsWpb18ssvi26QeZET51Kpzozz0BDt20dDQwt4NgAAAEA7YQIaANomn88TEfYhBAAAgIhcLnf99df//Oc/5+SXizhSqVQ6nY6PPzMu4jBNM5FINHosP833/SAIVFW1bVveMHBOiqIkEgm5/YPxLoVcxHHZZZc9+eSTLX7HXC733/89/Ktf1U+cI8bHaeNGuvlm2rWr9SUDAAAAtB8CaABoJ86gAQAAACJuuummp556iqstiMhxnGq1umbNmiYFF7VabWZmpq+vT1XV5g93XZd7MxKJhCjiaILLQIiIizt835ffVRSFizg8zyOiyy+//KWXXoo/hBPn4eFhucd5fJz27qXbb59zCWcvvv12OnCA9uzBKDQAAACcN1DBAQDtxB3Qt9xyS7sXAgAAAJ3lzJkzt9xyy6FDh8QZXdff8Y53TE9PN2lYNgyjv7+/URGHXLjBmxmqqppKpeYMrOXbmxdxTE9P12q1l156aXp6um7iXNf+/bRtG42Pt7IKIqKhIYxCAwAAwHlD24XftgBA+yiK8sADD9x0003tXggAAAB0llQqtWrVqv/8z/8UZ3RdX7NmTRiGPGhcF+fCiURC1+v8W085gA6CQNd1vr7uxXHcSa0oiqqqkSFofjcMQ/5vd3f31772tR07dmzZsuWaa67J5XLNnzw0RDfeSL29dOBAKwuhYvHslRs2tHQ9AAAAQBu19Ff9AADLJJ/PT0xMtHsVAAAA0Ikuv/zy66+/Xrzk8mXDMGzbbnQLt0VXq9UmU9IsDEMOkXlyec7FKMpr/3hU07R407Qo4tB1PZVKPfzww3M+UzY0RLt20W23zeOW22+ndeto//55fQ4AAADASkMADQDthAAaAAAAGsnlctu3b5fP2LatqmqpVGpyl+d5lmWVy+XIeXn8mckF000Ca556jpzUdT1eHs2dHlwA8sQTT/zkJz9pss66du2iw4dp69ZWrx8fp23b0MUBAAAAHQ0VHACwxI4cOfLEE0+4rjs4ONjomvHx8SeffNK27VWrVo2Nja1duxa7EQIAAEDc6tWrJycnxZ5+fX19hmGcOnXKdd1kMln3FkVRfN/nCWV5TjkeIhNRGIaapvE0tGEY8UfF7+IziqLwboTyBXy9KOI4fvz45Zdf3tXVNa+v3NtLN95IRPOr47j33rMlHgAAAACdBgE0ACyl7373u5/97Gcdx7nnnnuKxeJ1110Xv2bPnj1/93d/5zjON7/5zeeffz6bzXZ3d1955ZUrv1oAAADofG9605vuv/9+rssYHBw0DOP06dMzMzPZbDY+gywEQaBpmjynXDeAJiJN0zg15kxZnG90vTgvyqDlnJoPVFUNgqBcLpfL5Xe84x3z/s5EGzbQ1q300ENULLZ0fbF49mK0QgMAAECnUeLbNwMALIzv+9dee+13vvOd9evXnzlzZtOmTQ8++ODQ0JB8TRAEb3vb2x588MHLL798Zmbm+uuv/9CHPjQ4OHjLLbe0adUAAADQ6b7//e/fcccdRDQ0NDQwMDA+Pn769OlMJrN69WpVrVMqyNFwOp02DKOvr0+crPtwTdN49llV1WQyyXl08/XIF9i2Ldd3hGEYhiF3eszMzFSr1Y9+9KPvete75vmNzxofp7176fbb53HL0BDt20fn/v4LAAAAoJ3QAQ0AS+axxx7r7e1dv349EfX397/nPe+pW30YhiH/m9lUKqWq6pvf/OaxsbGVXisAAACcP6677rrh4WGa3YfQNE0iqtVqMzMzjW7h3QiDIKhWq80f7vs+J8hhGNq2PWf6HBEp7uDsW9d1VVVTqVQymTxw4MDk5OS8ninwzoSHD88jUB4fp40b0QoNAAAAHQQBNAAsmWKxeMUVV4iX2Wz2xRdfjFyjquptt932mc985itf+conPvGJj3zkI+9973uxDyEAAAA0MTAwsHPnTvGSM98gCKanp23bbnSX53me59m2LTYbbMR1Xc6dObaecz3yvyJVFCVeHq1pmqqqpmmapjk1NXXvvffO+cwmeKj5tttavX58nG6/nTZupPHxxXwsAAAAwNJAAA0AS8b3ffmfwXL7YfyyJ598Mp1Or1q1qre39+WXX+Z/GIsMGgAAAJrI5XJf//rXOW4Wga/nedPT03V/v8Gq1Sp3MTefaw6CQDzEdV3um26dpmmRNmpFUXj/Q/73XkePHq37z8Jax6PQ8+rW2L8fo9AAAADQERBAA8CifPGLXxweHh4eHn73u99tmqb8B7YgCHRdj1z/6KOPPvXUU9/+9rc//vGP33333UT0jW98I5/PI4AGAACA5oaHhz/60Y86jsMVHKxSqZTL5Ua3iCKOUqnU/OFc7sFaH4JWZhmGEcm4FUXhIo5MJrPIIg5hw4aFjEIjgwYAAID2QgANAIvy8Y9//K677rrrrrv+8R//cfXq1c8884x4a2pq6pprrolcPzU19aY3vUlMCV1yySVHjhwpFAqjo6Mrt2gAAAA4P/3RH/3R+973PvkMF3HUarVGt/B+gHMWcYRhKP4evcUiDlmTIo5EIpFKpRZfxMF4FLr1DJpofnsYAgAAACw5BNAAsCiXXnrpDTfccMMNNxQKhWuvvZaIDhw4QEQvvfTS448/fv311/NlBw8e5Kmft7zlLT/96U9/85vfENHMzMyTTz5ZKBRGRkawDyEAAAC04t3vfvcll1zS1dUlznieV6lU5HxZ7mgWaXKTQWkmP8F13eaBdbzTQ9M0rt2Qr9E0TVEU0zR1XV98EYfAOxNu3drSxdIPAwAAAKANEEADwJJRVfVLX/rSF77whZtvvvljH/vY7t27BwcH+a0vf/nLP/3pT4noyiuv/MIXvvDhD3/45ptv3rRp0zvf+c4//MM/nJiYQAUHAAAAtCKXy33mM59561vfKs5ww0alUml0i+M4nudxGXTdCzhNDsNQLuLg0em6F4v0OTw33OXODfkMD0FrmpbNZpeqiIMNDdGePfMbhQYAAABoCyXEX4gDQLuNjY3deuutjz76aLsXAgAAAOeH06dP79ixQ/4L7GQy2d/fn0ql+GVkQllV1Z6eHiLKZrNyhXTkYp5WFi81TUun0/HL6t7LwjC0LEv+Q5bItWu1WrVaHRwcvPXWW+f3bZsaH6eNG2l8vP67+NMeAAAAtB0moAGg/XgTQrRwAAAAQIsGBgb+4i/+Qq5ddhynVqs16s3gGmgiqlardeeaWRiG8hN83+e7qEH6TLEhaLEhoRxq8+4XpmkmEomjR48+8sgjrXzHFg0NNdyZEOkzAAAAdAIE0AAAAAAAcP5573vf+5WvfEW8DIKgUqk0KeLgJugmRRzM9305oebujkbpc12qqnIRh4ihuQlaVdVsNptKpR577LGlKuJgvDPh4cM0NPTaSaTPAAAA0CEQQANA++Xz+UKhMDo62u6FAAAAwPlkeHh4eHhYvHQcx3GcRhk0J9RE5LputVpt8tjIfoacXDdRdwhafqmqqq7rRKSqaiaTqdVq9957b/NnLkCTUWgAAACANkIADQCdAhUcAAAAMF87d+6UX1YqFdu2Xdetu9WN53me5xGRbdtNijiCIJDfDYJgzgw6IpJB0+xuhERkmqau6xMTE/fdd9+8ntkKHoXetw/jzwAAANBBEEADQEcoFAryPkIAAAAArcjlcnIG3byIIwiCWq3GB9PT03yybr0GbxsouK7r+36TZcTzbk3TuPpZSCQSfJDNZpPJ5EsvvbS0RRzChg3L8VQAAACABUIADQAdYWRkBAE0AAAALECkiMPzvCZFHPwuEQVB0KSIIwzDSOLcyhC0ci7ejVB+lzNoUcRx9913z/lMAAAAgPMdAmgA6Aj5fJ7QwgEAAADzFx+CrtVqtm3btl33eh6CJiIu62j02MhbcxZxxIeg40UcqqryWDQXcZw+fXo5ijgAAAAAOgoCaADoCBxAYx9CAAAAWIBcLrd9+3bxksecq9Vq3aJnsRthEATlcrnRM8MwjGTQrus2CazrVnlomiaaN/gaTdP4ymw2m06nDx06tExFHMtk40ZSFKr3XQEAAADqQwANAJ0CNdAAAACwYFu2bJGLOGq1WpN8WexGGARBqVRq9Ezf9yNFHI7jxENtLtygekPQRKTrOm8/yHgIWlEUVVVTqVS1Wj2/ijiGhtq9AgAAADjfIIAGgE6BABoAAAAWLJfL7dixQ7zkMWfXdesWPYvdCKnpXHO8CTpSxCGiZ/mWyEMURTFNUz7DLRx83jTN86uIY88eCkOql7QDAAAA1IcAGgA6xdq1axFAAwAAwIINDw9v3rxZvHQcx/O8RkXPLQ5Be54XGXn2fd+27Xj03ARvPyiuVxRF13U+SKVS52MRBxHt39/uFQAAAMB5AgE0AHSKfD4/MTGBfQgBAABgwXbs2JHL5cTLSqXSpIiDm6BprgzacZzIGRFe19WkiEPE1pqmcS+HpmmZTOY8KuLYuxcd0AAAADA/CKABoFPwPoQAAAAACxYv4uAy6DmLOBoNSiuKUreIw7bteS1MURTDMMQxEfEQNBEZhpFKpc6XIg7RAb1hQxtXAQAAAOcTBNAA0Cny+XyhUBgdHW33QgAAAOA8tnnzZnk3Qt42sFG+LG8qWCqV4hsMsvi9kTLoiLpD0JEMWlVVkUEnk8murq5nnnmm84s4NmxABzQAAADMDwJoAOgsqOAAAACARdq5c6c4FkPQdYs45CHoRoPSRBSGYTyD9n0/Mhk9J03TROjML3kaWlXVbDYbBMH5UsRBRLt2tXsFAAAAcJ5AAA0AHaRQKGAfQgAAAFikXC4nZ9C8G2GjDJrf5WPbtht1a8Sz5haHoJVz1d2NkIhUVU2n0+dFEQd3QB840O51AAAAwHkCATQAdJCRkREE0AAAALB4w8PDchEH7zfYqIhDHnyuVqt1izjCMIzvRtg8g6bZuufIGVHEQdJuhERkmiYXcfzyl79s8sy24/bnffuIiMbH27kSAAAAOC8ggAaADsL7EKKFAwAAABYpMgQdBAFn0HWHoH3fF+Fyo0FpfiueTbuu22j3wkZr0zQtkUiIl+KYizjCMOzwIo59+852QCsKbdyILg4AAACYAwJoAOggHEBjCBoAAAAWL5fLbd++Xbz0PK9JEYc8yOy6Ls9ER0Jk0QQdOS/vZEiznRvN16breqSIQ5RBZzIZ0zTPiyIOIhofp9tvp3XrMAoNAAAADSGABoDOUigUjh492u5VAAAAwOvBli1bcrkcH4v9BusWPfMOhKK4uVFZR90haFHEEY+exQMjFEVJJpPiJRdx8L2JRCKbzXZyEcf+/RQJ2MfHMQoNAAAADSGABoDOks/nUcEBAAAASyKXy+3YsUO89DyPqzZqtVo8R+YRaT5uUsQRb4Kmc0s8Ippk0KJ8Q1EUTdP4QBRxfPWrX23y1dpoaKjOSR6F3rgRo9AAAAAQhQAaADpLPp9HBQcAAAAslc2bN8u7EfIQtO/78Xw5sqMgz0THHxiGocipZa7r1j3fhK7rYgdCVVXlDDqTyXR3d99zzz3zeuDKWLeu4Vv792MUGgAAAKIQQANAZxkZGZmYmEAGDQAAAEul7m6EnudxGM14TlmMSDPLsuoWcTRq55Dza1mTIWjTNEVrBwfQ4nw2mz106FDHFnE0wqPQyKABAABAQAANAJ0F+xACAADA0srlcnIG7TgOjyrXLXqWU+kgCEqlUvyBYjfCiCAI4u3SzSmKYhiGMkvXdXE+m80qitJpRRxzba94Fu9MuH//8i4GAAAAzgsIoAGgs+Tz+Xw+Pzo62u6FAAAAwOvH8PCwXMRRqVTCMBTT0LLIyUYZtOd5deeaPc/zfT9+vtEQNM3uQEiz5RuilEPTtHQ63VFFHOPjtGHDPC7etg2j0AAAAIAAGgA6T6FQwD6EAAAAsIQiQ9BBEPCksziQeZ4nb1FYd1C6yRB0oyIOmXIuUcShqqrYmZCITNPs6enpnCKOoSHat49uu63V67mOY9067EwIAADwhoYAGgA6zk033YQKDgAAAFhauVxu+/bt4qXjOJwyx/Pl+GR03SHoIAjknFo+XzeDDsNQJM6RtxRFEbmzoiiiDJqI0ul0pxVx7NpFhw/T0FCr14+PY2dCAACANzQE0ADQcbgGGgAAAGBpbdmyJZfL8XEQBOVymerFzUTkeR73RIuL4xl0oyFoInJdN17EEc+dZbquiwxa13Vxsaqq2Wy2o4o4iGhoiG6+eR7XYxS6w+3aRRs3nj1et47WrTt7vHcvfskAAGAJIIAGgI7DNdBo4QAAAIClFSni8DyPE+S6GXTkjG3b8bnmRkPQRGRZlnhLTD03aYImKXeWdyMkokQi0dfX1zlFHGzrVjp8GKPQ57GNG1/bUvL221/bMXJ8/LXQedu214JpAACABUMADQAAAAAAbxTDw8ObN28WL0XKbNu24zjylfF66Gq1Gp9rlu+SZ5y5iKNu4UYjilCUItoAACAASURBVKIkk0k+1jRNLuJIJpO6rndUEcfQ0Nn/LaAVeuNGzNW2x65dr003i8Q5gn9ZBfErhb85AACABUMADQCdqFAojI6OtnsVAAAA8Dq0Y8cOuYhDZNDxIWjREy0u5tYOkrLmMAzjqTTzfd+27cjJ5kPQchl05xdxEJGi0Lp1tGED7ds3j1Ho/fsxCr2iRIh8++3nRP/il+zwYRL/x+TBdrZnz9nzinL2bw4AAAAWAAE0AHSikZERVHAAAADAcsjlcjt27BAvXdcVRRwiX2bxIWjXdavVauSBjZqg+a14R8ecRRyqqtLsboRyBt3f399RRRxyrMkZ9HxHoZFBr4Bt216behZniCgMXwuaG/3lwdat57xs/dcXAABAhgAaADpRPp+fmJho9yoAAADg9Wnz5s3Dw8N8LKfMtm1HZpYdx5F3I+RrIplyk90IgyCIB9bNKYpimiYfcwAtejxM0+yoIo6hIQpDCkPat+/sy1275pdR8s6EjbogYDHEXw/s3UtEZ+ue+ddrz555P41HpDdsIGrc3QEAANAIAmgA6EQIoAEAAGBZRXYjFLlztVqN5MuRao74oDQR+b7faK45CIIFFHFwBi3vRqgoChdx9PT0dFoRB82mnES0axcdPnw2qWzF+Dht24ZR6CXGXc8idOaq7sUQI9LcxQEAADAvCKABoEMVCgW0cAAAAMAyyeVycgZdq9U4d65bxBHZnzBexBGGYWRQOnJ9k3fr4k0IOXTmRg6azaAHBgZefvnlDiniGB8nRSFFoXvvfe3kwnYmXLcOOxMuAY7yI4H+vP5KoAnugMYvEwAAzBcCaADoUPl8HvsQAgAAwPIZHh6uW8QRz5cjTdBEZNt2pHbD9/1GuxG2PgStSMQQtNiWULxUVbVDijiGhs4mm/EBWx6Fbn1nwvFx7Ey4WBs3vjaeLKpRltDNN5/THA0AANAipfk//gIAaJc777yTiG655ZZ2LwQAAABetyYnJ2+88Ubxsquri9NeVVV7enrE6DERGYaRyWT4mBuZNU3r6+uTn6aqajKZrPtBHBxH3hXlzo14nsfD177vy3m37/vHjh1761vfKu+m2JnGx2nv3vmVNvAAdevJNQji/034Uz4AAHQUTEADQIcaGRlBBQcAAAAsq1wut337dvFS1D0HQTA9PS1f6XlepEbD9/3IoHQQBI2GoInIdd3Iu3MOA+m6zh3QchEHEWmaNjg42DlFHExR6mxPxzsTzncUGulz63hyXNQ9b9iwjBPKonEFg+oAADAvCKABoENhH0IAAABYAVu2bMnlcnwsF3EEQSDny/JbQryII9IWHWFZltjhcM7xZ5ZIJPhKsRshM02zc4o49u8/G4DKTdCyebVCY3p3XoaGzsn9V2Z4/JVXlv0jAADg9QQBNAB0qHw+T0TIoAEAAGBZ5XI5ucjCtm2REUfy5bpD0JEdC5vvRsj7GcrR85xD0IqiGIZBRKqqapomv9Xd3d3X13fPPfc0f8IK4CboMKQ9e5pds2sXujWWkhhDDkMaGlqJvQGHhigM5/iFBgAAiEMADQCdC0PQAAAAsAI2b94s70YoMmX5mImODsH3/VKpJJ+JzETTbGe0eDd+QXOapnEzta7r8qNUVe3v7++EIg4ecG7Fhg1zjEJj/LlFvN+g+L/DvEpOAAAAVhgCaADoXIVCYXR0tN2rAAAAgNe/nTt3imPP80RGHMmgWyniCMOweRGHPGRNLQxBE5Gu66qqchGHnEGbpqnreocUcRCRotC6dXOM4vIodN0MGulzK/jHy4l/pH9juW3bdrYDegWmrQEA4PUEATQAdC7sQwgAAAArI5fLyRm0POkcyZcdx5HjY1Yul+UNBoMgaBIrR9qlqbUiDtM0aXY3QjmDzmazfX19d9xxR/MnrIC9e4la3kKQdybcsGFZV/Q6tH8/rVt39jgMV/pnKMJuTFsDAMC8IIAGgM6FCg4AAABYMcPDw3IRh5xBR4agI/ExEfm+L04qihKGYfOejSAIbNue1/K4DFrsRigyaFVVBwcHy+Vy24s4uAa69SnmyM6EGH9uBcfNLexeuSwOH57fLzEAAABDAA0AHQ0BNAAAAKyMyBC0XNYcKeJwHCeeL9u2bVmWeBkEQXxQWua6rrxd4byKOHg3QpFBJxKJVCrV9iIOeSpWTOnOiUehkWnOadu2swdh2KxEe/ls3NiGDwUAgNcHBNAA0Lny+XyhUEALBwAAAKyMXC63fft2Po4MQdu2Lc8sx3cjJKJarSaKOFoZgpYD6zkpiqIoSjKZ5ACa02eRQadSqQ4p4ti48WxHMDdytAJ9DnPato327n1t8HnXrpVewP79tH8/KQpiaAAAWAgE0ADQ6TAEDQAAACtmy5YtuVyOjyNFGdVqVQw1192N0Pf9SFlHEARK47qEyEPEELRSj3jLMAxVVbmIg2YzaFVV16xZ0wlFHHv2EBGFIW3d2t6FvK7wT5VoRbcclImm6bYMXwMAwPkOATQAdLRCoXD06NF2rwIAAADeKCJFHLVaTQ6d5XzZtu14yYbruvJwtOM4zT/O8zx590KShpob0XVd13VN01RVFbcoiqKqaocUcYg+DdEaAQsmJo7DkPbta+e2jdz+jH0jAQBgARBAA0BHGxkZQQUHAAAArKTh4eHNmzfzcWRI2XVdsdlg3SFoIrJtW5RvhGEoFz3XJYo45oyehUQioShKIpGQTyqKkkqlBgcHO6GIg4gUhfbunUcRB8Rt3Hi2+IK1K/zlWhUAAIAFQwANAB0tn8+jggMAAABW2I4dO8SxHCjTuYPPjuPE82Xf90ulknjZvAmaZsugW0+fabaIQ1EUUcTBNE0bHBysVCptL+IYHz97gCKOxdi3j4hoaKhtzRuMPx3tzwAAsGAIoAGgo+XzeUINNAAAAKysSBGH3KoRBMH09HTdt+RrxKB0GIZzFnG4risPTbeyQk3TEomE2I1QPp9OpzuhiOO226i1rwJ1iPaSMKQ9e9pcfMG/jqKHGgAAYL4QQANAp8MQNAAAAKy8zZs3Dw8P83GkbUPOl4MgqJsvW5YlMmXf9+eMles2SjfHTdCRIg4iSiaTq1at2r1797yetuR27Tp7oCivHUOL9u4lRTlbfNHG9FluoB4aatsyAADgfIcAGgA6XaFQGB0dbfcqAAAA4A1HHoKOBMTcy8Gxct0m6CAIRBFHGIatFHGI57Q4BK0oimmaqqpqmiafV1V1cHDwzJkznVDEwRHqK68s8AmTk5OTk5PT09Py1PkbAf9fgCs42kU0UKN8AwAAFklp8Tc3AADtMjY2duedd953333tXggAAAC84Xz/+98Xe/rput7d3S3eUlW1r6+PGzAMw8hkMvKNfN40za6uLpptbY4kxfHeZ9M0TdNs9G5drus6juM4TuRPdrVabWJi4u67727lIctn797XaqDHx+eYop2cnCwWi6dPnzZN89VXX33llVdqtVoqlSKiIAhU9ez4VE9PT1dXV3d3d39/v67rYlD9dWD/ftq4sbOqS9ato8OH270IAAA4zyGABoBONzY2duuttz766KPtXggAAAC84UxOTt5xxx1ilDiTyYiAmKR8WVXVTCYjbwko4uOenh5uyVBVNZlMyg+PR8x8DT+nxQA6DEMex/Y8L/KHuxMnTgwODn7+859v7bsuL0WhoSHat69OBl0sFg8ePPjggw92d3cPDg6KHyP/BOT/0ux4OA+V+74fBEF3d/dFF1100UUXZTKZSy65ZKW+0LIQv+bt/WN6B+bgAABwXkMADQCdbmJi4pOf/CQCaAAAAGiLycnJG2+8kY9VVe3t7RVvqara1dXF+bKu6xxGMxGYqqra39/Px6ZpykPQdSNmVVWz2WyTC+LCMKxWq57nBUEg//kuCIJf/vKXn//859s+I8xlDhTLVfft2/fss8/WajXuEuEh8Ra/NREFQeB5HsfQHEmnUqnh4eHrrrtuib/AClIUuu22Nrdmd0gODgAArxvogAaATpfP5/P5/NjYWLsXAgAAAG9EuVxu8+bNfBwEQaVSEW/JRc+e53meF79dvmbOJmiKbXgYp8Tw3DRH23yGr1RV9fLLL//6178+95dcZnv20IYN56SZk5OT995779NPP83BfSqVymQyiURCVdXWA2jOrJPJpGEYhmGk0+kwDPfv33/bbbd961vfWpZvsmzk7f7avmcj/0rt2dPmZQAAwOsGAmgAAAAAAIBmduzYkcvl+Nh1XTlHDoKgXC7zsZxNy2zbtiyLiMIw9H1/zo/jPg2+Ph43171F13V5vFouAOnt7d29e3crX3P5cPkG6+2d+sY3fnzXXXdxv7OiKIlEQm4voXohOzWeB+cncHitaVpvb28ulzt27Ng//MM//OAHP5icnJQvbnu2W9e2bWe3+2sveQ1h+Fp5NwAAwCIhgAaA80ChUBgdHW33KgAAAOANKpfL7dixg48jQ9BEZFkW58tNhper1SpHz60MQfMz57tIDmFFSisOBgcHDx48KGqs26u3d+pTn/ri8eNjF110ERFpmmYYhthdsAmRQddF58bQRJTNZnt6en7961//0z/9k5iGVhS6/fZOzKDFrPH4eDuXwVPYbc/BAQDg9QcBNACcB0ZGRlDBAQAAAG20efNm0aQcBIFt2/K7Il92HCcIAprdK08Qg9JhGDqOQ3P1OwdBYFnW/8/e3QfHcZ93gn+6e3reX/AODsGXASm+SBQlEZbAyJJNgJbjdci9tVNONtKVIsCR6qLKKdm73T2XXXsi6Eo50f1xccKNb3PRFkG7dpXKnq0kljZRNhbBSJFDyCJFiRTfRGIIAcQ7MO8z/X5/PESrOW8YkCBeqO+nUkijp6f7N0NXHH716PsThEXs2SMIgsfjKd0IURTFe+6554//+I9rvM+dk0gkfvd3/6ipqSkcDpcdfL5lzjYSWZa5S5rz6NbW1vPnzzt3Ezl8mNrbb3RSrzh7GZZFllVmh8bl0d9/Yw1EGHwGAIClhwAaANaAtra20dHRlV4FAAAAfKa9+OKL9nE+n+egmdn5cpUhaE3T7EHpBWNlQRCKuj5qIUmS1+t1DhRzBh0KhaLR6He/+91F3W3J/dEf/ZEsy8Fg0OVy1Tj4fGsEQeBOEq/XK8tyU1PTu++++81vfjcSmeML4nHq7V0Vo9CHD5MgrPDQcV8f9fbeOLYsVD8DAMDSQwANAGsAAmgAAABYcdFo1M6gS4NmTdNyuRwRqapadjdCmh+UtiyrxmRZUZRa0monDl6dZziDrq+vv3DhwgoWcfzgBz9wuVyRSGQJB5+r4yFrt9vtcrm8Xu999/l7e3/4+OP/wK/G4zdGoVe29YKrsbu6VnINHMSjeQMAAO4cBNAAsDZ0dnaihQMAAABWVkdHh13EoShKUY5cKBS4iKPSboSGYaTTaT6oZTfCKvPUlQiC4PV6S/f0kyRp+/btK1XEce7cudHRUZ/P5/F47tzgcykehWYej6e1Nd/Z+bd2Bk1E8Th1d6/MKLSzfMPeoXE58Wdnhw6tzBoAAOAzAgE0AKxqb731Fh+0tbVhH0IAAABYWc4haCoJmk3TTCaTfMBFz6U0TeN31TgEbRiGoiiLGoLmDLq0YzoYDK5UEccPf/jDYDAoSRIvbzkzaFEUJUnin36/PxKJPPDA6V27/j/7ghUZhebwd2WHjrkIm9fQ17fCU9gAAHB3QwANAKvXD37wg+985zt83NbWtrKLAQAAACCiaDT67LPP8nHphLJpmlzEUVQS7cSj06Zp1jIETUSapum6vqgMWpbloiIOVl9ff/HixWUu4nj77bdVVeXcmbcKXM6n8xMlSeKfXq+3pSX3xS9e3bTpqvOyZR6FtjcbXJHha34o/wcKuTMAACwDBNAAsBolEolvf/vbL7/8sn1m7969qOAAAACA1eDgwYPRaJSPyxZxcL5cqT3DLuKoNCVdxDRN3r2wdoIg+Hw+Tl2d51ekiOP48eNer9eyLMuylnP2mQnzeA5aFEWfz9fcnP2VX/nLoit5FLq3d5lGoS2LurpWIIBub6fDhz9dA5o3AABgGSCABoDV6Pvf/35DQ8P3vvc9+wz2IQQAAIBVovpuhKZpcr6saVqlng3DMHK5nGVZZbcrLJ0R5qfUOATNeasoioFAoPRugUBgmYs4PvroI7fbTUSLGuJeQvwNODNov9/f0JB+9NH/t/Ti/v47Pgpt/4GsVPUz0aftz0Uv9fVRe/uK9WIDAMDdCgE0AKxGL7744r//9//e5/PZZ7iCAxk0AAAArAYdHR0HDhzgY13XFUVxvmqaZiaTqb6FIA9K19gETZX3LRRK2C/ZRRxFGXRDQ8OyFXFMTk4KgsBtJJqmGYaxzBUcdPPHlyTJNE0O6O+7bzIUKvMl8Cj0HUpgOfkVhGVNeONxam+/EXxbFvX0lMm+BwZuDEfH4zQwcGMYHAAAYEkggAaA1ajsv56JIWgAAABYPZ577jn7uDRoVlWVu5uLsmkbF3FYllV7EQc/pVLcXBYXcdDNIawoistWxHHt2jWXy8U5u2VZhUJhmTchpPlvzLIs0zRlWSYiwzBcLld9fXLXrncrvYt3JhwYWOLFHD9OlkWx2DIF0DzvHIvd1Cty9GiZK+1eDlt//9J/fAAA+GxCAA0Aq8Lv//7vd3R0dHR0fOELX6h0TWdn58mTJ5dzVQAAAACVFBVxZLNZ56t2EUeVIWi+xjCMGrsp7B0Oa8d1E3zszKADgcD69euXoYjjo48+EgSBS7GJyDRNDqOXvwyav2RRFCVJsixLEARZlh94YNbjGav0lnicenuXMilub79xMDS0ZPesgvs0GFdOV8JTz6WOHbsDywIAgM8e10ovAACAiOipp57av38/EblcFf/v0t69e48cObKMiwIAAACo5sCBA6+99hp3WXCfBg/YMi7iCAaD2WyW65hLKYqiqqokSdySvCBN01RVrXRxLpebmZlxhtQzMzMzMzMejycSifDPcDjMLzU2Np4+ffrUqVMdHR01ft5bcObMmXQ63dDQYOe/nEHLsiyKYlHyXiWILzvrXXspNifOfOB2u/krkmU5GJzeseMvPvjgf6v0Xq7jOHaMjh+nWKyWp1XU10fxOAkCLVsVdl8fHT786ROrVE5XmnRenv0YAQDgrocAGgBWhS1btmzZsqX6NajgAAAAgNXmxRdf/NrXvkbzQ9B1dXXOVwuFgsfjEUWxKJt2SqfTsixLksRdGQtSFMXlcjkniHO53CeffJLP5xsaGjZs2JDP53ncmIi2bt3qvOz8+fOXL1+ORCLNzc2RSISLOI7dsTHXEydO5HK5bDabyWTcbrff7w8Gg0SkaRpPInMibF+/2HroordXuoYcUbUdRtN8Gr5589AHHyzwoHicurvpmWduaxqa4+Bl0N5O8fiN0DkWo2eeWfgtJ06UP48AGgAAlgQqOAAAAAAAAG5RNBp99tln+bjsroOZTEbX9QWLOHRd518XDGH5KblcLpfLXbx48ZNPPhkeHt62bdsDDzywYcMGIvL7/YFAwOfzOfdzJiKfz7d79+7du3e3trZOTU2dO3fu+vXrjY2Nd66IIxQKrV+/nqe2C4VCIpFIpVKGYfAQNG8GeJt7ElbvwubzdhxvWZZlWYqicHzPLRwNDam6uvcXfBCPQnO2e8ss6w6OP9tTzM4VDg3VFJqj6xkAAO4oBNAAsHrt27fvrbfesn/lCejBwcEVXBIAAABAkYMHD9otFoqi2HEnMwwjl8vpus7dx2UpipLL5YreWMWVK1feeeed4eHhDRs2tLW1bd++vegCURRLS5YFQXC5XKFQiGefd+/evXnzZpfL9Y//+I/cIrLkdF0PBoO6rk9NTXHCns1mOYPWNC2fz3u93tvPoFnpxoz2gWmaHD3bqxIEQZIkRVESiQQR+XwTNT6FR6EXOwc9MECCQEvxKStqb6fu7hvHlkWHDi0uKMekMwAA3FEIoAFgzeD+DbRwAAAAwKoSjUafe+45Pi47BK0oiqIoRbsU0s0VxrlcrsqUtC2ZTI6NjW3dunX//v3bt28vmnF23rZssMszv3bXh9frbWlp2bx580svvbTgo2+BKIrT09MtLS2FQmFqakoURR4GV1WVezA0TWtqauJ+6iV8btFnNwyD5sef7X8YoKoqh/6WZT3//OShQ7XenEehe3sXEdrazRtLO2gcj38ahfOuhvaH7utbRGN1f/9SrgoAAKAUAmgAWDPa2to6OztHRkZWeiEAAAAAN+no6Dhw4AAfK4pSOuzMuWeViNkwDB4NrnQBV1iEw+FYLOb1ehdckiAIpUPQRCSKYlHa297eHgqFvve97y14z1tw6tQp3ucjnU5ns1nLsgzDSCaTiqJIksQpsM/na2ho2LRpU2tra9lI/Rbwx+f2bT5j929wQG8YBu+CKAhCNnuur29x2wz29y9iFPr4cbIs6uqirq5Ff5CyOPuOxW7sMcgOHboRQwMAAKw2CKABYI1BBQcAAACsQs8991w0GuXjomFny7JM08xkMqUFHU6apiWTyUqvWpYVDoeJSNd1wzCqb75nD0EXbWxob77nzKA9Hk8sFrt8+fKZM2eq3LN2iUTi+PHjx48f/8lPfsIlG83NzYqijIyMZDIZy7I0TZuZmSkUCoZhpNPpdDotSVIgEKivr9+wYUMsFmtoaFhsEi2Kos/n8/v99fX1LpeLPyl/4Xb/Rj6f5++ET/Kfhf0tdXXR8eO02FHoBTNouxnj+PFFfaCK2tupvf3TX+3QfFFTz06VdiAkVHMAAMASWXjXYACA1ePIkSOvvvrqm2++udILAQAAACj2+uuv2xv6Fe0ByHmoz+err68PBAJF522SJNXV1QWDQedJHny2f5VlWRAEvnmVzffsl3jo2H7J/gugqqpchcE57MzMjKIo3/72t1taWhb7wROJxNjY2NDQ0Pvvv29Z1uzsbCgU8nq9ExMTbrf77Nmze/bseeedd1wulyzLGzZs8Pv9ROT3+10ul9fr9fv9sVisqanJ5XLZ6yEiTdNSqZRpmqqqlhaYMFEUvV4v35k/ON8hm83m83nnKLphGJlMhr8BnsVOp9MciLe2tv7BH/yBfWVf36elGbWIxejo0fLTzf391NtLRNTTQ0ePLuKeRfr66MSJGxE2/8Eu4d/jq++siMAAAABuHwJoAFhLBgcHn3766TfffLOtrW2l1wIAAABQ7Pnnn+cN/URRDAQCnIqSY/Q4GAw2NDQUnXdyuVzr16/n84VCoVAoONNnvoC3E3S73ZVuUlSCzJks/9XP/gugaZqKoui6zoGvaZqTk5PZbPY//af/tODHHBsbO3ny5NjYWCKRGB0dPXXq1K5du3bt2sUPtTcDzGaz169fT6VSbrfb5/OdO3eOiPx+fzgcbmpq4gxdlmVZluvr6xsbG2VZdrlc4XB4165dHo/H6/V6PB7LsuwtHDlB5m9SUZQLFy6Utprwl5NIJObm5kzT5JVYlpXJZAqFAn9qRVEEQUilUnzbXbt2/bt/9++cN4nHqbd3EZXNVf5WzX8OQ0OLHk+Ox6m//8aEdVHo3NdHPT23OO9caYWVIDAAAIDbhwoOAFhLOHfGPoQAAACwOr344ot8ULQbIce+XMRRaZiX6bqeSCSIqFAo5PP5ovTZeZk911w0VFQpj7bxyaIiDlEUI5FIIBD44Q9/WPaJiURiYGDg7bfffuWVV374wx9evHgxmUzyIkOh0MjISKFQ4Npl7l8WBMHr9TY1Nc3Ozl69ejUajW7evJnm55pnZmb4trwfYDqd5mqOfD4/NTWVy+XsnQk5UObIPhgMBoPB+vr6pqamtra2Rx99dPv27aIoulwuj8fj9/tDoVAwGJyZmclkMi6Xi79zvn8ymVRVVdd1buTIZrO5XI5rTxRFKfqwsdji6jiqsCyyrEWExfYwsrPimf+E7eaNW27bKLXgDoRo4QAAgNvnWukFAAAsQltbW1tb28mTJzs7O1d6LQAAAADFotHoiy++yEUcuq4rilK04x9n0H6/n+eXeRO8optks1lVVevq6iKRSJVnqarKDcvO+1Qq5RBFkYegeRzYPun1ejkQtyxLluVIJHL58uWxsbFoNDo2NvbOO+80NTWdOXMmk8lwUTJH2Ly9IRc3NzY2bt++fWpqamRkpLm5ubm5WZzn8XhkWW5qarpy5cqJEyc+//nPZ7PZZDKpadrU1FShUGhububvhwe96+vrBUEwTfPs2bPNzc12V4kgCBxAG4bBsXKhUOBqkaampkgkMjk5OTc3x9/J6Oioruv2uzKZDAf69rdkGIaiKPl8nn+dm5tbv3592S+NB427uxcIYSvNCHO1RS0TxM5hZ06ZS991hyaRkS8DAMAyQAANAGtMW1sb9iEEAACAVaujo6Ojo4OLOPL5fFEATUSKoqRSqaampkp3yGazXI5smqbb7a6UKfPIsF3EUZRlW5bFMTHNj0jbGbTzJhwic5ir67ogCB6P58c//vHQ0FBDQ4Pb7Y7H40Tk9XrJkT7zSLJ9/0AgYH+cooe63e4dO3bMzs5OTk7+/Oc/37Vrl6IouVyOv5yxsbFAIFBXV6dp2scff+zxeDwej9vtdrvdc3Nze/bs8Xq9PGRNROPj45FI5MEHH/T7/aIoGoYhSZIkSbIsb9q0KRqNvvfee7xannHm6WZN0+zM3d6KkDugiWh2drZQKKxbt67SnwWPQvf3V2yFrpQL9/ffyHZ7e8u3P/MFztC5dD/DQ4cW3uTwNl27dmfvDwAAQOiABoA158iRI4ODgz/60Y9WeiEAAAAA5Y2NjX3ta1/jY4/H45zk5QNRFNetW8fnS/Nlbt5wuVyBQEAURUmSeOyXSZJkh7xE5Ha77VeLhqCLsmBmmqbd3WFv92cfEJGmaaV/SeTQ2eVy8Rx0JUXd03xGUZTr16+/9957uVwuFArdf//9Fy5cyGazHB8TkdfrbWxs5GluDpT5jV6vt6WlhYs7BEGYnZ1VVTUQCGzdgZ3YTgAAIABJREFUunX37t12pmxZ1sjIyN///d9z2bTL5RJFMZ/PJ5NJ59fCCTsPRMuyzBsVjo+PG4YRi/Xt3Pkv+vpoYIBisfLtFvF4+VHo6n+fFgQ6fvzTe/b2UjxeZi9B53FfH3V1ld/S8E6ovgMhER0/vnyLAQCAuxUCaABYY1599dUjR468+eabK70QAAAAgIr+/M///OWXX6abdyN0hrN+v7+1tZV3FHS+MZVKNTY28htDoZCdKdsTx0UBNAe1RcmvczPAooXxsLNpms7QmWNcIjIMw46nucdZkqTSIe5K7Cfaz+WDXC43ODg4Pj4uCEIwGHzooYdOnTqVy+Xs6Jy3ZwwGg36/35lBE1EkEtm+fbtlWXagTESBQODLX/6y3+9PpVJvvPHGyMiI3bJNRNlslqe5aT6FtywrnU6nUinuzna5XKqqjo2N8fdw4cL/k0jsoZuD4O5uisVuDC9zUXJXV/EoNEfJnM/yNT09RLUFzSsYOjtV34GQEEADAMBSQAANAGvM4ODg008//aMf/Qg10AAAALBqjY2NPf/882NjY0QkimJdXR2VDDs3NjY2NDQ4T2azWb6S2ck14xlknol23kcQBL/fX7oGTpBLz1uWZe/FZ/990G7hqHHYuSw7gM5kMnZ6TkSGYaTT6TfffJO3AQwEArFYTJblCxcuEBEXg3Cw7nK5fD5ffX19OBzm87que71erpN2PisQCOTz+Uwmwym5/UEURclms86Mnp/OwTrvN8hV1JZl8SPef//VfH4d1RYW29+oZd3KNbEYDQ0REfX3Uyy2wtlufz/19lZ81Tm7DQAAcDvQAQ0Aa0xbW9tKLwEAAABgAbwb4fPPP09Epmnm83mfz1dU0zw3N+fz+ezsuFAoFM0aa5rmTF15etftdhdFw5zSFhVuCPPKLs/Z6cExtGmagiD4fL7b+dS2YDCYyWQikQiv3+Px1NXVffWrX3377bcnJiaSyeSFCxc+97nP3XfffR9++CG/xTRNURR1XU+n0+l0WpKkYDDo9Xq9Xq+qqvYstv2JJicnTdPkD8JRO//kPRX5bnxlOp3mJmie704kEvaUNzt//kYH9NGjdOJETR+wljkuDpd7emjz5jLv4lnplVW9fAODzwAAsFQQQAPAGtPW1tbZ2Xny5ElMQAMAAMBq1tHRceDAgddff52IFEXxeDzOsVwiMk1zdnbW5/MJgqDrOg//Oi/Qdb3ontzg7IyVeYZX0zRJkuz6i6La6AXxW2oceS4q2bB3AvT5fLIsNzc3T0xMjI+Pe73e7du3z8zM8NAxj2k/+OCDp0+fnpqaUlX1zJkzfr+/q6vr3Xff5dTYDui5GSOZTCaTSZfLFYlE+JvJ5/Mul8vtdhcKBQ6ReStCvl5V1UKhwEPi9maJiUSiUCjwPdPpNO9nSI5ebEEQ7CHfnp5Pc2HL+jSf5TINdvTop+eduwsePfrpsDDfm0s5yu5AuEpgB0IAAFgeqOAAgLXn6aefJiLsQwgAAACrXOluhKUjyY2NjY2NjTMzM1yCXPRqMBh0uVzOrgw+w7kznxEEgRsz7IMqS3J2blS6pmyPc9HKRVHkWgznjLYoiq2trXV1dYVCYWRkpK2tzev18kTz9PQ0fyFXr14dGhrKZrOcEft8vubm5lAodO7cOc7BiYhD9tJNFDlVl2XZ5XJ5vV6O7CVJUhSFU2aaD9N5v8FcLmefJyJN04qODcNYv379j3/84yrf2GK1t98o2Vj9quxA2NV1U+wOAABwOzABDQBrT2dn56uvvrrSqwAAAABYABdxfPe73yUiRVHcbrcsy6W7Drpcrnw+z9sM2o0cPDTN3RF2FGv3SNi/2vPOvJ+hIAjOYLrK2pwFHWUj5lJcPy3Lsr3IohRb07SJiYn6+nqfz7dt27bR0dH29naPx9PU1LR+/fpUKhUKhUKh0IMPPvif//N/5j6NXC537do1v9//8MMPf/TRR4qi8D2dd7Yno7m6WtM0URQzmUyldaqqygdFGy0WHfPP1tbW6p96Ufr7KR4nQaCenlU9+8yqVHCg+hkAAJaQuPAlAACrzN69e0dHR1d6FQAAAAALO3DgQEdHBx9z0UQRTdNmZ2c5OE6n03Nzc6qqTk9Pnzt37vTp05988kkikZidnc3n8zMzM/F4nMeceQSYK6Q5yeUtBDUHdZ6maVzxzAmyTZxXpS2aiCRJ8vv9dXV1jY2NdXV1zg0Pi94oSVIul7NPptNpu4ra4/E0Nzfv3Lmzo6Nj+/btzz77rK7r/Kkty8pms2fPnm1tbd2+fXtRqO2c9ab5xmonTdMMB+eYs1NpAM2i0WilD34L7AaPQ4eW8K53BDeEAAAALAME0ACw9vA+hIODgyu9EAAAAICFvfjii3xgmmbZDFoQBNM0U6lUOp1OJpOapjU2Nra3t69fvz4QCOi63tjYuH79+m3btt13332Tk5OXL1/mAgqejC7Nju0GZLfb7fV6PR4Pz0fXvmaedA4EAi0tLQ0NDYFAwK7aKE2rnWdUVT1//jwRZbNZRVGmp6ft8WqOm91ut8fjiUQivb29mqZFIhEu1sjlcsPDw6Ojo48++uimTZuIiLdGdE4rOyeaWdF2gjSfUJeerPRJKwXWt8yyyLLWwARx9e0W9+1brnUAAMBnACo4AGDt4QAaQ9AAAACwJkSj0Wefffbll18mIh5Mdrvd/JLH4/F6vW63u6Ghobm52S7oEAShra2Nh5Tz+XwikRgZGbEs69577926dWsmkxkaGspkMrt37yZHgQbnzuzWlipJktfrlWXZXqF9/6IMt/Qkn/F6vYlEQhAEDnZHR0ebmpr4JcMweENCv9+/YcOGa9euPfXUU3/1V38VCAS4xNk0zXw+/+677+7evTsajZ49e9aZ15ct5bDjaTsBrzTpXOl4CQPo/n7q7SXssgQAAFAEATQArEmdnZ0jIyMrvQoAAACAmhw8ePDUqVOnTp3ijDUQCNTV1bW3t4ui6CyGtgsreEdBPsObE27evFlRlJmZmZGRkc2bN2/bto1j6Fwut2fPnuoDztV3nuc6DlmWS7dALM2XS2Noj8dDRDzUTETBYPDkyZPj4+N8gaIo6XQ6HA5zE4j9xkAgsGPHjlOnTn3jG9/47//9v/t8Po/Hk81mTdPUNO2dd94Jh8M7duwwDGNycnJmZqbspygdiC49U+Xj8/lUKjU8PMwz17fp8GEiIkGgoaE1MAFdpQCaiLq6lmcVAADwmYAAGgDWpLa2NlRwAAAAwFoRjUafe+65559/nog2bty4YcMGt9ut63o4HJYkia+RZZlrLorml+2JZpfLFQgEcrnchQsXAoHAzp07I5FIJpOZmJgQRZH39yt9dKX4VZIkn8/ndrudw85Vxpy9Xi8RRSIRTpw5bo5EIvZb7IMvfvGLExMT6XSafz1//vyePXvsxme+rWVZmzZtyuVyH3300YYNG86dO2dZlizLhmFwtYiqqh988EE4HG5oaPD7/blcjmNo+1nO7RaLBqIXVPTGQqFQy7sWNDRERNTbuwbSZyI6fpyIaDG9LAAAALcIATQArEkIoAEAAGBt6ejoOHDgwPnz5+vr6wVB4CIOzluJiCub6eb0uWyZht/v7+joGB4e/qd/+qempqZHHnmE9yQURXFubq6oE7k0kOXE2RlVF405e71ey7Lq6ursoJlbpEsvLk2r+QyXR6uqyudTqdSZM2d27NhBNye/RMRFHIqi7NixY2Ji4vr160QkSVI4HNZ1nYhyuVwulyMin8+3Y8cOy7IuXbpk36FoAc4zpQeVtLa2cpi+VI4eXcKbrZg1kaEDAMBagQAaANakvXv3/sf/+B9HR0e5DxoAAABglRsbGzNNU5ZlVVXtYWdd1w3D8Pl8/Ctvu8fVz3YFh/Mm9q+xWGzjxo0jIyOXLl165JFHiMg0Ta/X62y6sLNXSZL8fj/v/keOiWabnTjzmDOVC3Cdw8v2YpyTyJqmzc7OTk1NcRDc0tJy//33Dw8PX7hwYd26dXZZs/Mgk8m0tLRks9lwOMz5+/Xr1w3D0DTN6/UahsExNBHl8/nLly/7fL6NGzf6fL6ZmZnp6WnnN1N278GiC0pPbt68eWpqqsq7atfdTQMDa6wAemCg/HmkzwAAsLQQQAPAmmTvQ4gAGgAAANaEl156aWpqyuVyWZalaZplWT6fjxPnbDbr8/ns9me7ErosURRlWeYoubGx8dKlSz/72c+eeOIJfiMR8Xi1ZVkej8ftdjc2Nvr9fi5ZJqL6+no7aC47JlwUNFc5ICJN07LZrKqqk5OTdHMKnEwmt23btnPnzqampgsXLpQ+jls13G53e3v71atXNU1ra2tramq6ePGioiiyLLtcLkmSdF23Y+hsNsvfVVNT044dO7xe7/T0NO8LUn0guqzm5uZHHnlkeHi4tbV14T+/hXCY29u7liagK9VAI4AGAIClhQAaANaktra2tra2kydPdnZ2rvRaAAAAABbw+uuvf/DBB1xnIUmSZVmFQoHLlzl3TqfTdXV1fLGd8xbdRBRFzpSdJ7dv357JZP7yL//yq1/9Ko9Oy7IciUQ6Ozt9Pl+loLlKpmyrEj1rmpZIJDgOrlR2USgUkslkJBJpamrq6Oi4cuUKh+/8qqZp9obSsixzBp1KpTwez44dO2ZnZ1OplB3Hu1wuZwydz+dHR0f5mGei+WNOT087e6IrMU3T7/dv3LixtbX1zJkz3d3dC76lFvzJ+vuX5GYrDAE0AAAsLQTQALBWoQYaAAAA1opz584ZhlEoFPL5fCqVampqcrlcnEFz9YRpmvl8nuegybGrHs2PPLvd7tI+aCISBCEUCn3hC1947bXXnnjiCa/XK4pioVCYnJzk2mWqbZy5bBhddFLTtLm5Oc6dqXLPsnMImuuV/X7/xx9/vHPnTvvV8fFx58U8B33lypV0Ou3xeFpbWwVB4Aya20g4huZSDtM0+b2GYaTT6UQiwXswer3eHTt2eDyefD5PRNlslvuj7YsbGxt5MX6//8KFC1euXHnsscd++Zd/+db+TMvq6VnCmxER9fVRX98S39N24kT585s336knAgDAZxMCaABYqzo7O1999dWVXgUAAADAwv7u7/7ONM1cLscbD2YymXA4bJqmYRiSJHHWnM/nRVG0B5wlSXK5XHZxcyXc+BwKhbq6uoaHhx955JFoNDo9Pc2tF3YGbVtsBk3z885zc3PcHOK8W/VfE4nEpk2biOjDDz+cmZmxX52ZmXFGw8ztdm/duvXixYv5fF5RlGAw6PP5nEXPgiDwdouGYSiKouu6MwHPZrP5fH5ycpLjaZ/P5/f7A4GA/XbTNGdnZ3lEulAoSJIkSdLBgwc3bNhQ5eutEf/Dgp6epe/fOHyYjh2j48eXdSoZE9AAALC0EEADwBozOjo6ODg4MjKC9BkAAADWhDfeeEPTNFVViYirmXO5nMvlkmXZsixVVe2t/3K53NatW/1+P7c5e73eYDBYdLeyma8sy3V1daZp/o//8T+am5sff/zxXC7HlRQ89ltlrrnSAU8686aClZ5b/ddkMsm/JpNJO3HmhRW9y56DjsVip0+fNgyDiCRJampqyufzhUKBiEzT5D0bmcvl4tUahsFV2nwN3zCfz+fz+dnZWf7VMAzTNDnoLxQK/GtTU1MtlR0Lsms39u27/ZvdhHPteJy6u+mZZ5Z+FLrSJoQAAABLCwE0ACyTt9566wtf+MItvNFOnAcHBwcHB7n9ubOz8w//8A+PHDkyODiIGmgAAABYzd577z1On4lIURRN0/x+v2maqVRKkiS3222apsfj4RB2enr6nnvusauWnU3QRd3QlmVx3XNzc7N9zZe//OVXXnmlpaWlpaVlw4YNuVyuUChwwF1L0TMPO6uqmkwmK23it6gkmls4hoeHOXcOh8N29TPjJxJRLpfjkLquro7PWJZlfz+JRMIOl/kl0zQ5gxZF0ZoniqLzMr7SLo8mokKhYJom13qMjo5Go9HSD7hYPT03mjcq7el3a5wd4PE4HT5M167RoUPLMZ7c1XXHHwEAAJ8pCKABYDn84Ac/eOWVV956661aLh4dHf3JT35CRHbi3NnZ2dbW9sILLyBrBgAAgDXnvffec/7KXRyiKAYCgUwmI8uyKIp+v5/LNyYnJ1tbWyORCGesiqJ4vd6i6NnlckUikUgkwoPSTq2trU8++eQf//Ef/87v/E4gEOBMmZsraKGSjVwuZ5c73370zL/G4/EHH3xweHjYsqxLly61traqqsr5clFHs83tdofDYS6AJiJVVTlnLxQKiqKYplk07EzzGzkSkSRJqqo6X3Kmz6Zp8j6N9tuXJIC2LWE0XLIDJRFRfz8NDCzlKHSlxBwVHAAAsLQQQAPAnZVIJF566aU33njD2cHnxJuYFyXOX//614lowcS5s7Pz5MmTSKUBAABgNZuamio6Y5pmNpsNBAK6rnMRRyKRaGxslCTJNM2PP/744Ycf5ow4l8t5vV5OV2VZDoVCvIdelce1trb+3u/93p/8yZ/87u/+Lofa2Ww2HA7zTZwZNE86JxIJZ7lz2Rz5FqJnpigKp89EdP78+eHhYTsstg9KN1f0er26rudyOa4u4U0IRVH0er2FQiGTydD8aDMH6zau43CecQ6M87g093uwJQmg71wBdCkehSZaggx6aee1AQAAqiizjTIAwBL6/ve/39DQ8L3vfa/SBYODg08//TQfv/DCCxcvXnzzzTdfeOGFWuad9+7dOzg4uJTLBQAAAFhSk5OTziFcm2EYnPwSETdB29PHHNpyWioIgmmajY2NGzZsaG9vb2pqqp4+s5aWlhdeeOHo0aOZTIZHhpPJpB3F6rrOuxReuXJlenqa10ALxcq1XFP6lkKhcO3aNT72+/081s0lzrqua5qmaZqiKKqqqqqqaRqfNAzD7XZLkqQoCr+X02pRFHl3Qf4spW0bC85uV8rZb5ldAL1585Lcj6jC+LPT4cPU3n67Dc6VAmj0bwAAwJLDBDQA3FkvvviiKIonTpyodMHXv/51nne+BW1tbTxADQAAALA6TU5OVnpJVVVFUXgy1zCMQqHgdrs5peUijo0bN4bD4aamptofx50bXDN93333vf766wcOHOAND3O53OTk5NTUlD3vbP/kA3ubRPtW9k/niLT9Fjs9d57nA55c5hHmiYmJYDDIYXql2LdozlrXdZ5u9vv99saDkiTpuq4oiiAIfr8/l8txnG0PUBeNP9t90GVXaFnW0hZAL5UF02cWj1Nv723VcaB/AwAAlg0CaAC4s0r/ncolxAH06OhoW1vbnXsKAAAAwC2rEkAbhpFOp+vq6mRZ5qg0m8263W5ZlhVFKRQKW7ZsqfEp3EfBQa2dse7bt+9P//RPL1y4sH37dn7p0qVLc3NzZQPZ0l9v7ZjrpIv6nTOZjNvt9vl8vAdglU9hj0gTkSAIHo/Hrmy2PyC/xBm0YRh8ga7rZcs3qkw6L20B9FI5dOhGycaCuI7j2DE6fvxWUmNUcAAAwLJBBQcALLHf//3f7+jo6Ojo+MIXvrAMj+vs7MQQNAAAAKxaVQJoIuIWZk5dicgwDN58TxTFjz76aGRkZMH7c/RcKBR0XbezXTt1/bVf+7Wf/vSnU1NTqVQqn8/fc889Ho/H+V7nsXM6uOxx6Vv4QNO0ubm5qampjz766PLly1NTU0W7C5qmWSgUCoVC2dEEuzrDMAzu37BfsvcM5O5m0zR9Pp/b7eZ5au7iME3TXqS9JH5XlfR5qSag29tJEKi7+/bvdENfHw0NLSJQjsepu7vWOeg4UR9RL1E30eFr5a9Zwi4RAAAAhgloAFhiTz311P79+4moaE+YOwT7EAIAAMDaZRhGJpNpbGzkY0mSuLzC6/US0RtvvPFbv/VbZd/ImTWrsk9gc3Pzk08++Td/8zePPvqoLMs+n2/Tpk2XLl2iJRp2npuby+Vy3F69IA6g7f8XseiGpSPMTJblfD6fzWa58UMQBJfL5XK5+BtwuVzcZFL0rrLjz0vV++zEc8RLW1sRi9Hx49Tfv5Sj0H1EJ4gGarjbsRhdI3qGqKumhy+9OMWdB86f7Bpds8/so3091BOj2LIuEQAAFgkBNAAssS1bttT+r4suCexDCAAAAKtWS0uLULXWN5vNZrPZQCCg67okSYIgKIri8XgEQUilUm+88cZXvvIV5/WcOPNPHjS2LCufz/NPIuLjQqHAx7lcrlAopFKpUCikquqFCxcEQeCAmy0qfVZVdW5ujoimpqZu4dvIZrPhcNh5hgefS3s5TNPkaWh7vrvoAkEQ7K+raJ1cNl09bl6qCeg7kGkTEcVi1NdHPT3U3V1rVwaPQpe2Qg8Q9ZIjvnW+UPY+Meon6ifqITpEdyrZ7aXeskHzYg3QwDE6dpSOdq1YYA4AAAtDAA0Aa9vevXsRQAMAAMCqVcsWglNTU4ZhNDQ0CIJgJ6qcn46MjIyMjGzYsIGIxsfH4/E4p8x2x0XRnoF0c1icyWRM09y0adM///M/f/nLX1ZVdWxszOv1rl+/vuji6seqqnKzc43DzmWpqurMkZ11z4ybOnRd52FnmyRJRFSaQWualk6nnWfsAJrKzTvbMTcf2F/CqnVro9DXrtGhQxSLUZyot7ap55ufeuN/9xMNED1D1LfYOywkTvF+6l/Cu/VS7xANLdUNAQBgyaEDGgCWw759+9566607cWfeh/BO3BkAAADg9um6XpqcFuHq50QiwaO7zuuTyeQbb7zBB5cvX04kEjzUzK9WSp8Nw0gmk6lUigelvV6vZVmffPJJPB4nokKhwCl29fRZVdWJiYmJiYmzZ89eunRpcnLydtJnvqHzI2vzcrlcKpWamZmZm5vL5/NF6TOTJKmo3k1RlFQqxZPOzhnz6vPmS6u3lwSB7ugDeRR6UdsM9vdTdzf19lN79fQ5XumRN11ymKi31ifXaskbM+IUH1h80g4AAMsGE9AAsLa1tbUR0eDgIGqgAQAAYBWqpedB13WPx5NIJHw+XygUIiJu4eBXk8nkqVOnOPzlvfj4fNn02TCMXC5nt1LYL7W3t7/99ts7duzgX+fm5iq1cCiKMjc3d5vDzqV3FgSBR5tnZmZkWTZNs3TSuTrnHHQmkyntfbYfVPRo52JsVNsfTXUDA7d5g1p1dS1yFDpG/T0VX40RPROn2u5ERDdmlY/WfP2KuLUGDwAAWB4IoAFgzeMMGgAAAGCNsqPSfD5vGEYgEEilUs3NzZzSGoZx/PjxXbt2+f1+WZY5tC1Nn3VdVxTFHo6mmxPYQCCwadOmZDIZiUT44kKhwBk0N2xws/PExMQSfhwnXpgsy1NTUzyRXXZsufpJPkgmk2WHyovuueCWg7cfQA8tY+sDj0IT1ZBBdxEdL//KIaIeohhR/0CFp3RRF5Vpx+Azt59Bxyl+h6aV0QENALCaIYAGgDWvs7Pz5MmTmIAGAACAVaiWlJODZrtiIpvNaprm3CpQ07Tr169v3rxZkqSyvRnZbNYZPdPN8asdN4+Pj9fV1XHLRzqdFkVxdnY2k8nc/rDzgmmvHRnLsswXVyoAKcu5JyER8ffg3GmQ20uq9G8s6nGrFu9M2Ntbdfi6XPrcRXS0hh0Fu2J0lGgf0eGSio5+IrqlDNpufD68iKnrxemiriWv9QAAgCWEABoA1ry9e/ceOXJkpVcBAAAAUF5HR8epU6dquVJVVbfbTUS6rvP+gV6vVxRFHlK+du3a1q1bJUkyDMOOUAuFQjabtbfXIyLOlzlTVhTFWVUhyzIPQVuWlUwmr169WmUxS1KmbJqmoiiqqsqyzDeUZdm58eCCuKmjqKyDd2vk46Ik2j654J0r/bOBsbGxsbGx8+fPX79+PRwOE9HExMTXvva1Bx54wHlZfz/19hIRHT1KPT21f6DbxTsT9vVVGIUulz4fp+Lx4Hi82iN6iLrKbWDYT/RMya1K8YxznOIn6MQyVDP3UM/R1V4QAgDwWYcAGgDWPOxDCAAAAKuZs225EsMwXC6XYRg8ycsDv6qq6rrudrtlWSYiVVU//vjjWCzGw86GYWQyGd7Zz06cC4VCpXJkIopEIleuXOno6CAiSZK8Xm+hUKh08e2MCZumWSgUVFV1JuP8KWq/g6ZpVT6LfQ0f0HxJNCtbAO08dqbPduI8OTl5+vTp1tbWhoYGt9stimImkyGiQCDw05/+9MKFC7/+679e+0e4o3gUurv75ii5q0w8XJo+E9G1a+Vvu2/fjYMY0dFyGXQvUdneER5zvkbX+ssUeNwph+hQD/Vg9hkAYPVDAA0Aax4CaAAAAFjNOjs733nnnerX8D6EztFgwzD410KhIIqiy+VyuVy6ro+PjwcCgXQ6PT09TQslzszOXj0ej8vlyuVyfr+fiAKBQJUA+hbwqHLZexqGIYqiJEnVB6ur5M6mafJwNzm+HEEQ+MtZcG1FkXQ0Gv3JT37S2Nh4/vz5ixcvNjU1iaIoy/KDDz4ozCMicV4gEJibm/uv//W/PvXUU3yHnp5lHXwuxaPQN+1MWDIHXDZ9poUmoG/cv1wGHSfqI+pb9jHnmxcWe4ae6aO+5XwoAADcDmHttl8BANiefvrpF154ATXQAAAAsAqdO3fum9/8ZvVrRFEMBoOCILS0tBCRZVm85SBPTwuCIMuyPU3sdrudHRRUbu++Sn/RSyaT6XS6oaEhEokIgjA3N1fUbrFYPOxsmibPYlchCILH49F1vfRKzp01TXNOTJumaRgG/yxt7agePdstJfb3wGeYpmkbN27cs2ePJEmc7BORKIr2T5pv+RBFsSgxD4VCLS0tra2tu3fvrv55l008Tt3dFO8qDqC7Km5GSO3t5TPooSGKxW6+OVH7zdfEiOK0BPUstwDRMwDAGoUJaAC4G2AIGgAAAFataDQaiUSSyWSVa0zT5AnfojOGYdjNEtzOQfN9HaW76pUNnYuy6UAgMDs7axhGMpn0eDzhcHhmZmaxn4jwZsRvAAAgAElEQVRLQhRF0XXd3l2wlnfx5orOz8ihsx09cxpeNnG2byIIAgfH1Z9V/Ywsy5FIpPSNlXJn+9VMJpNOpy9evPhnf1b40z99hIhWfKaLR6G7S7YNrNKLXMsE9I2bEx2im3YPjBMRdZWUc9xZMYpx4cZyPhQAAJYKAmgAuBu0tbWNjIys9CoAAAAAymhoaNizZ8/AwED1y0zTFARBURSPx0PzvcYcQAuCYJom70ZIJXXG1W9rWZZhGFyLkcvleMKXWzhyuVyhUOBdDRf8FPwge1NB56hydYZh8EaCHBn7fD77PoVCQdd1XiGvoWhHQfvYPu+ceq6leaPSBwkGg86Tdu1G0QQ0x9BFL/GZXbt+ceAAvf76I8/+PNniFVu94v31cotX3F23An/LjsWK0+ceupVq5KLxZ/tWJfsdHlqqAJqHmonocOlDbjwJRc8AAGseAmgAuBvs3bv3yJEjK70KAAAAgPJqCaANw7C36bPHb3lbQpqPTUVR5EHpBXNnO3TmzQlpvrOCb5LNZv1+v71VYCAQKHsTO3TmIeUFC6M5R+aGDVVVDcPgKWkeW+ZrZFnWdd1ZiFH9nuQI2SVJ4nlwHqbWdZ3zaGc0XOUOzp/chR0IBHiemoueaf6bX/CG3Ihy4MAvnl939JFffX1i3cbJ1k1nH3r8wwcfo1jsS+vcX4p6WrwL3GQJ9ZecOVT54kr/SSybPhNRrMzAc4VLaxCjWBd1babNXdTVNd9QHad4UQCNtg0AgLsJAmgAuBugggMAAABWs/vvv3/Ba3Rdl2VZURSueLYngjOZjHNc186gSzsiDMPQNI2jZ+dQc9H0rsvlSiaToVCoUChomuZ2u503sdPeKiUbfHNn1lxU68xDzaXt0mVPVlKUTTuDZjtK5pV4PJ6i9pLSWxXdze/3K4ri9/srhe/V2X3W1/fuGZkc6fjpT4n+6UtvvEJEk+s2vfLMt77zr/7nL61zP9nuu4Wb34ITJWdilS+u1L9RKYCmMgPPsdpbOHh4+Rl6xpk4l15ziA5xBo3oGQDg7oMAGgDuBm1tbUQ0OjrKBwAAAACrSjQaDYVC6XS6yjWckObzeZfLJcuyx+MxTTOfz/OwcCgUskNnLoPmYx465vHksk0apXXGPGfN48yKokiSVJTeOnNnviePM1O5rLmIaZo84Fz2AxqGYReJVPkSigiC4HK5ypYyu91ut9u9YIVIaWlJMBhsampSFKX6G4se6ryPIAic3V/94hfXX7687sIFPt8yPvx7L/3O5LGXfvaVJ5/9X769PDF0/OZfe27pJlUC6MqvVLq+zJhzdT3Uc4yOoegZAOCuhAAaAO4SPASNABoAAABWocbGxvvvv//nP/95lWt4bldV1UKhUCgU8vk8F0QQUT6fJ6L6+nq+kuej8/m8qqpVBoqLBp+deFDa3vGPn57L5fjpxrzqWbNTpZFneyVEpOu6JElly6OrRNJckVE08c1l0F6vtyg9X/ButsbGRrfbLYqic5vH0jUX4c0PBUGQZZn3gUwkEpmmpo8fe8wOoFnL+PCTx1760huvfOf//pvJwj2/d++tzFnXLn7zr5urXnyidF6a31X5bTGiWPFT9jknoGsZc64uRrEhGrqFNwIAwOqHABoA7hKdnZ0nT57s7Oxc6YUAAAAAlLFnz57qATQRqarK4TJvDGhno7qu5/N5n8/ndrsLhUI2m+VYtsqtSgefLctyVjkrisIF06qqXrlypfasuQjXMS84g8y1IaXvreX+dgeIXdDs8/l4q8ayN6l+xu6A5kbp0kDc+b2Joshjzpw489vtzQkty3K5XLquj+/cOb5zZ1EGTUQt48Pf+9//Jx6FfvnRyIIf9pbFb/41VvXizZspFvu0iCNG8Weov48O04kuouOV3hUr85RFjzkDAMBnk1DLf+UDAKx+g4ODR44c+dGPfrTSCwEAAAAo48qVK0899VT1a3jAVhRFv98vCILX63UWNHMYardwVAqg7cFnZ5tz0RaCuVzOMAyfzycIgmmayWRysR+HR555g8FarufhaN6BcFF/CbU/LxHxloNer9cZr5dG287San7JOZqtaZplWb/927/NObLb7bY7Q/gr5Wibi1CcN2FF361hGIlEgojWXbjwL156qexHmFy36WdfefJndzKDLprWPk415cHxgTj19sbiA5+eOnSI+vrKXtx9c+VzD9HRxawQAAA+y5ZvW14AgDsK+xACAADAarZ169aOjo7q19h769F8z0bRq3Z6WynD5WSW99zjNudkMplOp53pMxG5XK4FZ5arLFLXdd7AsMYomRNhHute7AgUh/KSJMmyHAgE/H5/Ua/IYm9oWdaOHTs4X+Ys27Isr9fb0NBQX19fX1/v9/v9fr+dPpMjBC+tNOGFEREPQZd9Ysv48JfeeOVLf/YHz/580UF/jWI3/zpQy3v6+2Pd7Telz0R07BgNlH93/OZfq7d8AAAAOCGABgAAAAAAWA6f//znq1/AWappmnYvc9FLzj6KInY8yrlzOp0uzZ2LrrfHimtZvJ07c/Rcy/WlU9JlC6CrM02TR8IDgUDp0Hdp+lz6iNIzjzzySNF0+ezsbNHNnUUcPG/u/KKcrwaDQb7V+//qX1X6FJxBt/zzP74ylK90TZF4nAYGqK+PursXvjhW401tfX3U21v+qb29n9ZzOF+5zScCAMBnGAJoALhLtLW1tbW1DQ4OrvRCAAAAAMp74oknql/AY8tEpCgKDzKXzinbGbSdvXL0bFmWM3d2pq6maZqmacfH2Ww2k8nUvuwaR56dibOmabqu67ru7MdY7Kgy586hUKhs9Hxr9+Tx54aGBmezBxF5vV4u4HZezBm9M3ouSqXtddbX1wcCgalduyoNQRNRy/jwv/m//tefjasfJsr/IwQiisepr+9G6NzeTt3ddPhwpYnkairsMujQ1VXxJc6gFxJbxHIAAOCzDpsQAgAAAAAALIdoNNrR0XHq1Kkq1xiG4XK5OPN1uVyapkmSVBSz8oi0ncmqqqqqKqfS5jzDMOxjvszu5aD5nQO5T5mIRFEsO5vMIXKlkNe6WfXPLooiPysSieRyuUqt06IocqmF3+8v+siV1rCoM8Fg8JFHHuHtBzkut18dGxvbvHmzvbugHesX3Y3/wYB9zNebphkKhXw+39Bv/ua673yn0pfQMj785OHnX/mDP9u9J8Rn4vEbk84nTlQLmgWBqn/B+26u3YhXu5aIiLq66NAhOny4/Ks8eu0og+4vuSS24CMAAADmIYAGgLtHZ2fnyZMnOzs7V3ohAAAAAOV94xvfqB5A2y0cmUzG7Xb7fD6Px8OtGqIo8igu/+SNBFVVpZu33St7z6Kd+jh7TaVS2WyWe5CL6j4Mwyjt2XDm1zWOHvNWin6/v6WlJZ/Pz8zMZLNZl8tVV1dH82k7ze/+xyXRle5TS9a8oPXr14dCoVwu5/V6i+adeQiayzScA9f8bUuSZJec8D8hkGXZsqxCoZBIJFRV3blzpyiKkx7P9W3b1l++XGkBu8/8088GBv7Pi1+RLrirh86L0kXkzJLjRP1EPdXf09NTLfY+doy6uuxB6aKgugsBNAAALAYCaAC4e+zdu/fIkSMrvQoAAACAiu67777qQ9Cc7XI2yqPN+XyeU1rei48vq2UDQOfIs5NzLJpjaJ5N5l8ZOaJwWkziTER+v7+trS0YDG7atCmbzV65cmVubm5kZMR5DUfekiQ5i5j5cfZYsVNpAF1pSUUniwaW+fjMmTPd3d1U0n89OTl577330vwgNvdvOHd9tB9qWVYikchkMnYdSqFQ8Pv9k5OTddu3VwmgW8aHn/zhS7/9m13vHHZXuuYWdBF13TwEfXjBADoWo6NHqbu7bOPzjSKO48cpFhsoGal+5pYXCgAAn0kIoAHg7tHW1jY6OrrSqwAAAACoKBqNPvfcc88//3yVaziZJSIOgnkSmaduab6RuXoczPPOzmtM0+T7cC+zy+XiAV6e+eWRZx6m5sR5UbsF8g6Bra2tTU1N0Wh0ZGRkcHAwEAhMT093dnbOzMzk83lRFF0ulx342sszDEMURbvIguaj3tIMulJPyILsG3IzyU9/+tP6+vq6urpoNMqDzLIsnz17dnx8nL+BQCDgDJ1LcfRsT4jzZXNzc5lMJpVKXd+2rfp6Wsc/aXxIb3xIn3l/Kf8+XtrC0V97Bl3WfAZd2tPRdUsrBACAzyxsQggAdw8E0AAAALD6dXR0dHR0VLnALnG2z/DOfhzaVi9l5s0GOYDm4o5cLpdOp7PZLM9Tc4YriqKmaYVCgVPdTCaTy+XsbQNryXn9fv+mTZt27Njxy7/8y48//vjXvva1z3/+89u2bQsEAs3NzZFIxDCMbDZ77tw5nil2Lsw5l21PEDt3XCw77LzYumfnGQ6+m5ubd+7cOTY2JstyLpdLpVI8f21Z1q/8yq/s2bMnEAjw9oyl8TcvdW5uLh6PJxKJ0s6TbDY7OTlJROnGxupfXcv48JfeeKXxweKGk+rKregmPSVnDtdeBl3JwMBAX99AyYNiC94WAADAQepzbCwAALDWDQ4Obtiwoa2tbaUXAgAAAFDR5z73ub/4i7+ocgHnsxyD8oCw3eNcmo3a6S3TNE1V1UKhoGmac5M9m73/Hj+ien+0k8/n27JlS3Nz8759+x588MGdO3du2rQpEom4XK5sNuv3+7k9gxc/PT0timI2m12/fv1jjz02OzubyWT4gxQVX9gfsLQ9o2gBRWfKxs2l4TV3N2/evPmrX/3qa6+9pihKLBbbtGkTf6U+n49/bty4cdu2bVSuUFvX9WQyOTk5WSgUKj2aA3fLshSfb/3ly+HZ2SrfZCCb/PkzvzH0Y2+Va0pV/7t7HdE1ovcdZxJEf030bxa8byxGZ86UL+IgomvXzjz0UDwWs0/8EQJoAABYJExAA8BdhfchXOlVAAAAAFQTjUafffbZ6tdwRmzPMhcKhWw2y7PM9vgwD0Tncrl8Pp/NZrPZbC6XU1W10lZ+9rvsgHvBYWefz9fe3v7AAw90dXXt27fvgQce2L17t9fr9fl8XJQsSVIkEkmn05w+S5JUV1d377331tfX87POnDkzMDCwf//+PXv22IG4JEl28wYHvkUrcbYtO8/bGXQtBdA0n27v3r17//79AwMD6XTasiyfz1coFHRdT6VSMzMzRJRKpYgoGAzu2rUrl8vZb+ep5+Hh4UQiUf2LIsfWhe8eOFD9yt3v/5N/3a3UiVR3qCQajhO1L/g2LuJwRMw3vRiPH+3tjc3H04fQvwEAAIuHABoA7jZo4QAAAIDV7+DBg9WLOBjXNCuKYm8JqKoqx9DpdDqRSKTTaWe3xoI4wLVrkUsTWx5zfuKJJ775zW9u2bKlqamJo/B0Op3JZHiwms8439vU1HTp0iW32+3xeNxudyAQ2LNnjyAIHIVns9l/+Id/8Hg8v/Ebv+H3++2ni6LI09Ccs5d+9lo+UaWPaW9muHXr1o6OjtOnT1+6dIlftb8rTdPS6TS3VPOZt99+my+zo+e5ubkq63GelGWZD9INDQuusGV8uMYMOhajQ4eq9WR8eiVR6VVxovab66HLP+Po0YovxuNHe3v5/n0LrwIAAKAYNiEEgLvK3r17jxw5stKrAAAAAFhANBp98cUX//W//teKoiz2vRxD39pzJUkqrZjw+XzRaHT//v2NjY2/+qu/yie///3vFwoFSZI0TVMURRAEl8tVKBQ4QeYAWhRFt9stimJjY6PH48lms+FwmJ+yYcOGhx9++J133uEUOJvNfvjhh9ls9uDBg1euXPnwww/tQWwO2cPhMN/TmaSbplm2iKNsJbSdd9tEUWxtbX3ooYf+9m//dmxsjE+Gw2HLskKhkMvl0nVd07RUKmVZVmtrq6qqb7/9diQS+eSTT1KplHNTRLo5ay5aJxEZhqEoiqZpsiynGhpGt21ru3y5yh9Ey/iwb92u3HiZmbBYjGIx2rePurqoq6vKPcroIYoTFW0bGCfqJjpUPT7mMujDpTsOEhF1DQwc6uvrQoEnAADcEgTQAHBXwT6EAAAAsFZEo9Hvfve73/rWt5btiZIkcaTLyex9990Xi8Uef/xx3iewyC9+8YtMJmNZltvt5m6NfD4fCASy2WwkEiEiy7JcLpfH4/F4PIIgBAKBn//853v27OHa5fr6+t7e3kwmc/bsWfueV69enZiYeOCBB77+9a9fv3790qVLdi6sKIrf7+djjnc5j7Zrr535rz3gzA0bfJDNZu2OZiL63Oc+t379elEU/9t/+2/22y3LCgaDRBQKhYhIlmUO03O53OXLl3mpqqpev3699q4PDuj5HyR4PB4+c3XjxuoBdOvEJ/5Wc2b+11iMnnmGiG4ldC7SQ0QlGTSfOUbURbSv3I6FcaL+np6uEye6BgbK3rbv2LElWBwAAHwmlflXrgAA1rT9+/f/4R/+YWdn50ovBAAAAGBhf/7nf/7yyy/f0UfYca1lWdFo9F/+y3/Z29u74Lv2799vz1mLohgOh71ebzQa5YaN5uZmWZadSbQsy6lUanh4+J577uF3/dIv/ZLP5/vWt741NTVlr4SIdF0Ph8Nbtmy5//77U6nUpUuXTp8+LUlSMBi0Wyy49ppT3WAw6Ny30DRNbszgHmo+qaoq1zSHQqHt27c//PDDExMTH3zwwfXr13lU2S7Uvvfee7dt2/b444+TI5VOp9NDQ0PZbJZvy93WVDV95hXa3R1MlmVZlvP5/LqLF5/7L/+lytf7yjPf6o8depR8dyLUjRP1l8ugnWLzPwecJ+Px493dsUobEsZidPx4pbZoAACASjABDQB3m7a2tpVeAgAAAECtfu3Xfo2I7kQGbZcsc+zb0tJy8ODBWqJnIvq7v/s7Z52FaZq8Td/k5OT69etVVZ2dnV23bp0kSXyZruuGYfj9fm7SaG1tJaKxsbFHHnnk3/7bf/sf/sN/sOssOFPmRo6rV6+2tLS0t7dv3759bGxsenp6fHy8NNXNZDJ2Bq0oCsfERMR9F3YM/fDDD+/YsSMUCp05c+av/uqvMpkMlRRohEIhr9fLo9Z8ZnR0dGZmhqN2uxTbNE1Jksqmz4ZhcDJetnSbv418Pp+IRKp/w5PrNv0fvy19ad0CfxC3JlZ5DtoWd/z89GQs1nv06PHu7grviVNvLx0/frvrAwCAzxgE0ABwt+ns7Dx58iQmoAEAAGBNqKure+655zZs2NDf3x+vNHm6GNFoVBRFLmgmoscee2zLli333nvvjh07ar/J+++/X9SnbJpmJpORJElRFM6d0+l0U1OT1+sVRbG+vp77lMPh8Ozs7OOPP87p7dzc3ObNmw8ePPjaa6/pum6PVJumyaUZQ0NDQ0NDPFK9bt26rVu3cjrM1Rzj4+NElE6nJycn/X5/Lpfzer3BYDAUCvFPIopEIsFgMBgMXr169dy5cx9//HFRWbPzoKmpiRurFUWZnp6+fv268zMKgmDHyqXpM0fPReG4EzeH5HK5Wr7hidaN+71lCqCXSoyoj6iHqHfBHQhvNtDV1XfoUF+FMmgaGKC+PkIZNAAALAYCaAC422AfQgAAAFhzvvrVrz722GN//dd/ffToUXvCt0bRaLSjoyMajX7uc5/r6OhYkvW8++67pSd1Xc9ms7Ozs6IoejweXdenpqbq6+t9Ph8R+f1+URQbGho8Hs/k5GRLS4tlWalUqqGh4d57781kMm+99ValvRNTqVQ6neb8PRAIEFFLSwsRbdiwIRAI8LHza7GPJyYmcrncyZMn7ZecwbGdJtsHoVBIFEVFUT744IOiNXDZtN03bXdP8+6ChUKh7Mhz0UPtg7lI5OqmTVuGhyu9ZXLdptY7GUCzGNFxoj6iYyXDzlUcq1oGTSiDBgCARUIADQB3G+xDCAAAAGtROBx++umnn3jiiddee616I0c0GuXQeQkT5yKV9goqFApzc3ORSETXdZovxyCiVCoVi8X4WNd1HhMWBEHX9dnZ2UgksmPHDlVVz58/z/9/mvP+vNmg/SuHy0NDQ/bPKuupEgqXvisUCsmyrGna3Nwc58s8JG5fZgfQfGdFUTRN0zSt9kcQkSiK1VfFJtdtarnzATTrI+qruRj6GaK+WIyOHqXubio7km8XcaAMGgAAaoMAGgDuQgigAQAAYI2KRqPPPffcwYMHx8bGxsbG3nvvvUQiUVdXxy8R0Z0LnZ14C76y8vl8Mpm0LKuurk7X9UQi0dTU1NjYuG3btlwul81meVD6F7/4xcMPP0xEuq5LkhQOh3/pl36prq7u7NmzFy5csO9WlD7fpqJbFQ0mNzQ06LoeCoXsvQcNw+DE2f5p72qoKEoymbRvxRc490K0o+oiXEXi8XiGKk9A/+wrT95ft9x/GY/Nl3IQUXz+f+yXYkRdN109n0GXhTJoAABYDATQAHC3aWtr6+zsHBwcRA00AAAArFE840xEBw4cWJEFcPlyWaZpTk9Pezyeubm5uro6HoKOxWIulyscDofDYV3Xw+HwyMjIe++919zcbFmW2+3eunWrKIp+v58ve/fdd7lIupb0udI1C77XGUC73e76+nrTNF0uV+k1dv+GHStzj3bRZWVHm+2tC7lCWlVVVVU1TZv0+yst7OxDj38p6qm++Dsk5vi5gK4uOnSIUAYNAAC3bZn+lR8AgGWGIWgAAACAW1ZlApqIdF3P5XKZTEbXddM0p6amuKaZuVyuSCSyadOmU6dOud1uj8cjiqKqqrIsb926ta6uzuPx7Ny5c1Hpc6Vx40ojz6XHmzdv5pvIslzpVjy7nU6np6eneRfEBddmWZamadlsNpvNTkxMTExMpNNp4gHqVKrSGz988LHdyz4BfSt6eqp1PR87RpV6ogEAABwQQAPAXaizs3NkZGSlVwEAAACwVjU2NlZ5Vdf1TCajadrMzAwRmaZ5+vRpu7DCMIyZmZl0Ov3FL37x3Xff9Xg8Xq83n89nMhnLsjo6Orxebzgc3rx5c42LqX0CumwAbZpmMBjkfmpBEHjLRJthGLlcLplMTk9Pz87O5nK5dDqtqqppmoZhVFmSqqq5XG52dnZ2dpZjaztS1zSNY+iyfvaVJ3c/dM+yFUDfFi7iqNT1zEUcZXuiAQAAHNbCf+cBACzS3r17BwcHV3oVAAAAAGtVpYljWz6fNwyjUCgoiiIIwscff5xIJGZmZrLZ7NTUlKqqRNTS0sIVHESUTqdHR0ctywqFQt/4xjf+//buPzju8r4X/aP1WjL+AcLYKeKLwOG4NYSkKUr47tgUAi7JycVJGSeBBG5cSG+Z/Lhxfeue5LZ0TgK3pAOUSzkVtw3TtElKbppDUodzYNrSntqYH85Z3dDGBbdjTBODtHECtiTLkixZ0u7944GNkGVZlrVaSft6TYZZ7T67+xGTGeDNh/cTQrjgggsuu+yy8gdOYxN0eGM3ufw49pmEEBYuXJjNZkeHzl1dXf39/cffNDhu+jwyMtLX19fV1fXaa691d3f39fXF0Hn0NnepVIrp82tLlow72z/+x5vWV6l/YypiBn0iMYMGgAkJoIF5KEkSFRwAAJUzPDwcV567urqKxeKrr74aQog3EA4ODg4NDY2MjBSLxcbGxn379pVKpaNHjw4NDb366qsxg87lciGExsbGtWvXLlq0aIIvKge7x2fiE185WO5rXr58+dKlS4vF4tGjR7PZ7ASh8+jfLryRQcfQua+v79VXX40J++g3FovFMcXQ4/ZEl/3jf7wpXH313OjfKItl0CcSy6AB4MQE0MA8lCRJUAMNADBV5ZXhCRw5ciQ2IB87dqy3t/eFF14olUpLliyJG8Hx+bPOOuu1114r91F0d3cPDQ2VSqVLLrnk3HPPDSEsWrTosssuW3WikodTcaId6rPOOqu3t/fw4cMDAwP19fWjbxo8kRgi9/X1HTp0KIbOfX19x5+ZZI112avnXvBf/s//5/+4ZPzN6Flt4jLoO+9UBg3ABATQwPxkCRoAYMpiOjyx/v7+wcHBchHHj370o6VLl8YbCOOBUqn0wx/+cOHChdu2bRscHIxp9WuvvRZCWLZs2ZIlS3p7e3t6ekIITU1NcYFgjDFLzZNXXkM+88wzYxoe3ii2Ht3OMa5yrJzJZE5UA10sFk/0IXV1df39/bGEZIwHPv/gTasWzY325zEmLoMOYZwyaN3QALxhDv6VD2AS0jTN5/PVngIAYE6aTAAdQujp6RkcHAwhlEqlzs7On/zkJyGEZcuWxXC2o6Ojt7c3hHDJJZc8//zzBw4c6Ozs7Ojo6Ovr27Nnz8GDB1esWDE8PNzT09PT03PWWWedd9559fX1E3zd6M3liW8gjBoaGs4888z4OJvNLl68eILoOXZ09PT0xM3uCY6ddPG5VCoNDAw0/PjHr557QfnJ2+//7+Hqq2966xkTvHFWW7Uq7Nhxwlf37w/XXPP6gzvuCG99a3jrW1VzABAtuMNfEoD5qK6u7rvf/e6HPvShag8CADAn/e3f/u1Jz2Sz2fr6+gULFpxxxhkjIyM//vGPFy1a1NDQUFdXVygUDh48WD7Z19dXX18/NDQ0MDCwb9++/fv3Z7PZTCazePHi/v7+2KScyWTie4eHh8ckvOP2ZsQz8fkxe83xx5UrV2Yyry9drVixIpsd27xcLBYHBgaOHj3a19c3MDAwPDwcV5vj4vOCBQtiGXT5Myfudy7r7Ozs6em54uDBK3/cHp+J6fMfXLZsMm+fvRobQwhh587xX+3uDjt3ht/6rbBzZ+juDiGEurpw660zNh0As9acuvoA4FSo4AAAmLIFCxacqICirL+//8wzz4z7yyGEw4cP/+AHP3jllVdGRkZeffXVclxbKpWOHDnS399/3nnn9ff3d3V1DQ0N9ff3L1iwIJvNrlix4uDBg0NDQ3V1dQ0NDSMjI/X19TEUPn7RuK6uLj458Q5ysVhcuXJlTJzr6urq6+sbGhrKL8VrEkeHy19oD3EAACAASURBVGPEtpBSqVT+ugk6N6J46eLIyEi8hjGE0DQ4GF+aJ+lzdMcd4etfP2G9xpgm6CefDE8+OVF5NAC1QQANzE/j1ggCADAZTU1N2Wz2pAF0zHCHhoZ6enpi2cVPf/rT5cuXd3Z2HjlyJAay5cOHDh06++yzY+lzNpsdHBwsFouxnbmhoWF4eLicQQ8ODi5durS+vr67u/ukM0Rj0uGGhoZy4hxCWLp06dGjR0MI8Y+TMTIyEktCRkfP5ZQ5ThWHj3+Mv8vQ0FD5l7rs8OFXz73g9vv/+1suvmiepM8hhDvuOLVyZwE0ACHUneplDgCzWaFQ2LZtWwihra2tra3t4YcfTtO02kMBAMw9n/jEJ/bt23fSYytXrly0aFFjY+OyZcsWL16cyWTOPvvsurq6eOtgrK0oh8iHDh1asWJFLM0Ys4McF4fLG8RxRTreHxgXistlGvGfYccE06PLMYrFYlNTU7lJo66u7owzXm9eHtPjUf5x9PN1dXW9vb1HjhwZHh4+++yz43WCMVMeV3mlujzesWPHMpnMZ3/+yn/85O9uuWTJOxrny+LXk0++XvQ8eatWhR/9qDLTADBnzJe/EAK1akzinCTJxo0bQwibN29ubW2t9nQAAHPVqlWrJhNADw4OLlq06NixY0eOHFmyZElcHF62bFls8Kirq8tkMnV1dfHivuXLl7/66qvLly9fsGBBPFDu04jP1NXVxQeHDx8ulUqZTGbhwoXxW8rfWK7FGFcmk1m6dOnAwED5mcWLF5cfj3nj6B9HRkZiAh6j8xBCsVjs6+s70ReNXnke83yxWGy47FfC537vK3P3ysHjla8ZPNV3WYIGqHkCaKCy2tvb9+7d29zcvGbNmhOd2b9//0svvZQkySWXXHLSD5wgcR6z7JymaT6ftwENADAFl1566T/8wz+c9Fh/f38sgB4ZGTl8+PCSJUtCCAMDAzH2Ld8TmM1mYzJ79OjRuPscC6BHbxbX19fHXo5YlLFo0aK4Qx13nyfYQS7nyJlMZtGiRaPXmRcuXHj83YOjxcQ5Rsmjn5+gIXrMyvO47v+ND7XMp/Q5hPC1r03xjV//ugAaoMYJoIEKeuyxx+6+++5169Y999xz119//ZYtW44/89WvfvUrX/nKunXrnn/++Xe/+9133XXXmAOTT5zHyOVylqABAKbmHe94x8KFCyeOWUMIsTQjBsq9vb0hhLgH3d/fv2jRotEn4yr0W97yls7OzuXLl8fS50wmUw6IY3Dc3d0dH2cymZgsn3HGGQ0NDceOHTt27Fj8uuM3oOMOdYy/44/x0+IC9bhjDw4O9vf3n+j3KhaLY/o6TrTyfPwnb9iwoaWlZYIzc9Ktt4YQwp13nvIbx9xMCEDt0QENVMrIyMjll1/+yCOPrF69urOzc/369Y8++uiqVatGnykWi+94xzseffTRn//5n+/p6Vm7du13vvOd0XvQa9asKSfOuVzulNaZC4XCpk2btm/fPk2/EABADTl48OBNN900mVv7li1bFpug449LlixpbGwst1jEIubRD44dO7Z48eJjx46VU+O46RzrnovFYmx/jv3R8TOHhoZG3wR49OjR+Pb4TLFYrK+vH33rYAgh1neU25/Dm0s2Jvh14vcODw/HGxHDhCvP5QqR8rTnnXfet7/97ZP+SZur7rhjKhn0jh2WoAFqmQ1ooFKeeuqpxsbG1atXhxCWL19+1VVXPfPMM2MC6BBCqVSK/7hyxhlnZDKZeM1L2d69e6c8QJIkhUJhym8HAKhlK1asuOyyy3bt2nXSk+V957q6urq6utgHHdeHj18ijncDHjlyJGa7cXs6k8kMDAzE1ot4Z2B/f3/Mc2OwW8554950sVhcsGBB6Q0LFy4ckz7Hw3H9+UQlGxP/RnGS/v7+mImXP3N04jzue+dz+hxCuOOOcOut4Zprwv79p/CuO+8UQAPUMgE0UCnd3d0XX3xx+celS5e++OKLY85kMpkvfvGLn/nMZ6699tpdu3Z99KMffec73zmNM6Rp2tbWpgYaAGAK3vve904mgA4hDA4OZjKZBQsWhBBKpdLg4GBDQ8OY9DmmuiGERYsWHT58uKGhIWa4R48ejQ0eo6ucFy9ePDQ0NDAwMDIyEgPocoJczqPj58dt5d7e3vKFhyGEBQsWxNaOnp6e8vlozFTHK58fGBiYzAL4aBs2bDil83PSqlVhx45Ty6BPKa0GYN7JVHsAYN4aGRmJN8ZEmUxm3L6873//+4sXL165cmVjY+O///u/T9DENwVJkuTz+Wn8QACA2vH2t799Msfi7YJdXV3xx3KFRflA3Hoe/ZaGhoZyD0axWOzt7f3JT35y8ODBgwcP9vT09Pb2Dg4OxgaMcllzeX+5/LeUY/qg47fEZ2II3tfXNzw8HAPlsuKbxbfErzh8+PDBgwe7urri8BN3PY/rtttuO9W3zEkxg/7iFyd7fv9+TdAAtUwADUynu+66q6WlpaWl5corr4z/wFB+qVgsHn8F+fbt2//5n//5m9/85s033/zQQw+FEP7iL/5iGudJkmQaPw0AoKY0NTX98i//8kmPxWB3eHi4p6ennPPGYDe8EU+XH8Si51KpFNst4pl4eeDIyEjsd+7r6+vp6enq6jp8+PCY8uVyL0dMlkePUVdXFxef499zHt+SUQ6gY+I8MDDQ19fX3d19+PDhw4cPx9Q7Dnn06NGBgYFTvTDp05/+dFNT0ym9ZQ5btSrccccpZNBTaI4GYL5QwQFMp5tvvnn9+vUhhGw2WyqVXnjhhfJLXV1d11133ZjzXV1dv/ALvxD/a80QwoUXXtje3j6N8+RyudbW1mn8QACAmvLxj3/86aefnri2onzf4NGjRxcsWLBo0aL4TOxrjpnvmL2EUqmUyWReffXV5cuXxytA6urqjg98i8ViJpOJZRrl+DiWcow+Fss34t9/jsmdy2l4ed85vBGFj6nmGPO95QB9kq644opbb7118ufniTvuCKtWhU984uQntXAA1DAb0MB0uuiii9atW7du3bo0TS+//PIQws6dO0MI+/bt27Vr19q1a+Ox3bt3HzhwIITwtre97dlnn/3hD38YQujp6fn+978/vX3N7iEEADgdTU1NS5YsmXgXuHwvXwiht7e3t7d3YGBgaGgo7jgPDQ0dnz7Hx0uWLInJcm9v75iOjvDmruf6+vpsNhuXl0ulUt0bYvF0Nputq6uLKXO5UmNwcDAuU8cxjh07FocpjzTBL5XJZOrr6yf55+c3fuM3Hnroofvvv38y5+ehW28NP/pROO6m8bH27w9f+9oMjAPALGQDGqiUTCZz3333bd26dfXq1Xv27LnnnntWrFgRX3rggQc2bNjwkY985JJLLrn99ttvvPHGSy+9dM+ePR/+8Ic//OEPT+MMsYKjUCjo4gAAmIJzzjln48aN3/jGNyY4E7Pj8upxbNIYHh6ur6+PYXE8Vg6Uy8lvNpuNtxGWP6F8+PgCjWKxGJPoMKqII/5xaGho9IJzWdyYPr6B+qQWL158ootJmpqampqaWlpa3vWud7W0tJzSx85bsRL6zjtPEjF//euhBpfEAQhhnP/KCWA+2bRp0+bNm6d3sRoAoHZ0dnbefPPNR44cmaCIo76+funSpbF8eeHChfEm6oULF9bX12cymXIQPOZdsRK6t7d30aJF8ZnyFdblSHp4eDhuPY8uki43aYybLMfEufyWyYj90fFdcdt6dAAdE+empiah80TijvMEXc9XXx127JjBgQCYLWxAA/Ncmqb5fF4ADQAwNcuXL1+3bt0TTzwxekN5jOHh4YGBgaVLl4Y3iptDCPHywGw2W65gDqOS5ZGRkaGhoXimHEDHr4hpdWzSKN83eKK4ufzG+Orkl53LoXP8xtj4HMs3ent7m5qaNmzYEEL4wAc+UENXC56OeC1hcN8gAGPZgAbmuba2ttbW1ocffrjagwAAzFV79uzZvHnz4ODg8QF0vE4wPr9s2bK48hzLN+IlhMeXKcfSjBg9R/EtCxcuDCEcO3asr68vbj2fNE0+6XWC48pkMplM5vg7Bpuami688MK3v/3tt9122+Q/jbH27w/XXDPOrYM7doSrr575cQCoOhvQwDznHkIAgNN06aWXXnXVVU888UQ5ax4j9l0MDAwsWLAg5s7x+bhcXC7WOD56jgYHB0dGRgYHBxcuXBg/Z4JhptywMbrEIz7WrVERsRL6E58ITz75syevvlr6DFCzBNAAAACcxA033LBjx45jx46NzqDLe8cxzx0aGjp69Ojw8PCCBQtiE3SMfWMN9LFjx45fOo4WLlx47NixhQsXHj16dGBgYHRmXf6iqV0nGELIZrOxSDq4QnDGxAx6//5w553hwgulzwA1TgANzHNJkiRJ0tbWpgYaAGDKLr300quvvvrv/u7vQghj9qBH118cPXo0m82WSqUYFsfi5oGBgXJwPO7acqlUGhwcHB4ePnr0aAhhwYIFMYCe2rJznC3OEEJYuXKlNufqWLUqfPWr1R4CgOoTQAM1QQsHAMBp+tSnPvW9733v8OHDIYQFCxaEUYvJMZIuXx5Y3l8eHBwcGhoas85cFvPlGDGHNy4tDCHEKwFPadm5rq4uXmBYKpXOPfdcxRoAMHsIoIH5L03Tjo6Oak8BADC3NTU1bdq06cEHH4xBc0yc40vleuW4gDw0NJTNZmOz87gfVV6OHvfVyVdtxK/7uZ/7OcUaADBrCaCB+S+Xy7W2tlZ7CgCAOe/aa6994YUXnnzyyXLBxWjlJ+Nec7kNY/SBkZGREzVBT0a5XuP8889///vfHxRrAMCsJ4AG5r8kSVRwAACcvqampt/5nd/p6uravXv3xCfLAXS8gXB01caUv1qxBgDMRXWn83cAAHPFmjVrtm/fniRJtQcBAJjzuru7f+/3fu/73//+ZA7HXuapfVFLS0tLS8u73/3uyy67bGqfAABU3fh3QQDMM2maWoIGAJgWjY2NX/rSl9797ndP5vDp7Dx94QtfuO2226TPADCn2YAGakLsgN68eXO1BwEAmCcOHDjw6U9/+sCBA9PyaU1NTRs2bAghHDp0qL29/Zd+6ZdUbQDA/KADGqgJ559//rZt26o9BQDA/NHU1PSnf/qnjz/++Fe+8pWpvV2nMwDUAgE0UBO0PwMATLumpqbbbrvtAx/4wJ/92Z/t2LGjv79/4sMhhA0bNkicAaCmqOAAakKhUNi0adP27durPQgAwPx04MCBxx9//J/+6Z9iKUf8Y7lYQ+gMADVLAA3Uik2bNm3evDlN02oPAgAAAFArMtUeAAAAAACA+UkADdSKNE3z+Xy1pwAAAACoIQJooFbkcrm2trZqTwEAAABQQwTQQK1IkqRQKFR7CgAAAIAaIoAGaoUAGgAAAGCGCaCBGpKmqRYOAAAAgBkjgAZqiCVoAAAAgJkkgAZqSJIkHR0d1Z4CAAAAoFYIoIEaksvlVHAAAAAAzBgBNFBDVHAAAAAAzCQBNFBDkiQJIcigAQAAAGaGABqoLZagAQAAAGaMABqoLWma5vP5ak8BAAAAUBME0EBtcQ8hAAAAwIwRQAO1RQUHAAAAwIwRQAMAAAAAUBECaKC2JEmSJIkWDgAAAIAZIIAGAAAAAKAiBNBAzUnTNJ/PV3sKAAAAgPlPAA3UnFwup4IDAAAAYAYIoIGakyRJoVCo9hQAAAAA858AGqg5AmgAAACAmSGABmpRmqZaOAAAAAAqTQAN1CL3EAIAAADMAAE0UKO0cAAAAABUmgAaqEW5XE4ADQAAAFBpAmigFrmHEAAAAGAGCKCBWpQkSQjBPYQAAAAAFSWABmpUzKABAAAAqBwBNFCj0jTN5/PVngIAAABgPhNAAzUql8up4AAAAACoKAE0UKPcQwgAAABQadlqDwAwcwqFQqFQyOfzbW1t1p8BAAAAKq2uVCpVewaACioUCtu2bQshfPe7343PbNy48fzzz9+4ceOmTZs2b96cpmlVBwQAAACYt2xAA9XU3t6+d+/e5ubmNWvWnOhMZ2fnD37wgyVLluRyucl8ZjlxjmvOSZJs3LgxhHD33XePyZq1cAAAAABUlAAaqJrHHnvs7rvvXrdu3XPPPXf99ddv2bLl+DM7d+783d/93XXr1r388ssNDQ1/+Zd/mcmMLa8vFAptbW0dHR1jEueTbjcnSdLR0TGNvxEAAAAAo6ngAKpjZGTk8ssvf+SRR1avXt3Z2bl+/fpHH3101apVY85ceeWVDzzwQMyRP/CBD3z2s599//vfXz7Q2tr64IMPJkmSpmmSJLlc7pT6NNra2lpbWx9++OFp+p0AAAAAeBMb0EB1PPXUU42NjatXrw4hLF++/KqrrnrmmWfGBNA7d+6M4XL88fHHHx/zIblcbvPmzVOeQQUHAAAAQEWN/S/ZAWZGd3f3xRdfXP5x6dKlL7744pgzXV1dzc3NX/jCF975zne2tLT8+Z//+ZgDp3l/YJIkIQQZNAAAAECFCKCB6hgZGRnd5pzJZIrF4pgzL7300hNPPHHppZfu3r37r/7qr7785S8/88wz0zuGJWgAAACAyhFAAzPnrrvuamlpaWlpufLKKxsaGkZGRsovFYvFbHZsKdAFF1xw4YUXfvSjHw0hrFmz5r3vfe/f/M3fTO9IaZrm8/np/UwAAAAAIh3QwMy5+eab169fH0LIZrOlUumFF14ov9TV1XXdddeNOX/OOeeM/nH0xvR0yeVyra2t0/6xAAAAAAQb0MBMuuiii9atW7du3bo0TS+//PIQws6dO0MI+/bt27Vr19q1a+Ox3bt3HzhwIIRwzTXXdHZ27tixI4TQ2dn59NNPf/CDH5z2qVRwAAAAAFSIDWigOjKZzH333bd169bVq1fv2bPnnnvuWbFiRXzpgQce2LBhw0c+8pGFCxc++OCDn/vc5x566KGXXnrp13/913O53PSOEe8hBAAAAKAS6kqlUrVnAKimTZs2bd68OU3Tag8CAAAAMN+o4AAAAAAAoCIE0ECtS9M0n89XewoAAACAeUgADdS6XC7X1tZW7SkAAAAA5iEBNFDrkiQpFArVngIAAABgHhJAA7VOAA0AAABQIQJogJCmqRYOAAAAgGkngAYISZK4hxAAAABg2gmgAbRwAAAAAFSEABog5HI5ATQAAADAtBNAA9iABgAAAKgIATRASJIkhCCDBgAAAJheAmiAECxBAwAAAFRAttoDMBs9+T/CV/7kTc98Y1uVRoGZkqZpPp9P07TagwAAAADMHwJoxnHxpeEzvxVCCMVi+L9uD794WbUHgsrL5XKtra3VngIAAABgXhFAM45zm8K5TSGE8Nn/LZyxONz3YLUHgspTwQEAAAAw7QTQnNB9Xwr/9P+FJ56p9hwwUwTQAAAAANPLJYSMb9t/DV/+4/Cdvw3Lzqz2KDAjkiRJ07Stra3agwAAAADMHzagGcczO8OWT4b/9g/hvKTao8DMsgQNAAAAMI1sQDOOP/7DcLQ/vP/K8JZFr//v6R3VngkqL03Tjo6Oak8BAAAAMH/YgGYcjzxe7QmgGnK5XGtra7WnAAAAAJg/bEADvC5JEhUcAAAAANNIAA3wuiRJghpoAAAAgOkjgAb4GUvQAAAAANNIAA3wM2ma5vP5ak8BAAAAME8IoAF+JpfLtbW1VXsKAAAAgHlCAA3wJio4AAAAAKaLABrgZ+I9hAAAAABMCwE0wM8kSZIkiRYOAAAAgGmRrfYAzC4brgmv7A8hhOd/VOVJAAAAAIC5zgY0b/LK/tcDaKhZaZrm8/lqTwEAAAAwHwigAd4kl8up4AAAAACYFgJogDdJkqRQKFR7CgAAAID5QAAN8CYCaAAAAIDpIoAGGCtNUy0cAAAAAKdPAA0wVpIk7iEEAAAAOH0CaICxkiSp9ggAAAAA84EAGmCsXC6nggMAAADg9AmgAcZyDyEAAADAtBBAA4wVKzhk0AAAAACnSQANMA5L0AAAAACnTwANMI40TfP5fLWnAAAAAJjbBNAA43APIQAAAMDpE0ADjEMFBwAAAMDpE0ADAAAAAFARAmiAcSRJkiSJFg4AAACA0yGABgAAAACgIgTQAONL0zSfz1d7CgAAAIA5TAANML5cLqeCAwAAAOB0CKABxpckSaFQqPYUAAAAAHOYABpgfDGAlkEDAAAATJkAGuCE0jQVQAMAAABMmQAa4ITcQwgAAABwOrLVHgBgNiqMUu1ZAAAAAOYqATTA6wqFwrZt20II3/3ud0MISZIkSVLtoQAAAADmMAE0ULsKhUJbW1tHR0dbW1tbW1uSJBs3bgwh3H333WmaxgObNm2q9pgAAAAAc5UAGpi92tvb9+7d29zcvGbNmolP7t69+7zzzlu5cuXEx2KlRj6fLyfOSZKkabp58+aYOI8RD7S1tY37KgAAAAATE0ADs9Rjjz129913r1u37rnnnrv++uu3bNlyopMvvfTSxz/+8T/6oz+69tprj3+1XKzR1tYWC503btz4oQ996OGHH67c8AAAAAAEATQwO42MjHzxi1985JFHVq9e3dnZuX79+uuvv37VqlXHnxwaGvrt3/7tFStWjPs569evDyHEYo0TrTlPLE3TfD5vAxoAAABgCgTQwGz01FNPNTY2rl69OoSwfPnyq6666plnnhk3gL7//vt/5Vd+Zc+ePeN+zvbt209zklwu19raepofAgAAAFCbMtUeAGAc3d3dF198cfnHpUuXvvjii8cfa2try+fzv/mbv1m5SZIkicUdAAAAAJwqG9DAbDQyMpLJ/OzfkGUymWKxOOZMT0/PF77whS9/+csVnUQADQAAADBlNqCB2eKuu+5qaWlpaWm58sorGxoaRkZGyi8Vi8Vsduy/MLv33nvf9ra3vfzyyzt37uzs7NyzZ8/evXsrMViapm1tbZX4ZAAAAID5zQY0MFvcfPPN8c7AbDZbKpVeeOGF8ktdXV3XXXfdmPMrV67813/9129+85shhEKhsHPnzjPPPHPNmjXTPpglaAAAAICpEUADs8VFF1100UUXxcexcGPnzp3vec979u3bt2vXrt///d+PL+3evfstb3lLU1PTli1byu/95Cc/ecMNN1x77bWVGCxJko6Ojkp8MgAAAMD8poIDmI0ymcx99913++2333LLLTfddNM999yzYsWK+NIDDzzw7LPPzuQwuVxOBQcAAADAFNSVSqVqz8As8o63hlf2hwtWhed/VO1RYNYoFAqbNm3avn17tQcBAAAAmGNsQAOcRJIkIQQ10AAAAACnSgANcHLuIQQAAACYAgE0wMmlaZrP56s9BQAAAMAcI4AGODn3EAIAAABMgQAa4ORUcAAAAABMgQCamvbA//zyn//zN8o/fvLxrf/62t4qzgMAAAAA84kAmpq2qvGCP3j6j+Ljf/npnsdf/Pu3rVxT3ZGYnZIkSZJECwcAAADAKRFAU9N+dc37ewZ7n23PhxD+4p+/uekXb6z2RAAAAAAwfwigmdv2d7/ytR/81R1P3nvN16+vu3PFHU/ee0pvz9RlNv3ijf/vv3ynWCr+1Qt//euX/a8VmpN5IE3TfD5f7SkAAAAA5pJstQeAU7C/+5X93e1P7n/25cOvPxhzYOfLY585qVt/6WNXf+3696/+lYvOXvUL5/yHaZqUeSiXy7W2tlZ7CgAAAIC5RADN7LW/+5UQwtd+8K0Qws6Xnz0+bh5jVWPzey684lS/5Rd/7tKLzr7wP/39F7au/czU5qRGJElSKBSqPQUAAADAXCKAZhbZ3/3Kk/uf3d/dPsm4eVXjBe+58Ir44OpVpxw9l936SzdtfeI/3/yOD0/5E6gFAmgAAACAUyWApmrKfRphEgvOqxqbQwi3vPOmEMLVq644nbj5ePUL6m+49FfPbFg2jZ/JvJSmaVtbW5qm1R4EAAAAYG4QQDNzTnXB+epVV1x41gXTHjeP1t5T2P6jp3//qfseueHPK/QVzCfxHkIBNAAAAMAkCaCplJNeGDhauU8jVGDBeQJHBnsf2/vEHVd/fu35l8/MNzLXaeEAAAAAmDwBNNNjChcGzsCC80m9beWa79z41Wp9O3NOLpdrbW2t9hQAAAAAc4YAmima8oWBV6+6YlXjBTMzJEwv9xACAAAAnBIBNJNyqhcGVqVPAyotSZIQgnsIAQAAACZJAM349ne/Muf6NGAGxAwaAAAAgMkQQDOO/d2vvPW/tJzoVQvO1LI0TfP5vA1oAAAAgMkQQPMmv/vF8C+/ee+vnvuHHz0SOpaFEMKqxuYQwi3vvCmIm8E9hAAAAACnQgDNm1y/+Fu/fOYfhiPhr3df0P9nrXHZudpDwSziHkIAAACAyctUewBml4a1VzSsvSKEcO6/tV/e1i59huMJoAEAAAAmSQDNm2Sbm8+5//V6gcP331vdYWAWSpIkTdO2trZqDwIAAAAwBwigGSvb3HzW1s+FEIY72g/91uZqjwOzjhYOAAAAgEkSQDOOJTfclD2/OYQw+L1nB773bLXHgdklSZKOjo5qTwEAAAAwBwigGUe2ufmsrZ8PIQx3tHdagoY3y+VyKjgAAAAAJkMAzfiW3PixeBvhcEe7MmgYTQUHAAAAwCQJoDmh8m2EfY98a7i9vbrDwOyRJEkIQQYNAAAAcFICaE4o29wcM+jhjvZDWxVxwM9YggYAAACYDAE0E2lYe0Us4nAbIYyWpmk+n6/2FAAAAACznQCaiZSXoEMIbiOEMvcQAgAAAEyGAJqTyDY3L7nhYyEWccig4Q0qOAAAAABOSgDNyZ219fPZ85uDIg54Q7yHEAAAAICJCaA5uWxz81lbPx9CGO5oV8QBIYQkSZIk0cIBAAAAMDEBNJOy5MaPxdsIhzvaD99/b7XHAQAAAADmAAE0k1W+jbDvkW8Nt7dXdxioujRN8/l8tacAAAAAmNUE0ExWtrk5ZtCWoCGEkMvlVHAAAAAATEwAzSloWHtFLOLo+/a33EZIjUuSpR2nPwAACP1JREFUpFAoVHsKAAAAgFmtrlQqVXsG5pLh9vYfr20JIWTPbz7vf/5TtceBalqzZs3evXurPQUAAADA7GUDmlOTbW5ecsPHQgjDHe2HfmtztceBakrTVAsHAAAAwAQE0Jyys7Z+Pnt+cwhh8HvPKuKgliVJ4h5CAAAAgAkIoDll2ebms7Z+PoQw3NHeaQmaGpYkSbVHAAAAAJjVBNBMxZIbPxZvIxzuaO975FvVHgeqI5fLqeAAAAAAmIAAmik65/7W+ODw/fcOt7dXdxioiiRJCoVCtacAAAAAmL0E0ExRtrk5ZtDDHe2H77+32uNAFcQKDhk0AAAAwIkIoJm6hrVXxCKOvm9/y22E1CZL0AAAAAATEEAzddnm5rO2fi4+dhshtSlN03w+X+0pAAAAAGYpATSnZdHaK5bc8LEQwnBH+yEZNLXHPYQAAAAAExBAc7rO2vr57PnNIYTB7z2riINao4IDAAAAYAICaE5Xtrn5rK2fDyEMd7Qr4qAGCaABAAAATkQAzTRYcuPH4m2Ewx3tfY98q9rjwMxJkiRNUy0cAAAAAOMSQDM9zrm/NT44fP+9w+3t1R0GZpglaAAAAIBxCaCZHtnm5phBD3e0H77/3mqPAzMnTdOOjo5qTwEAAAAwGwmgmTYNa6+IRRx93/6W2wipHblcTgUHAAAAwLgE0EybbHPzWVs/F0LInt9c7Vlg5iRJooIDAAAAYFx1pVKp2jMwr/Q98q0lN36s2lPAjFqzZs327duTJKn2IAAAAACzS7baAzDfSJ+pEYVCYdu2bSGEBx98MP4ogAYAAAAYQwANMCmFQqFQKOTz+ba2tra2tiRJNm7cGELYvn37tm3b8vl8mqbVnhEAAABgdhFAA5zQ6DXnJEmSJEnTdPPmzWOy5vPPPz8eAwAAAGA0ATQwt7W3t+/du7e5uXnNmjUnOvPSSy/t379/+fLlLS0tE3/aidacH3744QkWnJVvAAAAAIxLAA3MYY899tjdd9+9bt2655577vrrr9+yZcvxZ+66667t27e/613vevHFF5csWfLVr361oaFh9IHymnNbW1usch53zXkCSZIUCoXT/3UAAAAA5pm6UqlU7RkApmJkZOTyyy9/5JFHVq9e3dnZuX79+kcffXTVqlWjz/zbv/3bjTfe+PTTTzc2NoYQPvjBD95yyy0f+chHygcKhcKmTZvSNE2SJJfLTbnHedOmTaeUWQMAAADUAhvQwFz11FNPNTY2rl69OoSwfPnyq6666plnnhkTQDc2Nj700EMxfQ4hvPWtb/3xj388+kCSJNu3b5+pkQEAAABqS6baA1ATjv793x3aujkUiyGEgZ07Ov/TlvgYTkd3d/fFF19c/nHp0qUvvvjimDNNTU3r1q2Lj19++eUdO3a8973vrcQwaZrm8/lKfDIAAADA3CWAZiacce37hv51z+EH/u/ioUOHtnzmjPf9LyHj/3ucrpGRkcyo/yNlMpniif/Fxk9/+tNbb731M5/5zCWXXFKJYXK5XFtbWyU+GQAAAGDuEgIyIzKZFX/yZz1ffvC1225ZfP2Hznjf+6s9EHPVXXfd1dLS0tLScuWVVzY0NIyMjJRfKhaL2ez4tULPP//8xo0bf+3Xfu3Tn/50hQZzDyEAAADA8XRAM0OyF/2HpTfe1PuNv1z51W9UexbmsJtvvnn9+vUhhGw2WyqVXnjhhfJLXV1d11133fFv2bVr15YtW770pS+9733vq9xgAmgAAACA49mAZoYMvbSv76+/veg9V3fd+Z+rPQtz2EUXXbRu3bp169alaXr55ZeHEHbu3BlC2Ldv365du9auXRuP7d69+8CBAyGE9vb2z372s/fee+8111wzNDQ0NDQ0eml6eqVpqoUDAAAAYDQBNDOiWDz0mdvO3LzlnD/+k4GdT/b/7ePVHoj5IJPJ3Hfffbfffvstt9xy00033XPPPStWrIgvPfDAA88++2wI4Zvf/GZfX9+nPvWpt7/hS1/6UoXmSZLEPYQAAAAAo9WVSqVqz8D81/0Hvz+w65lzH38ihHD0f/z9oS3/e9OTuxasXFntuWA6tba2hhA2b95c7UEAAAAAZgsBNMD0aGtra21tffjhh6s9CAAAAMBsoYIDYHq4hxAAAABgDAE0wPRIkiSEIIMGAAAAKBNAA0wbS9AAAAAAowmgAaZNmqb5fL7aUwAAAADMFgJogGmTy+Xa2tqqPQUAAADAbCGABpg2KjgAAAAARhNAAwAAAABQEQJogGmTJEmSJFo4AAAAACIBNAAAAAAAFSGABphOaZrm8/lqTwEAAAAwKwigAaZTLpdTwQEAAAAQCaABplOSJIVCodpTAAAAAMwKAmiA6RQDaBk0AAAAQBBAA0y7NE0F0AAAAABBAA0w7dxDCAAAABAJoAGmn3sIAQAAAIIAGmDa5XK5ao8AAAAAMCsIoAGmWbyHsNpTAAAAAFSfABpgmiVJErRwAAAAAAigASohZtAAAAAANU4ADTD90jTN5/PVngIAAACgygTQANMvl8up4AAAAAAQQANMP/cQAgAAAAQBNEAlCKABAAAAggAaoELSNNXCAQAAANQ4ATRARViCBgAAABBAA1REkiQdHR3VngIAAACgmgTQABWRy+VUcAAAAAA1TgANUBEqOAAAAAAE0AAVkSRJCEEGDQAAANQyATRApViCBgAAAGqcABqgUtI0zefz1Z4CAAAAoGoE0ACV4h5CAAAAoMYJoAEqRQUHAAAAUOME0AAAAAAAVIQAGqBSkiRJkkQLBwAAAFCzBNAAAAAAAFSEABqggtI0zefz1Z4CAAAAoDoE0AAVlMvlVHAAAAAANUsADVBBSZIUCoVqTwEAAABQHQJogAoSQAMAAAC1TAANUFlpmmrhAAAAAGqTABqgstxDCAAAANQsATRAxWnhAAAAAGqTABqgsnK5nAAaAAAAqE0CaIDKcg8hAAAAULME0ACVlSRJCME9hAAAAEANEkADVFzMoAEAAABqjQAaoOLSNM3n89WeAgAAAGCmCaABKi6Xy6ngAAAAAGqQABqg4txDCAAAANQmATTATBBAAwAAADXo/wcoTx6EmKqFSQAAAABJRU5ErkJggg==;clipPath=inset(25% 21% 15.48% 45.67%);" parent="1" vertex="1">
          <mxGeometry x="85" y="601" width="825" height="825" as="geometry" />
        </mxCell>
        <mxCell id="hXmGlQrBdRvzctw2T5mR-79" value="&lt;font size=&quot;1&quot;&gt;&lt;b&gt;&lt;i style=&quot;&quot;&gt;&lt;font style=&quot;font-size: 40px;&quot; color=&quot;#6600cc&quot;&gt;{s}&lt;/font&gt;&lt;/i&gt;&lt;/b&gt;&lt;/font&gt;" style="text;html=1;strokeColor=none;fillColor=none;align=center;verticalAlign=middle;whiteSpace=wrap;rounded=0;" parent="1" vertex="1">
          <mxGeometry x="180" y="960" width="65" height="50" as="geometry" />
        </mxCell>
        <mxCell id="S7IZpB0op00duPQ5i5Fw-2" value="" style="endArrow=classic;html=1;rounded=0;strokeWidth=10;strokeColor=#00FFFF;exitX=0.903;exitY=0.981;exitDx=0;exitDy=0;exitPerimeter=0;" parent="1" edge="1" source="S7IZpB0op00duPQ5i5Fw-1">
          <mxGeometry width="50" height="50" relative="1" as="geometry">
            <mxPoint x="798.35" y="1374.4" as="sourcePoint" />
            <mxPoint x="770" y="1330" as="targetPoint" />
          </mxGeometry>
        </mxCell>
        <mxCell id="S7IZpB0op00duPQ5i5Fw-3" value="&lt;b&gt;&lt;i style=&quot;&quot;&gt;&lt;font color=&quot;#00ffff&quot; style=&quot;font-size: 40px;&quot;&gt;Sa&lt;/font&gt;&lt;/i&gt;&lt;/b&gt;" style="text;html=1;strokeColor=none;fillColor=none;align=center;verticalAlign=middle;whiteSpace=wrap;rounded=0;strokeWidth=5;" parent="1" vertex="1">
          <mxGeometry x="720" y="1380.0000000000002" width="60" height="30" as="geometry" />
        </mxCell>
        <mxCell id="S7IZpB0op00duPQ5i5Fw-4" value="&lt;font size=&quot;1&quot;&gt;&lt;b&gt;&lt;i style=&quot;&quot;&gt;&lt;font style=&quot;font-size: 40px;&quot; color=&quot;#6600cc&quot;&gt;{a}&lt;/font&gt;&lt;/i&gt;&lt;/b&gt;&lt;/font&gt;" style="text;html=1;strokeColor=none;fillColor=none;align=center;verticalAlign=middle;whiteSpace=wrap;rounded=0;" parent="1" vertex="1">
          <mxGeometry x="670" y="1280" width="65" height="50" as="geometry" />
        </mxCell>
        <mxCell id="hDjF-CKTIelRaYJHtwbA-1" value="" style="shape=xor;whiteSpace=wrap;html=1;rotation=-180;strokeColor=none;" vertex="1" parent="1">
          <mxGeometry x="303.26" y="1001" width="50.94" height="109.21" as="geometry" />
        </mxCell>
      </root>
    </mxGraphModel>
  </diagram>
</mxfile>
